<svg xmlns="http://www.w3.org/2000/svg" xmlns:xlink="http://www.w3.org/1999/xlink" width="3000" zoomAndPan="magnify" viewBox="0 0 2250 749.999995" height="1000" preserveAspectRatio="xMidYMid meet" version="1.0"><defs><g/><clipPath id="55b9f7aa89"><path d="M 0 85.5 L 939.042969 85.5 L 939.042969 647 L 0 647 Z M 0 85.5 " clip-rule="nonzero"/></clipPath></defs><g clip-path="url(#55b9f7aa89)"><path fill="#ffffff" d="M -320.414062 -175.703125 C 131.382812 -175.703125 583.195312 -175.703125 1034.992188 -175.703125 M 78.835938 363.878906 C 79.695312 446.640625 108.390625 514.898438 166.234375 569.878906 C 224.410156 625.175781 294.800781 651.027344 374.695312 645.902344 C 514.339844 636.957031 633.054688 525.074219 634.933594 370.402344 C 635.859375 293.980469 609.019531 227.140625 554.667969 172.820312 C 493.835938 112.015625 419.699219 85.304688 333.964844 91.699219 C 266.816406 96.714844 209.226562 123.730469 161.667969 171.007812 C 107.597656 224.742188 80.792969 290.511719 78.835938 363.878906 Z M 78.835938 363.878906 " fill-opacity="1" fill-rule="nonzero"/></g><path fill="#2382c5" d="M 78.835938 363.878906 C 80.78125 290.511719 107.585938 224.757812 161.667969 171.007812 C 209.226562 123.730469 266.820312 96.714844 333.964844 91.699219 C 419.699219 85.304688 493.835938 112.015625 554.667969 172.820312 C 609.019531 227.140625 635.859375 293.980469 634.933594 370.402344 C 633.054688 525.074219 514.339844 636.957031 374.695312 645.902344 C 294.800781 651.027344 224.410156 625.164062 166.234375 569.878906 C 108.390625 514.882812 79.695312 446.640625 78.835938 363.878906 Z M 358.386719 636.082031 C 434.164062 634.164062 500.824219 606.554688 553.742188 549.070312 C 606.476562 491.761719 629.214844 423.265625 623.246094 345.878906 C 618.230469 280.824219 592.074219 224.652344 545.523438 178.910156 C 487.003906 121.414062 415.980469 96.144531 334.335938 102.328125 C 270.140625 107.183594 214.824219 133.191406 169.410156 178.566406 C 113 234.910156 86.128906 303.773438 90.21875 383.375 C 93.6875 451.007812 120.53125 509.378906 168.539062 557.171875 C 220.28125 608.683594 283.296875 634.507812 358.386719 636.109375 Z M 358.386719 636.082031 " fill-opacity="1" fill-rule="nonzero"/><path fill="#ffffff" d="M 358.386719 636.082031 C 283.296875 634.46875 220.292969 608.660156 168.539062 557.144531 C 120.53125 509.351562 93.6875 450.980469 90.21875 383.347656 C 86.128906 303.761719 113 234.894531 169.410156 178.539062 C 214.824219 133.179688 270.140625 107.171875 334.335938 102.300781 C 415.980469 96.121094 487.003906 121.386719 545.523438 178.882812 C 592.074219 224.625 618.230469 280.808594 623.246094 345.851562 C 629.203125 423.238281 606.476562 491.746094 553.742188 549.042969 C 500.835938 606.527344 434.179688 634.136719 358.386719 636.054688 Z M 262.078125 307.375 L 291.359375 307.375 L 291.359375 289.148438 L 271.277344 289.148438 C 272.8125 296.601562 267.441406 295.394531 263.191406 295.6875 C 261.949219 294.839844 260.359375 294.257812 259.511719 293.121094 C 248.511719 278.191406 234.230469 279.605469 226.355469 296.085938 C 222.621094 303.90625 229.78125 319.84375 241.578125 320.703125 C 251.980469 321.457031 258.507812 316.851562 262.066406 307.375 Z M 395.648438 246.636719 L 395.648438 314.667969 L 414.207031 314.667969 C 414.207031 303.03125 414.046875 291.609375 414.246094 280.1875 C 414.457031 268.621094 415.039062 257.050781 415.460938 245.484375 C 422.914062 241.078125 424.160156 234.273438 423.578125 226.28125 C 422.96875 217.902344 417.820312 211.71875 408.460938 209.511719 C 402.648438 208.148438 392.761719 212.726562 390.140625 217.753906 C 384.398438 228.792969 385.695312 237.066406 395.632812 246.648438 Z M 303.230469 373.59375 C 303.164062 376.015625 303.03125 378.421875 303.03125 380.847656 C 303.03125 419.613281 303.046875 458.394531 303.007812 497.160156 C 303.007812 505.832031 291.292969 512.804688 283.839844 508.6875 C 277.382812 505.128906 266.632812 507.40625 261.933594 513.347656 C 257.472656 518.972656 258.625 529.65625 264.289062 535.359375 C 269.070312 540.164062 280.410156 541.421875 284.964844 535.78125 C 289.558594 530.105469 294.589844 531.375 299.949219 531.03125 C 302.039062 530.898438 304.144531 530.433594 306.183594 529.933594 C 317.75 527.113281 325.585938 510.144531 325.5625 499.980469 C 325.46875 457.902344 325.523438 415.828125 325.535156 373.75 C 331.398438 369.382812 334.085938 363.730469 333.554688 356.253906 C 333.09375 349.714844 327.507812 340.410156 322.515625 339.179688 C 312.390625 336.679688 302.992188 340.332031 298.746094 347.996094 C 293.277344 357.84375 296.957031 365.890625 303.21875 373.59375 Z M 522.703125 241.367188 C 519.339844 247.324219 515.992188 253.28125 512.5 259.5 C 523.417969 269.375 527.878906 281.75 524.609375 297.089844 C 523.152344 296.5625 521.960938 296.175781 520.8125 295.699219 C 507.03125 289.96875 494.5625 299.207031 496.351562 314.046875 C 497.066406 320.039062 499.871094 325.003906 505.960938 327.226562 C 511.996094 329.4375 517.953125 328.15625 521.65625 323.402344 C 526.847656 316.730469 533.730469 316.773438 540.042969 318.308594 C 567.972656 325.082031 587.839844 350.21875 577.066406 383.097656 C 571.519531 400.039062 556.507812 412.425781 537.316406 412.027344 C 524.621094 411.765625 511.914062 411.976562 499.355469 411.976562 L 499.355469 433.152344 C 516.734375 433.152344 533.703125 433.167969 550.660156 433.125 C 551.941406 433.125 553.226562 432.796875 554.496094 432.519531 C 572.378906 428.507812 585.351562 418.15625 594.152344 402.167969 C 607.324219 378.265625 607.03125 354.320312 594.125 330.617188 C 585.285156 314.375 571.332031 303.707031 554.152344 297.394531 C 550.339844 295.992188 549.175781 294.007812 549.269531 290.433594 C 549.8125 271.1875 541.273438 255.621094 529.386719 241.40625 C 531.875 240.863281 534.5625 240.734375 536.828125 239.699219 C 545.3125 235.824219 545.761719 228.34375 545.335938 220.308594 C 544.953125 213.03125 538.929688 205.3125 532.074219 204.203125 C 523.523438 202.8125 512.472656 208.226562 511.054688 215.570312 C 509.863281 221.792969 510.5 228.359375 510.3125 234.777344 C 499.023438 223.445312 485.402344 224.054688 472.167969 227.484375 C 471.054688 216.695312 471.664062 205.804688 468.605469 196.0625 C 460.1875 169.207031 442.1875 152.492188 413.382812 148.359375 C 394.90625 145.699219 378.878906 150.675781 364.582031 161.980469 C 361.710938 164.257812 360.214844 165.171875 356.972656 162.390625 C 346.753906 153.617188 334.546875 148.441406 321.285156 147.433594 C 288.632812 144.933594 262.359375 164.613281 252.589844 194.421875 C 249.359375 204.296875 248.894531 215.082031 247.148438 225.589844 C 230.511719 224.53125 213.144531 224.613281 197.671875 237.054688 C 201.296875 241.644531 205.070312 245.789062 208.0625 250.421875 C 210.085938 253.570312 211.664062 253.453125 214.851562 252.234375 C 234.734375 244.625 253.6875 246.265625 271.714844 258.136719 C 278.292969 262.464844 285.085938 267.375 292.496094 269.363281 C 303.789062 272.378906 310.328125 271.09375 313.847656 262.71875 C 315.632812 258.480469 316.257812 253.757812 317.40625 249.257812 C 318.386719 248.078125 319.367188 246.902344 320.332031 245.722656 C 326.050781 238.828125 325.496094 227.496094 319.789062 220.402344 C 314.628906 213.996094 301.417969 213.058594 295.277344 217.332031 C 287.375 222.839844 287.175781 230.59375 287.53125 238.800781 C 283.351562 236.21875 279.101562 233.71875 275.011719 231.003906 C 273.964844 230.316406 272.734375 228.980469 272.683594 227.894531 C 272.445312 222.164062 272.296875 216.40625 272.617188 210.6875 C 274.046875 184.03125 304.371094 162.960938 330.566406 173.828125 C 340.148438 177.796875 349.492188 189.511719 349.464844 197.519531 C 349.28125 302.515625 349.464844 407.503906 349.1875 512.5 C 349.148438 526.332031 344.222656 539.183594 334.351562 549.324219 C 311.53125 572.761719 274.46875 571.929688 250.339844 549.125 C 238.175781 537.636719 233.144531 523.273438 234.019531 506.292969 C 235.089844 485.566406 251.398438 465.953125 274.058594 464.945312 C 281.113281 464.628906 284.449219 461.398438 284.476562 454.460938 C 284.515625 438.144531 284.066406 421.796875 284.648438 405.503906 C 285.003906 395.457031 282.238281 386.882812 276.558594 378.898438 C 269.824219 369.449219 262.53125 359.230469 250.523438 358.105469 C 233.449219 356.519531 216.125 357.710938 198.796875 357.710938 L 198.796875 378.898438 C 209.914062 378.898438 220.691406 378.898438 231.449219 378.898438 C 248.539062 378.914062 261.972656 392.480469 261.988281 409.726562 C 261.988281 418.328125 261.683594 426.945312 262.105469 435.523438 C 262.34375 440.378906 260.1875 442.007812 256.125 443.925781 C 247.707031 447.910156 238.347656 451.484375 231.925781 457.8125 C 215.078125 474.410156 206.472656 494.578125 210.246094 519.117188 C 213.898438 542.941406 225.496094 561.300781 245.257812 574.867188 C 263.074219 587.097656 282.992188 591.175781 304.027344 589.136719 C 316.839844 587.890625 329.546875 584.464844 339.710938 575.832031 C 347.667969 569.082031 354.894531 561.472656 362.703125 553.980469 C 363.125 554.484375 364.027344 555.464844 364.832031 556.507812 C 365.480469 557.355469 365.945312 558.335938 366.605469 559.15625 C 381.207031 577.222656 400.226562 587.773438 423.257812 589.097656 C 445.019531 590.339844 464.769531 583.789062 482.238281 569.945312 C 501.222656 554.921875 511.957031 535.214844 513.066406 511.839844 C 514.363281 484.601562 502.042969 462.855469 477.964844 449.195312 C 460.703125 439.402344 442.238281 437.707031 424.53125 447.6875 C 405.773438 458.261719 396.070312 474.066406 398.109375 496.804688 C 400.054688 518.457031 420.769531 536.628906 442.320312 533.730469 C 453.714844 532.195312 460.292969 518.164062 454.363281 508.320312 C 449.308594 499.925781 437.515625 497.714844 428.339844 504.53125 C 421.195312 497.371094 419.789062 487.523438 424.703125 479.027344 C 429.796875 470.214844 444.554688 463.277344 453.332031 465.171875 C 476.085938 470.066406 488.976562 489.21875 488.527344 509.855469 C 487.757812 545.90625 454.273438 569.863281 421.378906 565.101562 C 389.863281 560.546875 373.726562 536.949219 373.277344 507.046875 C 372.828125 476.832031 373.1875 446.613281 373.1875 416.398438 C 373.1875 414.082031 373.1875 411.777344 373.1875 409.328125 C 386.488281 409.328125 398.851562 409.710938 411.175781 409.144531 C 416.574219 408.890625 422.597656 407.859375 427.085938 405.132812 C 434.984375 400.328125 442.054688 394.09375 449.214844 388.152344 C 456.375 382.195312 463.773438 378.171875 473.730469 378.6875 C 487.757812 379.429688 501.855469 378.875 515.476562 378.875 L 515.476562 356.386719 C 496.046875 356.386719 476.652344 356.371094 457.261719 356.425781 C 456.03125 356.425781 454.628906 356.796875 453.609375 357.457031 C 445.746094 362.539062 437.621094 367.277344 430.246094 372.996094 C 422.542969 378.980469 415.183594 385.625 405.136719 386.644531 C 397.277344 387.4375 389.253906 386.445312 381.339844 386.921875 C 375.183594 387.292969 373.027344 385.675781 373.054688 379.019531 C 373.304688 315.714844 373.160156 252.40625 373.292969 189.113281 C 373.292969 186.875 374.589844 184.148438 376.152344 182.46875 C 386.542969 171.363281 407.757812 166.878906 422.714844 174.9375 C 438.042969 183.199219 447.441406 195.375 447.335938 213.558594 C 447.28125 221.726562 447.414062 229.878906 447.257812 238.046875 C 447.214844 239.859375 446.832031 242.109375 445.722656 243.378906 C 435.449219 255.1875 430.921875 268.6875 431.292969 284.425781 C 431.742188 303.296875 447.996094 328.246094 468.992188 333.566406 C 476.046875 335.355469 482.585938 332.324219 484.238281 326.289062 C 485.894531 320.238281 481.207031 310.5 475.703125 308.804688 C 460.160156 304.039062 455.714844 292.949219 455.515625 282.132812 C 455.277344 269.269531 462.199219 257.011719 475.527344 251.558594 C 485.484375 247.484375 494.722656 249.152344 504.199219 252.855469 C 506.582031 248.660156 509.042969 244.863281 510.871094 240.785156 C 511.570312 239.222656 510.804688 237.011719 510.710938 235.109375 C 514.722656 237.199219 518.734375 239.289062 522.742188 241.382812 Z M 188.179688 241.5 C 177.714844 257.382812 170.933594 274.578125 167.835938 293.078125 C 167.597656 294.507812 165.320312 296.191406 163.667969 296.707031 C 152.402344 300.265625 141.761719 305.136719 133.476562 313.609375 C 112.535156 335.050781 106.023438 360.726562 114.46875 389.316406 C 121.085938 411.699219 135.738281 427.59375 159.207031 432.359375 C 169.808594 434.515625 181.152344 432.796875 192.140625 433.273438 C 195.089844 433.40625 198.1875 434.78125 200.820312 436.277344 C 211.292969 442.273438 217.15625 443.09375 225.085938 433.550781 C 229.703125 427.992188 230.21875 419.375 226.5 414.277344 C 222.105469 408.242188 212.457031 403.636719 207.160156 407.199219 C 195.976562 414.703125 183.945312 411.222656 172.269531 411.777344 C 168.417969 411.960938 164.011719 410.773438 160.609375 408.867188 C 135.195312 394.609375 127.996094 370.890625 139.417969 345.652344 C 147.503906 327.769531 162.753906 317.421875 183.535156 318.121094 C 185.785156 318.203125 188.644531 319.539062 190.0625 321.257812 C 194.019531 326.0625 198.902344 328.804688 204.871094 327.902344 C 212.019531 326.832031 217.050781 322.570312 218.320312 315.023438 C 219.445312 308.367188 217.976562 302.796875 212.550781 297.9375 C 206.167969 292.234375 199.339844 294.257812 192.007812 295.554688 C 191.253906 284.488281 193.265625 274.683594 199.539062 265.734375 C 200.835938 263.882812 201.839844 260.214844 200.886719 258.679688 C 197.289062 252.882812 192.828125 247.628906 188.179688 241.5 Z M 173.355469 389.460938 C 183.867188 389.460938 192.933594 381.136719 193.09375 371.34375 C 193.265625 361.136719 185.28125 352.390625 175.792969 352.390625 C 161.378906 352.390625 154.800781 358.464844 154.773438 371.804688 C 154.746094 383.347656 161.179688 389.460938 173.355469 389.460938 Z M 539.472656 389.460938 C 551.746094 389.460938 558.480469 382.84375 558.480469 370.773438 C 558.480469 359.511719 551.796875 352.402344 541.222656 352.390625 C 528.421875 352.390625 521.472656 359.164062 521.417969 371.714844 C 521.378906 383.375 527.5625 389.449219 539.472656 389.449219 Z M 474.113281 442.417969 C 485.679688 442.445312 491.675781 435.894531 492.472656 424.40625 C 493.265625 412.929688 484.078125 404.761719 475.289062 405.1875 C 463.617188 405.742188 455.289062 412.875 455.226562 423.691406 C 455.160156 434.636719 462.96875 442.390625 474.101562 442.417969 Z M 529.691406 447.699219 C 517.953125 447.699219 510.84375 454.542969 510.832031 465.859375 C 510.816406 477.015625 518.097656 484.230469 528.5 484.929688 C 537.394531 485.527344 548.460938 475.492188 548.023438 465.820312 C 547.523438 454.699219 540.941406 447.699219 529.691406 447.6875 Z M 423.484375 341.21875 C 423.523438 329.996094 417.949219 323.324219 408.5 323.285156 C 393.542969 323.21875 386.261719 329.054688 386.488281 341.640625 C 386.648438 350.457031 394.773438 359.867188 405.457031 360.277344 C 415.898438 360.675781 423.445312 352.457031 423.484375 341.230469 Z M 169.332031 466.109375 C 167.902344 476.433594 178.265625 485.050781 187.214844 484.851562 C 198.875 484.585938 206.910156 475.058594 206.117188 465.992188 C 205.191406 455.269531 201.152344 447.527344 188.007812 447.421875 C 175.261719 447.328125 169.347656 453.351562 169.332031 466.109375 Z M 316.230469 286.132812 C 305.070312 286.039062 297.683594 293.078125 297.632812 303.855469 C 297.578125 313.992188 305.984375 323.546875 315.648438 323.097656 C 323.550781 322.742188 333.332031 316.839844 333.78125 306.699219 C 334.363281 293.34375 328.089844 284.570312 316.230469 286.132812 Z M 161.402344 224.464844 C 161.324219 233.492188 170.300781 243.378906 178.980469 243.828125 C 187.636719 244.292969 198.4375 234.234375 198.398438 225.328125 C 198.359375 215.863281 192.65625 206.292969 181.601562 205.605469 C 170.601562 204.929688 161.496094 213.679688 161.402344 224.464844 Z M 161.402344 224.464844 " fill-opacity="1" fill-rule="nonzero"/><path fill="#272626" d="M 317.40625 249.21875 C 316.257812 253.71875 315.621094 258.441406 313.847656 262.675781 C 310.328125 271.042969 303.789062 272.339844 292.496094 269.320312 C 285.085938 267.335938 278.308594 262.425781 271.714844 258.097656 C 253.6875 246.238281 234.734375 244.597656 214.851562 252.195312 C 211.664062 253.414062 210.085938 253.53125 208.0625 250.382812 C 205.070312 245.75 201.3125 241.605469 197.671875 237.011719 C 213.15625 224.570312 230.511719 224.492188 247.148438 225.550781 C 248.894531 215.042969 249.347656 204.253906 252.589844 194.382812 C 262.359375 164.574219 288.632812 144.894531 321.285156 147.394531 C 334.546875 148.414062 346.753906 153.589844 356.972656 162.351562 C 360.199219 165.128906 361.695312 164.21875 364.582031 161.941406 C 378.878906 150.636719 394.90625 145.675781 413.382812 148.320312 C 442.1875 152.464844 460.1875 169.179688 468.605469 196.023438 C 471.664062 205.765625 471.054688 216.644531 472.167969 227.445312 C 485.402344 224.015625 499.023438 223.40625 510.300781 234.738281 C 510.300781 234.960938 510.433594 235.082031 510.660156 235.082031 C 510.765625 237 511.53125 239.210938 510.832031 240.773438 C 509.003906 244.847656 506.542969 248.632812 504.160156 252.84375 C 494.683594 249.136719 485.441406 247.46875 475.488281 251.546875 C 462.160156 257 455.238281 269.253906 455.476562 282.121094 C 455.675781 292.949219 460.121094 304.027344 475.660156 308.789062 C 481.167969 310.484375 485.867188 320.226562 484.199219 326.273438 C 482.542969 332.308594 476.019531 335.328125 468.949219 333.554688 C 447.957031 328.246094 431.703125 303.296875 431.253906 284.410156 C 430.882812 268.6875 435.410156 255.171875 445.679688 243.367188 C 446.792969 242.082031 447.175781 239.847656 447.214844 238.03125 C 447.375 229.878906 447.242188 221.714844 447.296875 213.546875 C 447.402344 195.359375 438.003906 183.183594 422.675781 174.925781 C 407.71875 166.863281 386.5 171.363281 376.109375 182.457031 C 374.535156 184.136719 373.25 186.851562 373.25 189.101562 C 373.121094 252.40625 373.25 315.714844 373.011719 379.007812 C 372.988281 385.664062 375.144531 387.292969 381.300781 386.90625 C 389.214844 386.417969 397.234375 387.425781 405.097656 386.628906 C 415.160156 385.609375 422.503906 378.964844 430.207031 372.984375 C 437.582031 367.265625 445.707031 362.515625 453.570312 357.445312 C 454.589844 356.785156 455.992188 356.414062 457.222656 356.414062 C 476.613281 356.347656 496.007812 356.371094 515.4375 356.371094 L 515.4375 378.859375 C 501.816406 378.859375 487.71875 379.417969 473.6875 378.675781 C 463.734375 378.160156 456.351562 382.183594 449.175781 388.136719 C 442.015625 394.082031 434.945312 400.300781 427.042969 405.121094 C 422.558594 407.859375 416.535156 408.878906 411.132812 409.128906 C 398.8125 409.699219 386.449219 409.316406 373.144531 409.316406 C 373.144531 411.75 373.144531 414.066406 373.144531 416.382812 C 373.144531 446.601562 372.789062 476.832031 373.238281 507.035156 C 373.6875 536.933594 389.824219 560.535156 421.339844 565.085938 C 454.21875 569.839844 487.707031 545.894531 488.488281 509.839844 C 488.925781 489.207031 476.03125 470.054688 453.292969 465.15625 C 444.515625 463.265625 429.757812 470.214844 424.660156 479.015625 C 419.75 487.511719 421.152344 497.359375 428.300781 504.519531 C 437.460938 497.703125 449.269531 499.914062 454.324219 508.304688 C 460.253906 518.152344 453.6875 532.183594 442.28125 533.71875 C 420.730469 536.617188 400.015625 518.445312 398.070312 496.789062 C 396.019531 474.050781 405.71875 458.234375 424.488281 447.671875 C 442.199219 437.691406 460.679688 439.386719 477.925781 449.179688 C 502.015625 462.855469 514.339844 484.601562 513.027344 511.824219 C 511.914062 535.1875 501.179688 554.90625 482.199219 569.929688 C 464.714844 583.761719 444.980469 590.328125 423.21875 589.082031 C 400.199219 587.757812 381.179688 577.222656 366.566406 559.144531 C 365.90625 558.324219 365.441406 557.332031 364.792969 556.496094 C 363.988281 555.449219 363.085938 554.457031 362.664062 553.96875 C 354.839844 561.460938 347.625 569.082031 339.671875 575.820312 C 329.503906 584.4375 316.800781 587.878906 303.984375 589.121094 C 282.96875 591.160156 263.046875 587.085938 245.214844 574.855469 C 225.453125 561.300781 213.875 542.929688 210.207031 519.105469 C 206.433594 494.566406 215.050781 474.410156 231.886719 457.796875 C 238.308594 451.472656 247.664062 447.898438 256.082031 443.914062 C 260.160156 441.980469 262.304688 440.351562 262.066406 435.507812 C 261.644531 426.933594 261.960938 418.316406 261.949219 409.710938 C 261.933594 392.464844 248.5 378.898438 231.410156 378.886719 C 220.636719 378.886719 209.875 378.886719 198.757812 378.886719 L 198.757812 357.695312 C 216.082031 357.695312 233.410156 356.519531 250.484375 358.09375 C 262.488281 359.207031 269.785156 369.421875 276.519531 378.886719 C 282.199219 386.867188 284.964844 395.445312 284.609375 405.492188 C 284.027344 421.796875 284.476562 438.128906 284.4375 454.449219 C 284.421875 461.371094 281.085938 464.613281 274.019531 464.933594 C 251.359375 465.9375 235.050781 485.554688 233.980469 506.28125 C 233.105469 523.261719 238.136719 537.609375 250.300781 549.109375 C 274.429688 571.917969 311.492188 572.75 334.3125 549.308594 C 344.183594 539.171875 349.109375 526.320312 349.148438 512.488281 C 349.441406 407.488281 349.242188 302.503906 349.425781 197.503906 C 349.441406 189.496094 340.09375 177.796875 330.523438 173.8125 C 304.332031 162.960938 274.003906 184.019531 272.578125 210.675781 C 272.273438 216.390625 272.417969 222.148438 272.640625 227.882812 C 272.683594 228.964844 273.925781 230.304688 274.972656 230.992188 C 279.074219 233.703125 283.3125 236.207031 287.492188 238.773438 C 288.207031 245.761719 291.820312 250.261719 298.625 252.394531 C 305.496094 254.550781 311.503906 252.59375 317.367188 249.230469 Z M 317.40625 249.21875 " fill-opacity="1" fill-rule="nonzero"/><path fill="#272626" d="M 188.195312 241.5 C 192.839844 247.617188 197.300781 252.882812 200.902344 258.679688 C 201.855469 260.214844 200.847656 263.882812 199.550781 265.734375 C 193.277344 274.683594 191.265625 284.488281 192.019531 295.554688 C 199.367188 294.257812 206.183594 292.234375 212.5625 297.9375 C 217.988281 302.796875 219.457031 308.367188 218.332031 315.023438 C 217.0625 322.570312 212.03125 326.832031 204.886719 327.902344 C 198.914062 328.804688 194.03125 326.0625 190.074219 321.257812 C 188.65625 319.539062 185.796875 318.203125 183.546875 318.121094 C 162.765625 317.421875 147.519531 327.769531 139.429688 345.652344 C 128.023438 370.890625 135.210938 394.609375 160.621094 408.867188 C 164.023438 410.773438 168.417969 411.960938 172.285156 411.777344 C 183.957031 411.222656 195.992188 414.714844 207.175781 407.199219 C 212.46875 403.636719 222.117188 408.242188 226.511719 414.277344 C 230.234375 419.375 229.703125 427.992188 225.097656 433.550781 C 217.167969 443.09375 211.304688 442.273438 200.835938 436.277344 C 198.199219 434.769531 195.089844 433.390625 192.152344 433.273438 C 181.164062 432.78125 169.808594 434.503906 159.21875 432.359375 C 135.75 427.59375 121.097656 411.699219 114.480469 389.316406 C 106.035156 360.726562 112.5625 335.050781 133.488281 313.609375 C 141.761719 305.136719 152.417969 300.265625 163.679688 296.707031 C 165.335938 296.191406 167.613281 294.507812 167.851562 293.078125 C 170.984375 274.585938 177.765625 257.390625 188.195312 241.5 Z M 188.195312 241.5 " fill-opacity="1" fill-rule="nonzero"/><path fill="#272626" d="M 529.386719 241.394531 C 541.273438 255.609375 549.8125 271.175781 549.269531 290.417969 C 549.164062 293.992188 550.339844 295.980469 554.152344 297.382812 C 571.332031 303.695312 585.285156 314.363281 594.128906 330.601562 C 607.046875 354.308594 607.324219 378.25 594.152344 402.15625 C 585.351562 418.144531 572.378906 428.496094 554.496094 432.503906 C 553.238281 432.78125 551.941406 433.113281 550.660156 433.113281 C 533.691406 433.152344 516.734375 433.140625 499.355469 433.140625 L 499.355469 411.960938 C 511.914062 411.960938 524.621094 411.75 537.316406 412.015625 C 556.507812 412.414062 571.519531 400.039062 577.066406 383.082031 C 587.839844 350.207031 567.972656 325.070312 540.042969 318.292969 C 533.730469 316.757812 526.847656 316.71875 521.65625 323.390625 C 517.953125 328.140625 512.007812 329.425781 505.960938 327.214844 C 499.859375 324.992188 497.066406 320.027344 496.351562 314.03125 C 494.5625 299.195312 507.03125 289.957031 520.8125 295.6875 C 521.960938 296.164062 523.167969 296.546875 524.609375 297.078125 C 527.890625 281.738281 523.429688 269.375 512.5 259.488281 C 515.992188 253.28125 519.355469 247.324219 522.703125 241.355469 C 524.925781 241.355469 527.152344 241.367188 529.375 241.382812 Z M 529.386719 241.394531 " fill-opacity="1" fill-rule="nonzero"/><path fill="#272626" d="M 325.535156 373.765625 C 325.535156 415.839844 325.46875 457.917969 325.5625 499.992188 C 325.585938 510.144531 317.75 527.113281 306.183594 529.945312 C 304.132812 530.449219 302.039062 530.910156 299.949219 531.042969 C 294.589844 531.386719 289.546875 530.132812 284.964844 535.796875 C 280.398438 541.433594 269.070312 540.175781 264.289062 535.371094 C 258.613281 529.667969 257.472656 518.988281 261.933594 513.359375 C 266.632812 507.433594 277.382812 505.140625 283.839844 508.703125 C 291.292969 512.804688 303.007812 505.84375 303.007812 497.175781 C 303.046875 458.40625 303.019531 419.625 303.03125 380.859375 C 303.03125 378.4375 303.164062 376.027344 303.230469 373.605469 C 310.671875 373.660156 318.097656 373.726562 325.535156 373.777344 Z M 325.535156 373.765625 " fill-opacity="1" fill-rule="nonzero"/><path fill="#272626" d="M 415.476562 245.484375 C 415.050781 257.050781 414.46875 268.621094 414.257812 280.1875 C 414.046875 291.609375 414.21875 303.046875 414.21875 314.667969 L 395.660156 314.667969 C 395.660156 292.324219 395.660156 269.480469 395.660156 246.636719 C 402.265625 246.253906 408.871094 245.867188 415.476562 245.484375 Z M 415.476562 245.484375 " fill-opacity="1" fill-rule="nonzero"/><path fill="#272626" d="M 262.078125 307.375 C 262.449219 303.484375 262.820312 299.578125 263.191406 295.6875 C 267.441406 295.382812 272.828125 296.601562 271.277344 289.148438 L 291.359375 289.148438 L 291.359375 307.375 Z M 262.078125 307.375 " fill-opacity="1" fill-rule="nonzero"/><path fill="#2280c3" d="M 548.195312 223.921875 C 548.195312 224.554688 548.164062 225.179688 548.105469 225.808594 C 548.042969 226.433594 547.949219 227.054688 547.828125 227.671875 C 547.703125 228.289062 547.550781 228.898438 547.367188 229.503906 C 547.1875 230.105469 546.972656 230.695312 546.734375 231.277344 C 546.492188 231.859375 546.222656 232.429688 545.925781 232.984375 C 545.628906 233.539062 545.308594 234.078125 544.957031 234.601562 C 544.609375 235.125 544.234375 235.628906 543.835938 236.117188 C 543.433594 236.601562 543.011719 237.066406 542.566406 237.511719 C 542.121094 237.957031 541.65625 238.378906 541.171875 238.78125 C 540.683594 239.179688 540.179688 239.554688 539.65625 239.902344 C 539.132812 240.253906 538.59375 240.574219 538.039062 240.871094 C 537.480469 241.167969 536.914062 241.4375 536.332031 241.679688 C 535.75 241.917969 535.160156 242.132812 534.554688 242.3125 C 533.953125 242.496094 533.34375 242.648438 532.726562 242.773438 C 532.109375 242.894531 531.488281 242.988281 530.859375 243.050781 C 530.234375 243.109375 529.605469 243.140625 528.976562 243.140625 C 528.347656 243.140625 527.71875 243.109375 527.09375 243.050781 C 526.46875 242.988281 525.84375 242.894531 525.226562 242.773438 C 524.609375 242.648438 524 242.496094 523.398438 242.3125 C 522.796875 242.132812 522.203125 241.917969 521.621094 241.679688 C 521.039062 241.4375 520.472656 241.167969 519.917969 240.871094 C 519.363281 240.574219 518.824219 240.253906 518.300781 239.902344 C 517.777344 239.554688 517.273438 239.179688 516.785156 238.78125 C 516.296875 238.378906 515.832031 237.957031 515.386719 237.511719 C 514.941406 237.066406 514.519531 236.601562 514.121094 236.117188 C 513.722656 235.628906 513.347656 235.125 512.996094 234.601562 C 512.648438 234.078125 512.324219 233.539062 512.027344 232.984375 C 511.730469 232.429688 511.460938 231.859375 511.222656 231.277344 C 510.980469 230.695312 510.769531 230.105469 510.585938 229.503906 C 510.402344 228.898438 510.25 228.289062 510.128906 227.671875 C 510.003906 227.054688 509.914062 226.433594 509.851562 225.808594 C 509.789062 225.179688 509.757812 224.554688 509.757812 223.921875 C 509.757812 223.292969 509.789062 222.667969 509.851562 222.039062 C 509.914062 221.414062 510.003906 220.792969 510.128906 220.175781 C 510.25 219.558594 510.402344 218.945312 510.585938 218.34375 C 510.769531 217.742188 510.980469 217.152344 511.222656 216.570312 C 511.460938 215.988281 511.730469 215.417969 512.027344 214.863281 C 512.324219 214.308594 512.648438 213.769531 512.996094 213.246094 C 513.347656 212.722656 513.722656 212.21875 514.121094 211.730469 C 514.519531 211.246094 514.941406 210.777344 515.386719 210.335938 C 515.832031 209.890625 516.296875 209.46875 516.785156 209.066406 C 517.273438 208.667969 517.777344 208.292969 518.300781 207.945312 C 518.824219 207.59375 519.363281 207.269531 519.917969 206.972656 C 520.472656 206.679688 521.039062 206.410156 521.621094 206.167969 C 522.203125 205.925781 522.796875 205.714844 523.398438 205.53125 C 524 205.351562 524.609375 205.199219 525.226562 205.074219 C 525.84375 204.953125 526.46875 204.859375 527.09375 204.796875 C 527.71875 204.734375 528.347656 204.707031 528.976562 204.707031 C 529.605469 204.707031 530.234375 204.734375 530.859375 204.796875 C 531.488281 204.859375 532.109375 204.953125 532.726562 205.074219 C 533.34375 205.199219 533.953125 205.351562 534.554688 205.53125 C 535.160156 205.714844 535.75 205.925781 536.332031 206.167969 C 536.914062 206.410156 537.480469 206.679688 538.039062 206.972656 C 538.59375 207.269531 539.132812 207.59375 539.65625 207.945312 C 540.179688 208.292969 540.683594 208.667969 541.171875 209.066406 C 541.65625 209.46875 542.121094 209.890625 542.566406 210.335938 C 543.011719 210.777344 543.433594 211.246094 543.835938 211.730469 C 544.234375 212.21875 544.609375 212.722656 544.957031 213.246094 C 545.308594 213.769531 545.628906 214.308594 545.925781 214.863281 C 546.222656 215.417969 546.492188 215.988281 546.734375 216.570312 C 546.972656 217.152344 547.1875 217.742188 547.367188 218.34375 C 547.550781 218.945312 547.703125 219.558594 547.828125 220.175781 C 547.949219 220.792969 548.042969 221.414062 548.105469 222.039062 C 548.164062 222.667969 548.195312 223.292969 548.195312 223.921875 Z M 548.195312 223.921875 " fill-opacity="1" fill-rule="nonzero"/><path fill="#2280c3" d="M 425.8125 228.488281 C 425.8125 229.152344 425.78125 229.816406 425.714844 230.476562 C 425.652344 231.132812 425.554688 231.789062 425.425781 232.441406 C 425.292969 233.089844 425.132812 233.734375 424.941406 234.367188 C 424.75 235.003906 424.527344 235.625 424.273438 236.238281 C 424.019531 236.851562 423.734375 237.449219 423.421875 238.035156 C 423.109375 238.621094 422.769531 239.1875 422.398438 239.742188 C 422.03125 240.292969 421.636719 240.824219 421.214844 241.335938 C 420.796875 241.847656 420.351562 242.339844 419.882812 242.808594 C 419.414062 243.277344 418.921875 243.722656 418.410156 244.144531 C 417.898438 244.566406 417.363281 244.960938 416.8125 245.328125 C 416.261719 245.695312 415.691406 246.035156 415.109375 246.347656 C 414.523438 246.660156 413.925781 246.945312 413.3125 247.199219 C 412.699219 247.453125 412.074219 247.675781 411.441406 247.867188 C 410.804688 248.0625 410.164062 248.222656 409.511719 248.351562 C 408.863281 248.480469 408.207031 248.578125 407.546875 248.644531 C 406.886719 248.707031 406.226562 248.742188 405.5625 248.742188 C 404.898438 248.742188 404.238281 248.707031 403.578125 248.644531 C 402.917969 248.578125 402.261719 248.480469 401.609375 248.351562 C 400.960938 248.222656 400.316406 248.0625 399.683594 247.867188 C 399.046875 247.675781 398.425781 247.453125 397.8125 247.199219 C 397.199219 246.945312 396.601562 246.660156 396.015625 246.347656 C 395.429688 246.035156 394.863281 245.695312 394.3125 245.328125 C 393.757812 244.960938 393.226562 244.566406 392.714844 244.144531 C 392.203125 243.722656 391.710938 243.277344 391.242188 242.808594 C 390.773438 242.339844 390.328125 241.847656 389.90625 241.335938 C 389.488281 240.824219 389.089844 240.292969 388.722656 239.742188 C 388.355469 239.1875 388.015625 238.621094 387.703125 238.035156 C 387.390625 237.449219 387.105469 236.851562 386.851562 236.238281 C 386.597656 235.625 386.375 235.003906 386.183594 234.367188 C 385.988281 233.734375 385.828125 233.089844 385.699219 232.441406 C 385.570312 231.789062 385.472656 231.136719 385.40625 230.476562 C 385.34375 229.816406 385.308594 229.152344 385.308594 228.488281 C 385.308594 227.828125 385.34375 227.164062 385.40625 226.503906 C 385.472656 225.84375 385.570312 225.191406 385.699219 224.539062 C 385.828125 223.886719 385.988281 223.246094 386.183594 222.613281 C 386.375 221.976562 386.597656 221.351562 386.851562 220.742188 C 387.105469 220.128906 387.390625 219.527344 387.703125 218.945312 C 388.015625 218.359375 388.355469 217.789062 388.722656 217.238281 C 389.089844 216.6875 389.484375 216.15625 389.90625 215.644531 C 390.328125 215.128906 390.773438 214.640625 391.242188 214.171875 C 391.710938 213.703125 392.203125 213.257812 392.714844 212.835938 C 393.226562 212.414062 393.757812 212.019531 394.3125 211.652344 C 394.863281 211.285156 395.429688 210.941406 396.015625 210.628906 C 396.601562 210.316406 397.199219 210.035156 397.8125 209.78125 C 398.425781 209.527344 399.046875 209.304688 399.683594 209.109375 C 400.316406 208.917969 400.960938 208.757812 401.609375 208.628906 C 402.261719 208.5 402.917969 208.402344 403.578125 208.335938 C 404.238281 208.273438 404.898438 208.238281 405.5625 208.238281 C 406.226562 208.238281 406.886719 208.273438 407.546875 208.335938 C 408.207031 208.402344 408.863281 208.5 409.511719 208.628906 C 410.164062 208.757812 410.804688 208.917969 411.441406 209.109375 C 412.074219 209.304688 412.699219 209.527344 413.3125 209.78125 C 413.925781 210.035156 414.523438 210.316406 415.109375 210.628906 C 415.691406 210.941406 416.261719 211.285156 416.8125 211.652344 C 417.363281 212.019531 417.898438 212.414062 418.410156 212.835938 C 418.921875 213.257812 419.414062 213.703125 419.882812 214.171875 C 420.351562 214.640625 420.796875 215.128906 421.214844 215.644531 C 421.636719 216.15625 422.03125 216.6875 422.402344 217.238281 C 422.769531 217.789062 423.109375 218.359375 423.421875 218.945312 C 423.734375 219.527344 424.019531 220.128906 424.273438 220.742188 C 424.527344 221.351562 424.75 221.976562 424.941406 222.613281 C 425.132812 223.246094 425.292969 223.886719 425.425781 224.539062 C 425.554688 225.191406 425.652344 225.84375 425.714844 226.503906 C 425.78125 227.164062 425.8125 227.828125 425.8125 228.488281 Z M 425.8125 228.488281 " fill-opacity="1" fill-rule="nonzero"/><path fill="#2280c3" d="M 335.976562 304.515625 C 335.976562 305.179688 335.945312 305.839844 335.878906 306.5 C 335.816406 307.160156 335.71875 307.816406 335.589844 308.464844 C 335.460938 309.117188 335.300781 309.757812 335.105469 310.394531 C 334.914062 311.027344 334.691406 311.652344 334.4375 312.265625 C 334.183594 312.878906 333.898438 313.476562 333.585938 314.0625 C 333.273438 314.648438 332.933594 315.214844 332.566406 315.765625 C 332.195312 316.316406 331.800781 316.851562 331.382812 317.363281 C 330.960938 317.875 330.515625 318.367188 330.046875 318.835938 C 329.578125 319.304688 329.085938 319.75 328.574219 320.167969 C 328.0625 320.589844 327.53125 320.984375 326.976562 321.351562 C 326.425781 321.722656 325.859375 322.0625 325.273438 322.375 C 324.6875 322.6875 324.089844 322.972656 323.476562 323.226562 C 322.863281 323.476562 322.238281 323.703125 321.605469 323.894531 C 320.96875 324.085938 320.328125 324.246094 319.675781 324.378906 C 319.027344 324.507812 318.371094 324.605469 317.710938 324.667969 C 317.050781 324.734375 316.390625 324.765625 315.726562 324.765625 C 315.0625 324.765625 314.402344 324.734375 313.742188 324.667969 C 313.082031 324.605469 312.425781 324.507812 311.777344 324.378906 C 311.125 324.246094 310.484375 324.085938 309.847656 323.894531 C 309.214844 323.703125 308.589844 323.476562 307.976562 323.226562 C 307.363281 322.972656 306.765625 322.6875 306.179688 322.375 C 305.59375 322.0625 305.027344 321.722656 304.476562 321.351562 C 303.925781 320.984375 303.390625 320.589844 302.878906 320.167969 C 302.367188 319.75 301.875 319.304688 301.40625 318.835938 C 300.9375 318.367188 300.492188 317.875 300.070312 317.363281 C 299.652344 316.851562 299.257812 316.316406 298.886719 315.765625 C 298.519531 315.214844 298.179688 314.648438 297.867188 314.0625 C 297.554688 313.476562 297.269531 312.878906 297.015625 312.265625 C 296.761719 311.652344 296.539062 311.027344 296.347656 310.394531 C 296.15625 309.757812 295.992188 309.117188 295.863281 308.464844 C 295.734375 307.816406 295.636719 307.160156 295.574219 306.5 C 295.507812 305.839844 295.476562 305.179688 295.476562 304.515625 C 295.476562 303.851562 295.507812 303.191406 295.574219 302.53125 C 295.636719 301.871094 295.734375 301.214844 295.863281 300.566406 C 295.992188 299.914062 296.15625 299.273438 296.347656 298.636719 C 296.539062 298.003906 296.761719 297.378906 297.015625 296.765625 C 297.269531 296.152344 297.554688 295.554688 297.867188 294.96875 C 298.179688 294.382812 298.519531 293.816406 298.886719 293.265625 C 299.257812 292.714844 299.652344 292.179688 300.070312 291.667969 C 300.492188 291.15625 300.9375 290.664062 301.40625 290.195312 C 301.875 289.726562 302.367188 289.28125 302.878906 288.863281 C 303.390625 288.441406 303.925781 288.046875 304.476562 287.679688 C 305.027344 287.308594 305.59375 286.96875 306.179688 286.65625 C 306.765625 286.34375 307.363281 286.058594 307.976562 285.804688 C 308.589844 285.550781 309.214844 285.328125 309.847656 285.136719 C 310.484375 284.945312 311.125 284.785156 311.777344 284.652344 C 312.425781 284.523438 313.082031 284.425781 313.742188 284.363281 C 314.402344 284.296875 315.0625 284.265625 315.726562 284.265625 C 316.390625 284.265625 317.050781 284.296875 317.710938 284.363281 C 318.371094 284.425781 319.027344 284.523438 319.675781 284.652344 C 320.328125 284.785156 320.972656 284.945312 321.605469 285.136719 C 322.238281 285.328125 322.863281 285.550781 323.476562 285.804688 C 324.089844 286.058594 324.6875 286.34375 325.273438 286.65625 C 325.859375 286.96875 326.425781 287.308594 326.976562 287.679688 C 327.53125 288.046875 328.0625 288.441406 328.574219 288.863281 C 329.085938 289.28125 329.578125 289.726562 330.046875 290.195312 C 330.515625 290.664062 330.960938 291.15625 331.382812 291.667969 C 331.800781 292.179688 332.195312 292.714844 332.566406 293.265625 C 332.933594 293.816406 333.273438 294.382812 333.585938 294.96875 C 333.898438 295.554688 334.183594 296.152344 334.4375 296.765625 C 334.691406 297.378906 334.914062 298.003906 335.105469 298.636719 C 335.296875 299.273438 335.460938 299.914062 335.589844 300.566406 C 335.71875 301.214844 335.816406 301.871094 335.878906 302.53125 C 335.945312 303.191406 335.976562 303.851562 335.976562 304.515625 Z M 335.976562 304.515625 " fill-opacity="1" fill-rule="nonzero"/><path fill="#2280c3" d="M 335.25 360.277344 C 335.25 360.941406 335.21875 361.601562 335.152344 362.261719 C 335.085938 362.921875 334.992188 363.578125 334.859375 364.226562 C 334.730469 364.878906 334.570312 365.519531 334.378906 366.15625 C 334.1875 366.789062 333.960938 367.414062 333.707031 368.027344 C 333.453125 368.640625 333.171875 369.238281 332.859375 369.824219 C 332.546875 370.410156 332.207031 370.976562 331.835938 371.527344 C 331.46875 372.078125 331.074219 372.613281 330.652344 373.125 C 330.234375 373.636719 329.789062 374.128906 329.320312 374.597656 C 328.851562 375.066406 328.359375 375.511719 327.847656 375.929688 C 327.332031 376.351562 326.800781 376.746094 326.25 377.113281 C 325.699219 377.484375 325.128906 377.824219 324.546875 378.136719 C 323.960938 378.449219 323.363281 378.734375 322.75 378.988281 C 322.136719 379.242188 321.511719 379.464844 320.878906 379.65625 C 320.242188 379.847656 319.601562 380.007812 318.949219 380.140625 C 318.300781 380.269531 317.644531 380.367188 316.984375 380.429688 C 316.324219 380.496094 315.660156 380.527344 315 380.527344 C 314.335938 380.527344 313.671875 380.496094 313.015625 380.429688 C 312.355469 380.367188 311.699219 380.269531 311.046875 380.140625 C 310.398438 380.007812 309.753906 379.847656 309.121094 379.65625 C 308.484375 379.464844 307.863281 379.242188 307.25 378.988281 C 306.636719 378.734375 306.035156 378.449219 305.453125 378.136719 C 304.867188 377.824219 304.300781 377.484375 303.746094 377.113281 C 303.195312 376.746094 302.664062 376.351562 302.152344 375.929688 C 301.636719 375.511719 301.148438 375.066406 300.679688 374.597656 C 300.210938 374.128906 299.765625 373.636719 299.34375 373.125 C 298.921875 372.613281 298.527344 372.078125 298.160156 371.527344 C 297.792969 370.976562 297.449219 370.410156 297.136719 369.824219 C 296.824219 369.238281 296.542969 368.640625 296.289062 368.027344 C 296.035156 367.414062 295.8125 366.789062 295.617188 366.15625 C 295.425781 365.519531 295.265625 364.878906 295.136719 364.226562 C 295.007812 363.578125 294.910156 362.921875 294.84375 362.261719 C 294.78125 361.601562 294.746094 360.941406 294.746094 360.277344 C 294.746094 359.613281 294.78125 358.953125 294.84375 358.292969 C 294.910156 357.632812 295.007812 356.976562 295.136719 356.328125 C 295.265625 355.675781 295.425781 355.035156 295.617188 354.398438 C 295.8125 353.765625 296.035156 353.140625 296.289062 352.527344 C 296.542969 351.914062 296.824219 351.316406 297.136719 350.730469 C 297.449219 350.148438 297.792969 349.578125 298.160156 349.027344 C 298.527344 348.476562 298.921875 347.941406 299.34375 347.429688 C 299.765625 346.917969 300.210938 346.425781 300.679688 345.957031 C 301.148438 345.488281 301.636719 345.042969 302.152344 344.625 C 302.664062 344.203125 303.195312 343.808594 303.746094 343.441406 C 304.300781 343.070312 304.867188 342.730469 305.453125 342.417969 C 306.035156 342.105469 306.636719 341.820312 307.25 341.566406 C 307.863281 341.316406 308.484375 341.089844 309.121094 340.898438 C 309.753906 340.707031 310.398438 340.546875 311.046875 340.414062 C 311.699219 340.285156 312.355469 340.1875 313.015625 340.125 C 313.671875 340.058594 314.335938 340.027344 315 340.027344 C 315.660156 340.027344 316.324219 340.058594 316.984375 340.125 C 317.644531 340.1875 318.300781 340.285156 318.949219 340.414062 C 319.601562 340.546875 320.242188 340.707031 320.878906 340.898438 C 321.511719 341.089844 322.136719 341.316406 322.75 341.566406 C 323.363281 341.820312 323.960938 342.105469 324.546875 342.417969 C 325.128906 342.730469 325.699219 343.070312 326.25 343.441406 C 326.800781 343.808594 327.332031 344.203125 327.847656 344.625 C 328.359375 345.042969 328.851562 345.488281 329.320312 345.957031 C 329.789062 346.425781 330.234375 346.917969 330.652344 347.429688 C 331.074219 347.941406 331.46875 348.476562 331.835938 349.027344 C 332.207031 349.578125 332.546875 350.148438 332.859375 350.730469 C 333.171875 351.316406 333.453125 351.914062 333.707031 352.527344 C 333.960938 353.140625 334.1875 353.765625 334.378906 354.398438 C 334.570312 355.035156 334.730469 355.675781 334.859375 356.328125 C 334.992188 356.976562 335.085938 357.632812 335.152344 358.292969 C 335.21875 358.953125 335.25 359.613281 335.25 360.277344 Z M 335.25 360.277344 " fill-opacity="1" fill-rule="nonzero"/><path fill="#2280c3" d="M 425.246094 341.773438 C 425.246094 342.4375 425.210938 343.097656 425.148438 343.757812 C 425.082031 344.417969 424.984375 345.074219 424.855469 345.726562 C 424.726562 346.375 424.566406 347.019531 424.371094 347.652344 C 424.179688 348.289062 423.957031 348.910156 423.703125 349.523438 C 423.449219 350.136719 423.164062 350.734375 422.851562 351.320312 C 422.539062 351.90625 422.199219 352.472656 421.832031 353.023438 C 421.460938 353.574219 421.066406 354.109375 420.648438 354.621094 C 420.226562 355.132812 419.78125 355.625 419.3125 356.09375 C 418.84375 356.5625 418.351562 357.007812 417.839844 357.429688 C 417.328125 357.847656 416.796875 358.242188 416.242188 358.613281 C 415.691406 358.980469 415.125 359.320312 414.539062 359.632812 C 413.953125 359.945312 413.355469 360.230469 412.742188 360.484375 C 412.128906 360.738281 411.507812 360.960938 410.871094 361.152344 C 410.238281 361.34375 409.59375 361.507812 408.945312 361.636719 C 408.292969 361.765625 407.636719 361.863281 406.976562 361.925781 C 406.316406 361.992188 405.65625 362.023438 404.992188 362.023438 C 404.328125 362.023438 403.667969 361.992188 403.007812 361.925781 C 402.347656 361.863281 401.691406 361.765625 401.042969 361.636719 C 400.390625 361.507812 399.75 361.34375 399.113281 361.152344 C 398.480469 360.960938 397.855469 360.738281 397.242188 360.484375 C 396.628906 360.230469 396.03125 359.945312 395.445312 359.632812 C 394.859375 359.320312 394.292969 358.980469 393.742188 358.613281 C 393.191406 358.242188 392.65625 357.847656 392.144531 357.429688 C 391.632812 357.007812 391.140625 356.5625 390.671875 356.09375 C 390.203125 355.625 389.757812 355.132812 389.339844 354.621094 C 388.917969 354.109375 388.523438 353.574219 388.152344 353.023438 C 387.785156 352.472656 387.445312 351.90625 387.132812 351.320312 C 386.820312 350.734375 386.535156 350.136719 386.28125 349.523438 C 386.027344 348.910156 385.804688 348.289062 385.613281 347.652344 C 385.421875 347.019531 385.257812 346.375 385.128906 345.726562 C 385 345.074219 384.902344 344.417969 384.839844 343.757812 C 384.773438 343.097656 384.742188 342.4375 384.742188 341.773438 C 384.742188 341.109375 384.773438 340.449219 384.839844 339.789062 C 384.902344 339.128906 385 338.472656 385.128906 337.824219 C 385.257812 337.171875 385.421875 336.53125 385.613281 335.894531 C 385.804688 335.261719 386.027344 334.636719 386.28125 334.023438 C 386.535156 333.410156 386.820312 332.8125 387.132812 332.226562 C 387.445312 331.644531 387.785156 331.074219 388.152344 330.523438 C 388.523438 329.972656 388.917969 329.441406 389.339844 328.925781 C 389.757812 328.414062 390.203125 327.921875 390.671875 327.453125 C 391.140625 326.984375 391.632812 326.539062 392.144531 326.121094 C 392.65625 325.699219 393.191406 325.304688 393.742188 324.9375 C 394.292969 324.566406 394.859375 324.226562 395.445312 323.914062 C 396.03125 323.601562 396.628906 323.320312 397.242188 323.066406 C 397.855469 322.8125 398.480469 322.589844 399.113281 322.394531 C 399.75 322.203125 400.390625 322.042969 401.042969 321.914062 C 401.691406 321.78125 402.347656 321.6875 403.007812 321.621094 C 403.667969 321.554688 404.328125 321.523438 404.992188 321.523438 C 405.65625 321.523438 406.316406 321.554688 406.976562 321.621094 C 407.636719 321.6875 408.292969 321.78125 408.945312 321.914062 C 409.59375 322.042969 410.238281 322.203125 410.871094 322.394531 C 411.507812 322.589844 412.128906 322.8125 412.742188 323.066406 C 413.355469 323.320312 413.953125 323.601562 414.539062 323.914062 C 415.125 324.226562 415.691406 324.566406 416.242188 324.9375 C 416.796875 325.304688 417.328125 325.699219 417.839844 326.121094 C 418.351562 326.539062 418.84375 326.984375 419.3125 327.453125 C 419.78125 327.921875 420.226562 328.414062 420.648438 328.925781 C 421.066406 329.441406 421.460938 329.972656 421.832031 330.523438 C 422.199219 331.074219 422.539062 331.644531 422.851562 332.226562 C 423.164062 332.8125 423.449219 333.410156 423.703125 334.023438 C 423.957031 334.636719 424.179688 335.261719 424.371094 335.894531 C 424.566406 336.53125 424.726562 337.171875 424.855469 337.824219 C 424.984375 338.472656 425.082031 339.128906 425.148438 339.789062 C 425.210938 340.449219 425.246094 341.109375 425.246094 341.773438 Z M 425.246094 341.773438 " fill-opacity="1" fill-rule="nonzero"/><path fill="#2280c3" d="M 560.214844 370.933594 C 560.214844 371.59375 560.183594 372.257812 560.117188 372.917969 C 560.054688 373.578125 559.957031 374.230469 559.828125 374.882812 C 559.695312 375.535156 559.535156 376.175781 559.34375 376.8125 C 559.152344 377.445312 558.925781 378.070312 558.671875 378.683594 C 558.421875 379.292969 558.136719 379.894531 557.824219 380.476562 C 557.511719 381.0625 557.171875 381.632812 556.800781 382.183594 C 556.433594 382.734375 556.039062 383.265625 555.617188 383.777344 C 555.199219 384.292969 554.753906 384.78125 554.285156 385.25 C 553.816406 385.71875 553.324219 386.164062 552.8125 386.585938 C 552.296875 387.007812 551.765625 387.402344 551.214844 387.769531 C 550.664062 388.136719 550.09375 388.480469 549.511719 388.792969 C 548.925781 389.105469 548.328125 389.386719 547.714844 389.640625 C 547.101562 389.894531 546.476562 390.117188 545.84375 390.3125 C 545.207031 390.503906 544.566406 390.664062 543.914062 390.792969 C 543.265625 390.921875 542.609375 391.019531 541.949219 391.085938 C 541.289062 391.148438 540.628906 391.183594 539.964844 391.183594 C 539.300781 391.183594 538.640625 391.148438 537.980469 391.085938 C 537.320312 391.019531 536.664062 390.921875 536.011719 390.792969 C 535.363281 390.664062 534.71875 390.503906 534.085938 390.3125 C 533.449219 390.117188 532.828125 389.894531 532.214844 389.640625 C 531.601562 389.386719 531.003906 389.105469 530.417969 388.792969 C 529.832031 388.480469 529.265625 388.136719 528.710938 387.769531 C 528.160156 387.402344 527.628906 387.007812 527.117188 386.585938 C 526.605469 386.164062 526.113281 385.71875 525.644531 385.25 C 525.175781 384.78125 524.730469 384.292969 524.308594 383.777344 C 523.886719 383.265625 523.492188 382.734375 523.125 382.183594 C 522.757812 381.632812 522.417969 381.0625 522.105469 380.476562 C 521.789062 379.894531 521.507812 379.292969 521.253906 378.683594 C 521 378.070312 520.777344 377.445312 520.585938 376.8125 C 520.390625 376.175781 520.230469 375.535156 520.101562 374.882812 C 519.972656 374.230469 519.875 373.578125 519.808594 372.917969 C 519.746094 372.257812 519.710938 371.59375 519.710938 370.933594 C 519.710938 370.269531 519.746094 369.605469 519.808594 368.949219 C 519.875 368.289062 519.972656 367.632812 520.101562 366.980469 C 520.230469 366.332031 520.390625 365.6875 520.585938 365.054688 C 520.777344 364.417969 521 363.796875 521.253906 363.183594 C 521.507812 362.570312 521.789062 361.972656 522.105469 361.386719 C 522.417969 360.800781 522.757812 360.234375 523.125 359.679688 C 523.492188 359.128906 523.886719 358.597656 524.308594 358.085938 C 524.730469 357.574219 525.175781 357.082031 525.644531 356.613281 C 526.113281 356.144531 526.601562 355.699219 527.117188 355.277344 C 527.628906 354.859375 528.160156 354.464844 528.710938 354.09375 C 529.265625 353.726562 529.832031 353.386719 530.417969 353.074219 C 531.003906 352.761719 531.601562 352.476562 532.214844 352.222656 C 532.828125 351.96875 533.449219 351.746094 534.085938 351.554688 C 534.71875 351.359375 535.363281 351.199219 536.011719 351.070312 C 536.664062 350.941406 537.320312 350.84375 537.980469 350.777344 C 538.640625 350.714844 539.300781 350.679688 539.964844 350.679688 C 540.628906 350.679688 541.289062 350.714844 541.949219 350.777344 C 542.609375 350.84375 543.265625 350.941406 543.914062 351.070312 C 544.566406 351.199219 545.207031 351.359375 545.84375 351.554688 C 546.476562 351.746094 547.101562 351.96875 547.714844 352.222656 C 548.328125 352.476562 548.925781 352.761719 549.511719 353.074219 C 550.09375 353.386719 550.664062 353.726562 551.214844 354.09375 C 551.765625 354.464844 552.296875 354.859375 552.8125 355.277344 C 553.324219 355.699219 553.816406 356.144531 554.285156 356.613281 C 554.753906 357.082031 555.199219 357.574219 555.617188 358.085938 C 556.039062 358.597656 556.433594 359.128906 556.800781 359.679688 C 557.171875 360.234375 557.511719 360.800781 557.824219 361.386719 C 558.136719 361.972656 558.421875 362.570312 558.671875 363.183594 C 558.925781 363.796875 559.152344 364.417969 559.34375 365.054688 C 559.535156 365.6875 559.695312 366.332031 559.828125 366.980469 C 559.957031 367.632812 560.054688 368.289062 560.117188 368.949219 C 560.183594 369.605469 560.214844 370.269531 560.214844 370.933594 Z M 560.214844 370.933594 " fill-opacity="1" fill-rule="nonzero"/><path fill="#2280c3" d="M 494.125 422.167969 C 494.125 422.832031 494.09375 423.492188 494.027344 424.152344 C 493.964844 424.8125 493.867188 425.46875 493.738281 426.117188 C 493.609375 426.769531 493.445312 427.410156 493.253906 428.046875 C 493.0625 428.679688 492.839844 429.304688 492.585938 429.917969 C 492.332031 430.53125 492.046875 431.128906 491.734375 431.714844 C 491.421875 432.296875 491.082031 432.867188 490.714844 433.417969 C 490.34375 433.96875 489.949219 434.5 489.53125 435.015625 C 489.109375 435.527344 488.664062 436.019531 488.195312 436.488281 C 487.726562 436.957031 487.234375 437.402344 486.722656 437.820312 C 486.210938 438.242188 485.675781 438.636719 485.125 439.003906 C 484.574219 439.375 484.007812 439.714844 483.421875 440.027344 C 482.835938 440.339844 482.238281 440.621094 481.625 440.875 C 481.011719 441.128906 480.386719 441.355469 479.753906 441.546875 C 479.117188 441.738281 478.476562 441.898438 477.824219 442.027344 C 477.175781 442.160156 476.519531 442.253906 475.859375 442.320312 C 475.199219 442.386719 474.539062 442.417969 473.875 442.417969 C 473.210938 442.417969 472.550781 442.386719 471.890625 442.320312 C 471.230469 442.253906 470.574219 442.160156 469.921875 442.027344 C 469.273438 441.898438 468.628906 441.738281 467.996094 441.546875 C 467.359375 441.355469 466.738281 441.128906 466.125 440.875 C 465.511719 440.621094 464.914062 440.339844 464.328125 440.027344 C 463.742188 439.714844 463.175781 439.375 462.625 439.003906 C 462.070312 438.636719 461.539062 438.242188 461.027344 437.820312 C 460.515625 437.402344 460.023438 436.957031 459.554688 436.488281 C 459.085938 436.019531 458.640625 435.527344 458.21875 435.015625 C 457.800781 434.5 457.40625 433.96875 457.035156 433.417969 C 456.667969 432.867188 456.328125 432.296875 456.015625 431.714844 C 455.703125 431.128906 455.417969 430.53125 455.164062 429.917969 C 454.910156 429.304688 454.6875 428.679688 454.496094 428.046875 C 454.300781 427.410156 454.140625 426.769531 454.011719 426.117188 C 453.882812 425.46875 453.785156 424.8125 453.71875 424.152344 C 453.65625 423.492188 453.621094 422.832031 453.625 422.167969 C 453.621094 421.503906 453.65625 420.84375 453.71875 420.183594 C 453.785156 419.523438 453.882812 418.867188 454.011719 418.21875 C 454.140625 417.566406 454.300781 416.921875 454.496094 416.289062 C 454.6875 415.65625 454.910156 415.03125 455.164062 414.417969 C 455.417969 413.804688 455.703125 413.207031 456.015625 412.621094 C 456.328125 412.035156 456.667969 411.46875 457.035156 410.917969 C 457.40625 410.367188 457.800781 409.832031 458.21875 409.320312 C 458.640625 408.808594 459.085938 408.316406 459.554688 407.847656 C 460.023438 407.378906 460.515625 406.933594 461.027344 406.511719 C 461.539062 406.09375 462.070312 405.699219 462.625 405.328125 C 463.175781 404.960938 463.742188 404.621094 464.328125 404.308594 C 464.914062 403.996094 465.511719 403.710938 466.125 403.457031 C 466.738281 403.203125 467.359375 402.980469 467.996094 402.789062 C 468.628906 402.597656 469.273438 402.433594 469.921875 402.304688 C 470.574219 402.175781 471.230469 402.078125 471.890625 402.015625 C 472.550781 401.949219 473.210938 401.917969 473.875 401.917969 C 474.539062 401.917969 475.199219 401.949219 475.859375 402.015625 C 476.519531 402.078125 477.175781 402.175781 477.824219 402.304688 C 478.476562 402.433594 479.117188 402.597656 479.753906 402.789062 C 480.386719 402.980469 481.011719 403.203125 481.625 403.457031 C 482.238281 403.710938 482.835938 403.996094 483.421875 404.308594 C 484.007812 404.621094 484.574219 404.960938 485.125 405.328125 C 485.675781 405.699219 486.210938 406.09375 486.722656 406.511719 C 487.234375 406.933594 487.726562 407.378906 488.195312 407.847656 C 488.664062 408.316406 489.109375 408.808594 489.53125 409.320312 C 489.949219 409.832031 490.34375 410.367188 490.714844 410.917969 C 491.082031 411.46875 491.421875 412.035156 491.734375 412.621094 C 492.046875 413.207031 492.332031 413.804688 492.585938 414.417969 C 492.839844 415.03125 493.0625 415.65625 493.253906 416.289062 C 493.445312 416.921875 493.609375 417.566406 493.738281 418.21875 C 493.867188 418.867188 493.964844 419.523438 494.027344 420.183594 C 494.09375 420.84375 494.125 421.503906 494.125 422.167969 Z M 494.125 422.167969 " fill-opacity="1" fill-rule="nonzero"/><path fill="#2280c3" d="M 551.332031 466.320312 C 551.332031 466.984375 551.300781 467.648438 551.234375 468.304688 C 551.171875 468.964844 551.074219 469.621094 550.945312 470.273438 C 550.816406 470.921875 550.652344 471.566406 550.460938 472.199219 C 550.269531 472.835938 550.046875 473.457031 549.792969 474.070312 C 549.539062 474.683594 549.253906 475.28125 548.941406 475.867188 C 548.628906 476.453125 548.289062 477.019531 547.921875 477.574219 C 547.550781 478.125 547.15625 478.65625 546.738281 479.167969 C 546.316406 479.679688 545.871094 480.171875 545.402344 480.640625 C 544.933594 481.109375 544.441406 481.554688 543.929688 481.976562 C 543.417969 482.394531 542.886719 482.789062 542.332031 483.160156 C 541.78125 483.527344 541.214844 483.867188 540.628906 484.179688 C 540.042969 484.492188 539.445312 484.777344 538.832031 485.03125 C 538.21875 485.285156 537.59375 485.507812 536.960938 485.699219 C 536.324219 485.894531 535.683594 486.054688 535.03125 486.183594 C 534.382812 486.3125 533.726562 486.410156 533.066406 486.476562 C 532.40625 486.539062 531.746094 486.574219 531.082031 486.574219 C 530.417969 486.574219 529.757812 486.539062 529.097656 486.476562 C 528.4375 486.410156 527.78125 486.3125 527.132812 486.183594 C 526.480469 486.054688 525.839844 485.894531 525.203125 485.699219 C 524.570312 485.507812 523.945312 485.285156 523.332031 485.03125 C 522.71875 484.777344 522.121094 484.492188 521.535156 484.179688 C 520.949219 483.867188 520.382812 483.527344 519.832031 483.160156 C 519.28125 482.792969 518.746094 482.394531 518.234375 481.976562 C 517.722656 481.554688 517.230469 481.109375 516.761719 480.640625 C 516.292969 480.171875 515.847656 479.679688 515.425781 479.167969 C 515.007812 478.65625 514.613281 478.125 514.242188 477.574219 C 513.875 477.019531 513.535156 476.453125 513.222656 475.867188 C 512.910156 475.28125 512.625 474.683594 512.371094 474.070312 C 512.117188 473.457031 511.894531 472.835938 511.703125 472.199219 C 511.511719 471.566406 511.347656 470.921875 511.21875 470.273438 C 511.089844 469.621094 510.992188 468.964844 510.929688 468.304688 C 510.863281 467.648438 510.832031 466.984375 510.832031 466.320312 C 510.832031 465.660156 510.863281 464.996094 510.929688 464.335938 C 510.992188 463.675781 511.089844 463.019531 511.21875 462.371094 C 511.347656 461.71875 511.511719 461.078125 511.703125 460.441406 C 511.894531 459.808594 512.117188 459.183594 512.371094 458.570312 C 512.625 457.960938 512.910156 457.359375 513.222656 456.777344 C 513.535156 456.191406 513.875 455.621094 514.242188 455.070312 C 514.613281 454.519531 515.007812 453.988281 515.425781 453.476562 C 515.847656 452.960938 516.292969 452.472656 516.761719 452.003906 C 517.230469 451.535156 517.722656 451.089844 518.234375 450.667969 C 518.746094 450.246094 519.28125 449.851562 519.832031 449.484375 C 520.382812 449.117188 520.949219 448.773438 521.535156 448.460938 C 522.121094 448.148438 522.71875 447.867188 523.332031 447.613281 C 523.945312 447.359375 524.570312 447.136719 525.203125 446.941406 C 525.839844 446.75 526.480469 446.589844 527.132812 446.460938 C 527.78125 446.332031 528.4375 446.234375 529.097656 446.167969 C 529.757812 446.105469 530.417969 446.070312 531.082031 446.070312 C 531.746094 446.070312 532.40625 446.105469 533.066406 446.167969 C 533.726562 446.234375 534.382812 446.332031 535.03125 446.460938 C 535.683594 446.589844 536.324219 446.75 536.960938 446.941406 C 537.59375 447.136719 538.21875 447.359375 538.832031 447.613281 C 539.445312 447.867188 540.042969 448.148438 540.628906 448.460938 C 541.214844 448.773438 541.78125 449.117188 542.332031 449.484375 C 542.886719 449.851562 543.417969 450.246094 543.929688 450.667969 C 544.441406 451.089844 544.933594 451.535156 545.402344 452.003906 C 545.871094 452.472656 546.316406 452.960938 546.738281 453.476562 C 547.15625 453.988281 547.550781 454.519531 547.921875 455.070312 C 548.289062 455.621094 548.628906 456.191406 548.941406 456.777344 C 549.253906 457.359375 549.539062 457.960938 549.792969 458.570312 C 550.046875 459.183594 550.269531 459.808594 550.460938 460.441406 C 550.652344 461.078125 550.816406 461.71875 550.945312 462.371094 C 551.074219 463.019531 551.171875 463.675781 551.234375 464.335938 C 551.300781 464.996094 551.332031 465.660156 551.332031 466.320312 Z M 551.332031 466.320312 " fill-opacity="1" fill-rule="nonzero"/><path fill="#2280c3" d="M 207.929688 466.320312 C 207.929688 466.984375 207.898438 467.648438 207.832031 468.304688 C 207.765625 468.964844 207.671875 469.621094 207.539062 470.273438 C 207.410156 470.921875 207.25 471.566406 207.058594 472.199219 C 206.863281 472.835938 206.640625 473.457031 206.386719 474.070312 C 206.132812 474.683594 205.851562 475.28125 205.539062 475.867188 C 205.226562 476.453125 204.886719 477.019531 204.515625 477.574219 C 204.148438 478.125 203.753906 478.65625 203.332031 479.167969 C 202.914062 479.679688 202.46875 480.171875 202 480.640625 C 201.527344 481.109375 201.039062 481.554688 200.527344 481.976562 C 200.011719 482.394531 199.480469 482.789062 198.929688 483.160156 C 198.378906 483.527344 197.808594 483.867188 197.226562 484.179688 C 196.640625 484.492188 196.039062 484.777344 195.429688 485.03125 C 194.816406 485.285156 194.191406 485.507812 193.558594 485.699219 C 192.921875 485.894531 192.28125 486.054688 191.628906 486.183594 C 190.980469 486.3125 190.324219 486.410156 189.664062 486.476562 C 189.003906 486.539062 188.339844 486.574219 187.679688 486.574219 C 187.015625 486.574219 186.351562 486.539062 185.691406 486.476562 C 185.03125 486.410156 184.378906 486.3125 183.726562 486.183594 C 183.078125 486.054688 182.433594 485.894531 181.800781 485.699219 C 181.164062 485.507812 180.542969 485.285156 179.929688 485.03125 C 179.316406 484.777344 178.714844 484.492188 178.132812 484.179688 C 177.546875 483.867188 176.976562 483.527344 176.425781 483.160156 C 175.875 482.792969 175.34375 482.394531 174.832031 481.976562 C 174.316406 481.554688 173.828125 481.109375 173.359375 480.640625 C 172.890625 480.171875 172.445312 479.679688 172.023438 479.167969 C 171.601562 478.65625 171.207031 478.125 170.839844 477.574219 C 170.472656 477.019531 170.128906 476.453125 169.816406 475.867188 C 169.503906 475.28125 169.222656 474.683594 168.96875 474.070312 C 168.714844 473.457031 168.492188 472.835938 168.296875 472.199219 C 168.105469 471.566406 167.945312 470.921875 167.816406 470.273438 C 167.6875 469.621094 167.589844 468.964844 167.523438 468.304688 C 167.460938 467.648438 167.425781 466.984375 167.425781 466.320312 C 167.425781 465.660156 167.460938 464.996094 167.523438 464.335938 C 167.589844 463.675781 167.6875 463.019531 167.816406 462.371094 C 167.945312 461.71875 168.105469 461.078125 168.296875 460.441406 C 168.492188 459.808594 168.714844 459.183594 168.96875 458.570312 C 169.222656 457.960938 169.503906 457.359375 169.816406 456.777344 C 170.128906 456.191406 170.472656 455.621094 170.839844 455.070312 C 171.207031 454.519531 171.601562 453.988281 172.023438 453.476562 C 172.445312 452.960938 172.890625 452.472656 173.359375 452.003906 C 173.828125 451.535156 174.316406 451.089844 174.832031 450.667969 C 175.34375 450.246094 175.875 449.851562 176.425781 449.484375 C 176.976562 449.117188 177.546875 448.773438 178.132812 448.460938 C 178.714844 448.148438 179.316406 447.867188 179.929688 447.613281 C 180.539062 447.359375 181.164062 447.136719 181.800781 446.941406 C 182.433594 446.75 183.078125 446.589844 183.726562 446.460938 C 184.378906 446.332031 185.03125 446.234375 185.691406 446.167969 C 186.351562 446.105469 187.015625 446.070312 187.679688 446.070312 C 188.339844 446.070312 189.003906 446.105469 189.664062 446.167969 C 190.324219 446.234375 190.980469 446.332031 191.628906 446.460938 C 192.28125 446.589844 192.921875 446.75 193.558594 446.941406 C 194.191406 447.136719 194.816406 447.359375 195.429688 447.613281 C 196.039062 447.867188 196.640625 448.148438 197.226562 448.460938 C 197.808594 448.773438 198.378906 449.117188 198.929688 449.484375 C 199.480469 449.851562 200.011719 450.246094 200.527344 450.667969 C 201.039062 451.089844 201.527344 451.535156 202 452.003906 C 202.46875 452.472656 202.914062 452.960938 203.332031 453.476562 C 203.753906 453.988281 204.148438 454.519531 204.515625 455.070312 C 204.886719 455.621094 205.226562 456.191406 205.539062 456.777344 C 205.851562 457.359375 206.132812 457.960938 206.386719 458.570312 C 206.640625 459.183594 206.867188 459.808594 207.058594 460.441406 C 207.25 461.078125 207.410156 461.71875 207.539062 462.371094 C 207.671875 463.019531 207.765625 463.675781 207.832031 464.335938 C 207.898438 464.996094 207.929688 465.660156 207.929688 466.320312 Z M 207.929688 466.320312 " fill-opacity="1" fill-rule="nonzero"/><path fill="#2280c3" d="M 194.191406 373.59375 C 194.191406 374.253906 194.15625 374.917969 194.09375 375.578125 C 194.027344 376.238281 193.929688 376.894531 193.800781 377.542969 C 193.671875 378.195312 193.511719 378.835938 193.320312 379.472656 C 193.125 380.105469 192.902344 380.730469 192.648438 381.34375 C 192.394531 381.953125 192.113281 382.554688 191.800781 383.136719 C 191.488281 383.722656 191.144531 384.292969 190.777344 384.84375 C 190.410156 385.394531 190.015625 385.925781 189.59375 386.4375 C 189.171875 386.953125 188.726562 387.441406 188.257812 387.910156 C 187.789062 388.382812 187.300781 388.824219 186.785156 389.246094 C 186.273438 389.667969 185.742188 390.0625 185.191406 390.429688 C 184.636719 390.796875 184.070312 391.140625 183.484375 391.453125 C 182.902344 391.765625 182.300781 392.046875 181.6875 392.300781 C 181.074219 392.554688 180.453125 392.777344 179.816406 392.972656 C 179.183594 393.164062 178.539062 393.324219 177.890625 393.453125 C 177.238281 393.582031 176.582031 393.679688 175.925781 393.746094 C 175.265625 393.8125 174.601562 393.84375 173.9375 393.84375 C 173.277344 393.84375 172.613281 393.8125 171.953125 393.746094 C 171.292969 393.679688 170.636719 393.582031 169.988281 393.453125 C 169.335938 393.324219 168.695312 393.164062 168.058594 392.972656 C 167.425781 392.777344 166.800781 392.554688 166.1875 392.300781 C 165.574219 392.046875 164.976562 391.765625 164.390625 391.453125 C 163.808594 391.140625 163.238281 390.796875 162.6875 390.429688 C 162.136719 390.0625 161.605469 389.667969 161.089844 389.246094 C 160.578125 388.824219 160.085938 388.382812 159.617188 387.910156 C 159.148438 387.441406 158.703125 386.953125 158.285156 386.4375 C 157.863281 385.925781 157.46875 385.394531 157.101562 384.84375 C 156.730469 384.292969 156.390625 383.722656 156.078125 383.136719 C 155.765625 382.554688 155.484375 381.953125 155.230469 381.34375 C 154.976562 380.730469 154.75 380.105469 154.558594 379.472656 C 154.367188 378.835938 154.207031 378.195312 154.078125 377.542969 C 153.945312 376.894531 153.851562 376.238281 153.785156 375.578125 C 153.71875 374.917969 153.6875 374.253906 153.6875 373.59375 C 153.6875 372.929688 153.71875 372.269531 153.785156 371.609375 C 153.851562 370.949219 153.945312 370.292969 154.078125 369.640625 C 154.207031 368.992188 154.367188 368.347656 154.558594 367.714844 C 154.75 367.078125 154.976562 366.457031 155.230469 365.84375 C 155.484375 365.230469 155.765625 364.632812 156.078125 364.046875 C 156.390625 363.460938 156.730469 362.894531 157.101562 362.34375 C 157.46875 361.789062 157.863281 361.257812 158.285156 360.746094 C 158.703125 360.234375 159.148438 359.742188 159.617188 359.273438 C 160.085938 358.804688 160.578125 358.359375 161.089844 357.9375 C 161.605469 357.519531 162.136719 357.125 162.6875 356.753906 C 163.238281 356.386719 163.808594 356.046875 164.390625 355.734375 C 164.976562 355.421875 165.574219 355.136719 166.1875 354.882812 C 166.800781 354.628906 167.425781 354.40625 168.058594 354.214844 C 168.695312 354.019531 169.335938 353.859375 169.988281 353.730469 C 170.636719 353.601562 171.292969 353.503906 171.953125 353.441406 C 172.613281 353.375 173.277344 353.34375 173.9375 353.34375 C 174.601562 353.34375 175.265625 353.375 175.925781 353.441406 C 176.582031 353.503906 177.238281 353.601562 177.890625 353.730469 C 178.539062 353.859375 179.183594 354.019531 179.816406 354.214844 C 180.453125 354.40625 181.074219 354.628906 181.6875 354.882812 C 182.300781 355.136719 182.902344 355.421875 183.484375 355.734375 C 184.070312 356.046875 184.636719 356.386719 185.191406 356.753906 C 185.742188 357.125 186.273438 357.519531 186.785156 357.9375 C 187.300781 358.359375 187.789062 358.804688 188.257812 359.273438 C 188.726562 359.742188 189.171875 360.234375 189.59375 360.746094 C 190.015625 361.257812 190.410156 361.789062 190.777344 362.34375 C 191.144531 362.894531 191.488281 363.460938 191.800781 364.046875 C 192.113281 364.632812 192.394531 365.230469 192.648438 365.84375 C 192.902344 366.457031 193.125 367.078125 193.320312 367.714844 C 193.511719 368.347656 193.671875 368.992188 193.800781 369.640625 C 193.929688 370.292969 194.027344 370.949219 194.09375 371.609375 C 194.15625 372.269531 194.191406 372.929688 194.191406 373.59375 Z M 194.191406 373.59375 " fill-opacity="1" fill-rule="nonzero"/><path fill="#2280c3" d="M 264.527344 301.777344 C 264.527344 302.4375 264.496094 303.101562 264.429688 303.761719 C 264.367188 304.421875 264.269531 305.074219 264.140625 305.726562 C 264.011719 306.378906 263.847656 307.019531 263.65625 307.652344 C 263.464844 308.289062 263.242188 308.914062 262.988281 309.523438 C 262.734375 310.136719 262.449219 310.738281 262.136719 311.320312 C 261.824219 311.90625 261.484375 312.476562 261.117188 313.027344 C 260.746094 313.578125 260.351562 314.109375 259.929688 314.621094 C 259.511719 315.136719 259.066406 315.625 258.597656 316.09375 C 258.128906 316.5625 257.636719 317.007812 257.125 317.429688 C 256.613281 317.851562 256.078125 318.246094 255.527344 318.613281 C 254.976562 318.980469 254.410156 319.324219 253.824219 319.636719 C 253.238281 319.949219 252.640625 320.230469 252.027344 320.484375 C 251.414062 320.738281 250.789062 320.960938 250.15625 321.15625 C 249.519531 321.347656 248.878906 321.507812 248.226562 321.636719 C 247.578125 321.765625 246.921875 321.863281 246.261719 321.929688 C 245.601562 321.992188 244.941406 322.027344 244.277344 322.027344 C 243.613281 322.027344 242.953125 321.992188 242.292969 321.929688 C 241.632812 321.863281 240.976562 321.765625 240.324219 321.636719 C 239.675781 321.507812 239.03125 321.347656 238.398438 321.15625 C 237.761719 320.960938 237.140625 320.738281 236.527344 320.484375 C 235.914062 320.230469 235.316406 319.949219 234.730469 319.636719 C 234.144531 319.324219 233.578125 318.980469 233.027344 318.613281 C 232.472656 318.246094 231.941406 317.851562 231.429688 317.429688 C 230.917969 317.007812 230.425781 316.5625 229.957031 316.09375 C 229.488281 315.625 229.042969 315.136719 228.621094 314.621094 C 228.203125 314.109375 227.808594 313.578125 227.4375 313.027344 C 227.070312 312.476562 226.730469 311.90625 226.417969 311.320312 C 226.105469 310.738281 225.820312 310.136719 225.566406 309.523438 C 225.3125 308.914062 225.089844 308.289062 224.898438 307.652344 C 224.703125 307.019531 224.542969 306.378906 224.414062 305.726562 C 224.285156 305.074219 224.1875 304.421875 224.121094 303.761719 C 224.058594 303.101562 224.023438 302.4375 224.023438 301.777344 C 224.023438 301.113281 224.058594 300.449219 224.121094 299.789062 C 224.1875 299.128906 224.285156 298.476562 224.414062 297.824219 C 224.542969 297.175781 224.703125 296.53125 224.898438 295.898438 C 225.089844 295.261719 225.3125 294.640625 225.566406 294.027344 C 225.820312 293.414062 226.105469 292.816406 226.417969 292.230469 C 226.730469 291.644531 227.070312 291.078125 227.4375 290.523438 C 227.808594 289.972656 228.203125 289.441406 228.621094 288.929688 C 229.042969 288.417969 229.488281 287.925781 229.957031 287.457031 C 230.425781 286.988281 230.917969 286.542969 231.429688 286.121094 C 231.941406 285.699219 232.472656 285.304688 233.027344 284.9375 C 233.578125 284.570312 234.144531 284.230469 234.730469 283.917969 C 235.316406 283.605469 235.914062 283.320312 236.527344 283.066406 C 237.140625 282.8125 237.761719 282.589844 238.398438 282.398438 C 239.03125 282.203125 239.675781 282.042969 240.324219 281.914062 C 240.976562 281.785156 241.632812 281.6875 242.292969 281.621094 C 242.953125 281.558594 243.613281 281.523438 244.277344 281.523438 C 244.941406 281.523438 245.601562 281.558594 246.261719 281.621094 C 246.921875 281.6875 247.578125 281.785156 248.226562 281.914062 C 248.878906 282.042969 249.519531 282.203125 250.15625 282.398438 C 250.789062 282.589844 251.414062 282.8125 252.027344 283.066406 C 252.640625 283.320312 253.238281 283.605469 253.824219 283.917969 C 254.410156 284.230469 254.976562 284.570312 255.527344 284.9375 C 256.078125 285.304688 256.613281 285.699219 257.125 286.121094 C 257.636719 286.542969 258.128906 286.988281 258.597656 287.457031 C 259.066406 287.925781 259.511719 288.417969 259.929688 288.929688 C 260.351562 289.441406 260.746094 289.972656 261.117188 290.523438 C 261.484375 291.078125 261.824219 291.644531 262.136719 292.230469 C 262.449219 292.816406 262.734375 293.414062 262.988281 294.027344 C 263.242188 294.640625 263.464844 295.261719 263.65625 295.898438 C 263.847656 296.53125 264.011719 297.175781 264.140625 297.824219 C 264.269531 298.476562 264.367188 299.128906 264.429688 299.789062 C 264.496094 300.449219 264.527344 301.113281 264.527344 301.777344 Z M 264.527344 301.777344 " fill-opacity="1" fill-rule="nonzero"/><path fill="#2280c3" d="M 326.15625 233.984375 C 326.15625 234.644531 326.125 235.308594 326.058594 235.96875 C 325.996094 236.628906 325.898438 237.28125 325.769531 237.933594 C 325.636719 238.582031 325.476562 239.226562 325.285156 239.859375 C 325.09375 240.496094 324.867188 241.121094 324.617188 241.730469 C 324.363281 242.34375 324.078125 242.945312 323.765625 243.527344 C 323.453125 244.113281 323.113281 244.683594 322.742188 245.234375 C 322.375 245.785156 321.980469 246.316406 321.558594 246.828125 C 321.140625 247.34375 320.695312 247.832031 320.226562 248.300781 C 319.757812 248.769531 319.265625 249.214844 318.753906 249.636719 C 318.238281 250.058594 317.707031 250.453125 317.15625 250.820312 C 316.605469 251.1875 316.035156 251.53125 315.453125 251.84375 C 314.867188 252.15625 314.269531 252.4375 313.65625 252.691406 C 313.042969 252.945312 312.417969 253.167969 311.785156 253.359375 C 311.148438 253.554688 310.507812 253.714844 309.855469 253.84375 C 309.207031 253.972656 308.550781 254.070312 307.890625 254.136719 C 307.230469 254.199219 306.570312 254.234375 305.90625 254.234375 C 305.242188 254.234375 304.582031 254.199219 303.921875 254.136719 C 303.261719 254.070312 302.605469 253.972656 301.953125 253.84375 C 301.304688 253.714844 300.660156 253.554688 300.027344 253.359375 C 299.390625 253.167969 298.769531 252.945312 298.15625 252.691406 C 297.542969 252.4375 296.945312 252.15625 296.359375 251.84375 C 295.773438 251.53125 295.207031 251.1875 294.652344 250.820312 C 294.101562 250.453125 293.570312 250.058594 293.058594 249.636719 C 292.546875 249.214844 292.054688 248.769531 291.585938 248.300781 C 291.117188 247.832031 290.671875 247.34375 290.25 246.828125 C 289.828125 246.316406 289.433594 245.785156 289.066406 245.234375 C 288.699219 244.683594 288.359375 244.113281 288.042969 243.527344 C 287.730469 242.945312 287.449219 242.34375 287.195312 241.730469 C 286.941406 241.121094 286.71875 240.496094 286.527344 239.859375 C 286.332031 239.226562 286.171875 238.582031 286.042969 237.933594 C 285.914062 237.28125 285.816406 236.628906 285.75 235.96875 C 285.6875 235.308594 285.652344 234.644531 285.652344 233.984375 C 285.652344 233.320312 285.6875 232.65625 285.75 231.996094 C 285.816406 231.335938 285.914062 230.683594 286.042969 230.03125 C 286.171875 229.382812 286.332031 228.738281 286.527344 228.105469 C 286.71875 227.46875 286.941406 226.847656 287.195312 226.234375 C 287.449219 225.621094 287.730469 225.023438 288.042969 224.4375 C 288.359375 223.851562 288.699219 223.285156 289.066406 222.730469 C 289.433594 222.179688 289.828125 221.648438 290.25 221.136719 C 290.671875 220.625 291.117188 220.132812 291.585938 219.664062 C 292.054688 219.195312 292.546875 218.75 293.058594 218.328125 C 293.570312 217.90625 294.101562 217.511719 294.652344 217.144531 C 295.207031 216.777344 295.773438 216.4375 296.359375 216.125 C 296.945312 215.8125 297.542969 215.527344 298.15625 215.273438 C 298.769531 215.019531 299.390625 214.796875 300.027344 214.605469 C 300.660156 214.410156 301.304688 214.25 301.953125 214.121094 C 302.605469 213.992188 303.261719 213.894531 303.921875 213.828125 C 304.582031 213.765625 305.242188 213.730469 305.90625 213.730469 C 306.570312 213.730469 307.230469 213.765625 307.890625 213.828125 C 308.550781 213.894531 309.207031 213.992188 309.855469 214.121094 C 310.507812 214.25 311.148438 214.410156 311.785156 214.605469 C 312.417969 214.796875 313.042969 215.019531 313.65625 215.273438 C 314.269531 215.527344 314.867188 215.8125 315.453125 216.125 C 316.035156 216.4375 316.605469 216.777344 317.15625 217.144531 C 317.707031 217.511719 318.238281 217.90625 318.753906 218.328125 C 319.265625 218.75 319.757812 219.195312 320.226562 219.664062 C 320.695312 220.132812 321.140625 220.625 321.558594 221.136719 C 321.980469 221.648438 322.375 222.179688 322.742188 222.730469 C 323.113281 223.285156 323.453125 223.851562 323.765625 224.4375 C 324.078125 225.023438 324.363281 225.621094 324.617188 226.234375 C 324.871094 226.847656 325.09375 227.46875 325.285156 228.105469 C 325.476562 228.738281 325.636719 229.382812 325.769531 230.03125 C 325.898438 230.683594 325.996094 231.335938 326.058594 231.996094 C 326.125 232.65625 326.15625 233.320312 326.15625 233.984375 Z M 326.15625 233.984375 " fill-opacity="1" fill-rule="nonzero"/><path fill="#2280c3" d="M 200.148438 223.921875 C 200.148438 224.585938 200.113281 225.25 200.050781 225.910156 C 199.984375 226.570312 199.886719 227.222656 199.757812 227.875 C 199.628906 228.523438 199.46875 229.167969 199.273438 229.800781 C 199.082031 230.4375 198.859375 231.058594 198.605469 231.671875 C 198.351562 232.285156 198.066406 232.882812 197.753906 233.46875 C 197.441406 234.054688 197.101562 234.621094 196.734375 235.175781 C 196.367188 235.726562 195.96875 236.257812 195.550781 236.769531 C 195.128906 237.28125 194.683594 237.773438 194.214844 238.242188 C 193.746094 238.710938 193.253906 239.15625 192.742188 239.578125 C 192.230469 240 191.699219 240.394531 191.144531 240.761719 C 190.59375 241.128906 190.027344 241.46875 189.441406 241.78125 C 188.855469 242.09375 188.257812 242.378906 187.644531 242.632812 C 187.03125 242.886719 186.410156 243.109375 185.773438 243.300781 C 185.140625 243.496094 184.496094 243.65625 183.847656 243.785156 C 183.195312 243.914062 182.539062 244.011719 181.878906 244.078125 C 181.21875 244.140625 180.558594 244.175781 179.894531 244.175781 C 179.230469 244.175781 178.570312 244.140625 177.910156 244.078125 C 177.25 244.011719 176.59375 243.914062 175.945312 243.785156 C 175.292969 243.65625 174.652344 243.496094 174.015625 243.300781 C 173.382812 243.109375 172.757812 242.886719 172.144531 242.632812 C 171.53125 242.378906 170.933594 242.09375 170.347656 241.78125 C 169.765625 241.46875 169.195312 241.128906 168.644531 240.761719 C 168.09375 240.394531 167.558594 240 167.046875 239.578125 C 166.535156 239.15625 166.042969 238.710938 165.574219 238.242188 C 165.105469 237.773438 164.660156 237.28125 164.242188 236.769531 C 163.820312 236.257812 163.425781 235.726562 163.058594 235.175781 C 162.6875 234.621094 162.347656 234.054688 162.035156 233.46875 C 161.722656 232.882812 161.4375 232.285156 161.183594 231.671875 C 160.929688 231.058594 160.707031 230.4375 160.515625 229.800781 C 160.324219 229.167969 160.164062 228.523438 160.03125 227.875 C 159.902344 227.222656 159.804688 226.570312 159.742188 225.910156 C 159.675781 225.25 159.644531 224.585938 159.644531 223.921875 C 159.644531 223.261719 159.675781 222.597656 159.742188 221.9375 C 159.804688 221.277344 159.902344 220.625 160.03125 219.972656 C 160.160156 219.324219 160.324219 218.679688 160.515625 218.046875 C 160.707031 217.410156 160.929688 216.785156 161.183594 216.175781 C 161.4375 215.5625 161.722656 214.960938 162.035156 214.378906 C 162.347656 213.792969 162.6875 213.222656 163.054688 212.671875 C 163.425781 212.121094 163.820312 211.589844 164.242188 211.078125 C 164.660156 210.5625 165.105469 210.074219 165.574219 209.605469 C 166.042969 209.136719 166.535156 208.691406 167.046875 208.269531 C 167.558594 207.847656 168.09375 207.453125 168.644531 207.085938 C 169.195312 206.71875 169.765625 206.375 170.347656 206.0625 C 170.933594 205.75 171.53125 205.46875 172.144531 205.214844 C 172.757812 204.960938 173.382812 204.738281 174.015625 204.546875 C 174.652344 204.351562 175.292969 204.191406 175.945312 204.0625 C 176.59375 203.933594 177.25 203.835938 177.910156 203.769531 C 178.570312 203.707031 179.230469 203.671875 179.894531 203.671875 C 180.558594 203.671875 181.21875 203.707031 181.878906 203.769531 C 182.539062 203.835938 183.195312 203.933594 183.847656 204.0625 C 184.496094 204.191406 185.140625 204.351562 185.773438 204.546875 C 186.410156 204.738281 187.03125 204.960938 187.644531 205.214844 C 188.257812 205.46875 188.855469 205.75 189.441406 206.0625 C 190.027344 206.375 190.59375 206.71875 191.144531 207.085938 C 191.699219 207.453125 192.230469 207.847656 192.742188 208.269531 C 193.253906 208.691406 193.746094 209.136719 194.214844 209.605469 C 194.683594 210.074219 195.128906 210.5625 195.550781 211.078125 C 195.96875 211.589844 196.367188 212.121094 196.734375 212.671875 C 197.101562 213.222656 197.441406 213.792969 197.753906 214.378906 C 198.066406 214.960938 198.351562 215.5625 198.605469 216.175781 C 198.859375 216.785156 199.082031 217.410156 199.273438 218.046875 C 199.46875 218.679688 199.628906 219.324219 199.757812 219.972656 C 199.886719 220.625 199.984375 221.277344 200.050781 221.9375 C 200.113281 222.597656 200.148438 223.261719 200.148438 223.921875 Z M 200.148438 223.921875 " fill-opacity="1" fill-rule="nonzero"/><g fill="#ffffff" fill-opacity="1"><g transform="translate(701.841412, 439.531052)"><g><path d="M 14.578125 0 L 14.578125 -123.421875 L 42.40625 -123.421875 L 42.40625 0 Z M 14.578125 0 "/></g></g></g><g fill="#ffffff" fill-opacity="1"><g transform="translate(758.81859, 439.531052)"><g><path d="M 12.296875 0 L 12.296875 -93.890625 L 35.015625 -93.890625 L 36.90625 -81.96875 L 37.671875 -81.96875 C 41.710938 -85.75 46.128906 -89.054688 50.921875 -91.890625 C 55.710938 -94.734375 61.328125 -96.15625 67.765625 -96.15625 C 77.984375 -96.15625 85.394531 -92.8125 90 -86.125 C 94.613281 -79.4375 96.921875 -70.160156 96.921875 -58.296875 L 96.921875 0 L 69.09375 0 L 69.09375 -54.703125 C 69.09375 -61.515625 68.175781 -66.179688 66.34375 -68.703125 C 64.519531 -71.234375 61.585938 -72.5 57.546875 -72.5 C 54.015625 -72.5 50.984375 -71.707031 48.453125 -70.125 C 45.929688 -68.550781 43.15625 -66.316406 40.125 -63.421875 L 40.125 0 Z M 12.296875 0 "/></g></g></g><g fill="#ffffff" fill-opacity="1"><g transform="translate(867.094159, 439.531052)"><g><path d="M 48.453125 2.265625 C 42.648438 2.265625 37.695312 1.382812 33.59375 -0.375 C 29.5 -2.144531 26.15625 -4.609375 23.5625 -7.765625 C 20.976562 -10.921875 19.085938 -14.738281 17.890625 -19.21875 C 16.691406 -23.695312 16.09375 -28.648438 16.09375 -34.078125 L 16.09375 -72.125 L 3.21875 -72.125 L 3.21875 -92.75 L 17.609375 -93.890625 L 20.828125 -118.875 L 43.921875 -118.875 L 43.921875 -93.890625 L 66.4375 -93.890625 L 66.4375 -72.125 L 43.921875 -72.125 L 43.921875 -34.453125 C 43.921875 -29.148438 45.023438 -25.332031 47.234375 -23 C 49.441406 -20.664062 52.375 -19.5 56.03125 -19.5 C 57.539062 -19.5 59.082031 -19.6875 60.65625 -20.0625 C 62.238281 -20.445312 63.660156 -20.890625 64.921875 -21.390625 L 69.28125 -1.140625 C 66.757812 -0.378906 63.796875 0.375 60.390625 1.125 C 56.984375 1.882812 53.003906 2.265625 48.453125 2.265625 Z M 48.453125 2.265625 "/></g></g></g><g fill="#ffffff" fill-opacity="1"><g transform="translate(939.59337, 439.531052)"><g><path d="M 54.328125 2.265625 C 47.640625 2.265625 41.390625 1.160156 35.578125 -1.046875 C 29.773438 -3.253906 24.726562 -6.46875 20.4375 -10.6875 C 16.15625 -14.914062 12.8125 -20.054688 10.40625 -26.109375 C 8.007812 -32.171875 6.8125 -39.117188 6.8125 -46.953125 C 6.8125 -54.515625 8.070312 -61.359375 10.59375 -67.484375 C 13.125 -73.609375 16.4375 -78.78125 20.53125 -83 C 24.632812 -87.226562 29.335938 -90.476562 34.640625 -92.75 C 39.941406 -95.019531 45.429688 -96.15625 51.109375 -96.15625 C 57.796875 -96.15625 63.628906 -95.019531 68.609375 -92.75 C 73.597656 -90.476562 77.765625 -87.320312 81.109375 -83.28125 C 84.453125 -79.25 86.941406 -74.488281 88.578125 -69 C 90.222656 -63.507812 91.046875 -57.546875 91.046875 -51.109375 C 91.046875 -48.585938 90.921875 -46.191406 90.671875 -43.921875 C 90.421875 -41.648438 90.171875 -39.945312 89.921875 -38.8125 L 33.6875 -38.8125 C 34.957031 -31.988281 37.769531 -26.96875 42.125 -23.75 C 46.476562 -20.539062 51.804688 -18.9375 58.109375 -18.9375 C 64.796875 -18.9375 71.550781 -21.015625 78.375 -25.171875 L 87.640625 -8.328125 C 82.847656 -5.046875 77.515625 -2.457031 71.640625 -0.5625 C 65.773438 1.320312 60.003906 2.265625 54.328125 2.265625 Z M 33.5 -57.171875 L 67.390625 -57.171875 C 67.390625 -62.472656 66.191406 -66.765625 63.796875 -70.046875 C 61.398438 -73.328125 57.359375 -74.96875 51.671875 -74.96875 C 47.253906 -74.96875 43.375 -73.515625 40.03125 -70.609375 C 36.6875 -67.703125 34.507812 -63.222656 33.5 -57.171875 Z M 33.5 -57.171875 "/></g></g></g><g fill="#ffffff" fill-opacity="1"><g transform="translate(1037.647121, 439.531052)"><g><path d="M 37.859375 2.265625 C 33.066406 2.265625 29.03125 1.507812 25.75 0 C 22.46875 -1.507812 19.847656 -3.617188 17.890625 -6.328125 C 15.929688 -9.046875 14.507812 -12.328125 13.625 -16.171875 C 12.738281 -20.023438 12.296875 -24.351562 12.296875 -29.15625 L 12.296875 -132.703125 L 40.125 -132.703125 L 40.125 -28.015625 C 40.125 -25.109375 40.660156 -23.085938 41.734375 -21.953125 C 42.804688 -20.816406 43.910156 -20.25 45.046875 -20.25 C 45.679688 -20.25 46.21875 -20.25 46.65625 -20.25 C 47.101562 -20.25 47.703125 -20.378906 48.453125 -20.640625 L 51.875 0 C 50.351562 0.632812 48.425781 1.171875 46.09375 1.609375 C 43.757812 2.046875 41.015625 2.265625 37.859375 2.265625 Z M 37.859375 2.265625 "/></g></g></g><g fill="#ffffff" fill-opacity="1"><g transform="translate(1091.784906, 439.531052)"><g><path d="M 37.859375 2.265625 C 33.066406 2.265625 29.03125 1.507812 25.75 0 C 22.46875 -1.507812 19.847656 -3.617188 17.890625 -6.328125 C 15.929688 -9.046875 14.507812 -12.328125 13.625 -16.171875 C 12.738281 -20.023438 12.296875 -24.351562 12.296875 -29.15625 L 12.296875 -132.703125 L 40.125 -132.703125 L 40.125 -28.015625 C 40.125 -25.109375 40.660156 -23.085938 41.734375 -21.953125 C 42.804688 -20.816406 43.910156 -20.25 45.046875 -20.25 C 45.679688 -20.25 46.21875 -20.25 46.65625 -20.25 C 47.101562 -20.25 47.703125 -20.378906 48.453125 -20.640625 L 51.875 0 C 50.351562 0.632812 48.425781 1.171875 46.09375 1.609375 C 43.757812 2.046875 41.015625 2.265625 37.859375 2.265625 Z M 37.859375 2.265625 "/></g></g></g><g fill="#ffffff" fill-opacity="1"><g transform="translate(1145.92269, 439.531052)"><g><path d="M 12.296875 0 L 12.296875 -93.890625 L 40.125 -93.890625 L 40.125 0 Z M 26.125 -107.703125 C 21.457031 -107.703125 17.609375 -109.054688 14.578125 -111.765625 C 11.546875 -114.484375 10.03125 -117.988281 10.03125 -122.28125 C 10.03125 -126.570312 11.546875 -130.039062 14.578125 -132.6875 C 17.609375 -135.34375 21.457031 -136.671875 26.125 -136.671875 C 30.914062 -136.671875 34.796875 -135.34375 37.765625 -132.6875 C 40.734375 -130.039062 42.21875 -126.570312 42.21875 -122.28125 C 42.21875 -117.988281 40.734375 -114.484375 37.765625 -111.765625 C 34.796875 -109.054688 30.914062 -107.703125 26.125 -107.703125 Z M 26.125 -107.703125 "/></g></g></g><g fill="#ffffff" fill-opacity="1"><g transform="translate(1198.16753, 439.531052)"><g/></g></g><g fill="#ffffff" fill-opacity="1"><g transform="translate(1236.02614, 439.531052)"><g><path d="M 14.578125 0 L 14.578125 -123.421875 L 42.40625 -123.421875 L 42.40625 -75.90625 L 85 -75.90625 L 85 -123.421875 L 113.015625 -123.421875 L 113.015625 0 L 85 0 L 85 -51.484375 L 42.40625 -51.484375 L 42.40625 0 Z M 14.578125 0 "/></g></g></g><g fill="#ffffff" fill-opacity="1"><g transform="translate(1363.609586, 439.531052)"><g><path d="M 12.296875 0 L 12.296875 -93.890625 L 40.125 -93.890625 L 40.125 0 Z M 26.125 -107.703125 C 21.457031 -107.703125 17.609375 -109.054688 14.578125 -111.765625 C 11.546875 -114.484375 10.03125 -117.988281 10.03125 -122.28125 C 10.03125 -126.570312 11.546875 -130.039062 14.578125 -132.6875 C 17.609375 -135.34375 21.457031 -136.671875 26.125 -136.671875 C 30.914062 -136.671875 34.796875 -135.34375 37.765625 -132.6875 C 40.734375 -130.039062 42.21875 -126.570312 42.21875 -122.28125 C 42.21875 -117.988281 40.734375 -114.484375 37.765625 -111.765625 C 34.796875 -109.054688 30.914062 -107.703125 26.125 -107.703125 Z M 26.125 -107.703125 "/></g></g></g><g fill="#ffffff" fill-opacity="1"><g transform="translate(1415.854426, 439.531052)"><g><path d="M 12.296875 0 L 12.296875 -93.890625 L 35.015625 -93.890625 L 36.90625 -77.421875 L 37.671875 -77.421875 C 41.078125 -83.859375 45.175781 -88.585938 49.96875 -91.609375 C 54.769531 -94.640625 59.566406 -96.15625 64.359375 -96.15625 C 67.015625 -96.15625 69.191406 -96 70.890625 -95.6875 C 72.597656 -95.375 74.144531 -94.898438 75.53125 -94.265625 L 70.984375 -70.234375 C 69.222656 -70.734375 67.582031 -71.109375 66.0625 -71.359375 C 64.550781 -71.617188 62.785156 -71.75 60.765625 -71.75 C 57.234375 -71.75 53.539062 -70.484375 49.6875 -67.953125 C 45.84375 -65.429688 42.65625 -60.953125 40.125 -54.515625 L 40.125 0 Z M 12.296875 0 "/></g></g></g><g fill="#ffffff" fill-opacity="1"><g transform="translate(1491.19303, 439.531052)"><g><path d="M 54.328125 2.265625 C 47.640625 2.265625 41.390625 1.160156 35.578125 -1.046875 C 29.773438 -3.253906 24.726562 -6.46875 20.4375 -10.6875 C 16.15625 -14.914062 12.8125 -20.054688 10.40625 -26.109375 C 8.007812 -32.171875 6.8125 -39.117188 6.8125 -46.953125 C 6.8125 -54.515625 8.070312 -61.359375 10.59375 -67.484375 C 13.125 -73.609375 16.4375 -78.78125 20.53125 -83 C 24.632812 -87.226562 29.335938 -90.476562 34.640625 -92.75 C 39.941406 -95.019531 45.429688 -96.15625 51.109375 -96.15625 C 57.796875 -96.15625 63.628906 -95.019531 68.609375 -92.75 C 73.597656 -90.476562 77.765625 -87.320312 81.109375 -83.28125 C 84.453125 -79.25 86.941406 -74.488281 88.578125 -69 C 90.222656 -63.507812 91.046875 -57.546875 91.046875 -51.109375 C 91.046875 -48.585938 90.921875 -46.191406 90.671875 -43.921875 C 90.421875 -41.648438 90.171875 -39.945312 89.921875 -38.8125 L 33.6875 -38.8125 C 34.957031 -31.988281 37.769531 -26.96875 42.125 -23.75 C 46.476562 -20.539062 51.804688 -18.9375 58.109375 -18.9375 C 64.796875 -18.9375 71.550781 -21.015625 78.375 -25.171875 L 87.640625 -8.328125 C 82.847656 -5.046875 77.515625 -2.457031 71.640625 -0.5625 C 65.773438 1.320312 60.003906 2.265625 54.328125 2.265625 Z M 33.5 -57.171875 L 67.390625 -57.171875 C 67.390625 -62.472656 66.191406 -66.765625 63.796875 -70.046875 C 61.398438 -73.328125 57.359375 -74.96875 51.671875 -74.96875 C 47.253906 -74.96875 43.375 -73.515625 40.03125 -70.609375 C 36.6875 -67.703125 34.507812 -63.222656 33.5 -57.171875 Z M 33.5 -57.171875 "/></g></g></g></svg>