<svg xmlns="http://www.w3.org/2000/svg" xmlns:xlink="http://www.w3.org/1999/xlink" width="500" zoomAndPan="magnify" viewBox="0 0 375 374.999991" height="500" preserveAspectRatio="xMidYMid meet" version="1.0"><defs><g/><clipPath id="866d1d50c6"><path d="M 0 59.460938 L 370.5 59.460938 L 370.5 238 L 0 238 Z M 0 59.460938 " clip-rule="nonzero"/></clipPath></defs><rect x="-37.5" width="450" fill="#ffffff" y="-37.499999" height="449.999989" fill-opacity="1"/><rect x="-37.5" width="450" fill="#ffffff" y="-37.499999" height="449.999989" fill-opacity="1"/><g clip-path="url(#866d1d50c6)"><path fill="#ffffff" d="M -29.109375 -23.40625 C 114.234375 -23.40625 257.582031 -23.40625 400.925781 -23.40625 M 97.5625 147.769531 C 97.832031 174.027344 106.9375 195.679688 125.289062 213.121094 C 143.746094 230.664062 166.082031 238.867188 191.429688 237.242188 C 235.734375 234.402344 273.402344 198.910156 273.996094 149.839844 C 274.292969 125.597656 265.773438 104.390625 248.53125 87.160156 C 229.230469 67.871094 205.707031 59.394531 178.507812 61.425781 C 157.203125 63.015625 138.929688 71.585938 123.839844 86.582031 C 106.6875 103.632812 98.183594 124.496094 97.5625 147.769531 Z M 97.5625 147.769531 " fill-opacity="1" fill-rule="nonzero"/></g><path fill="#2382c5" d="M 97.5625 147.769531 C 98.179688 124.496094 106.683594 103.636719 123.839844 86.582031 C 138.929688 71.585938 157.203125 63.015625 178.507812 61.425781 C 205.707031 59.394531 229.230469 67.871094 248.53125 87.160156 C 265.773438 104.390625 274.292969 125.597656 273.996094 149.839844 C 273.402344 198.910156 235.734375 234.402344 191.429688 237.242188 C 166.082031 238.867188 143.746094 230.660156 125.289062 213.121094 C 106.9375 195.675781 97.832031 174.027344 97.5625 147.769531 Z M 186.253906 234.125 C 210.296875 233.515625 231.449219 224.757812 248.238281 206.519531 C 264.96875 188.339844 272.183594 166.609375 270.289062 142.058594 C 268.699219 121.421875 260.398438 103.601562 245.628906 89.089844 C 227.0625 70.851562 204.527344 62.835938 178.625 64.796875 C 158.257812 66.335938 140.707031 74.585938 126.296875 88.980469 C 108.398438 106.855469 99.875 128.703125 101.171875 153.957031 C 102.273438 175.410156 110.789062 193.929688 126.019531 209.089844 C 142.4375 225.433594 162.429688 233.625 186.253906 234.132812 Z M 186.253906 234.125 " fill-opacity="1" fill-rule="nonzero"/><path fill="#ffffff" d="M 186.253906 234.125 C 162.429688 233.613281 142.441406 225.425781 126.019531 209.082031 C 110.789062 193.921875 102.273438 175.402344 101.171875 153.945312 C 99.875 128.699219 108.398438 106.851562 126.296875 88.972656 C 140.707031 74.582031 158.257812 66.332031 178.625 64.789062 C 204.527344 62.828125 227.0625 70.84375 245.628906 89.082031 C 260.398438 103.59375 268.699219 121.417969 270.289062 142.050781 C 272.179688 166.601562 264.96875 188.335938 248.238281 206.511719 C 231.453125 224.75 210.300781 233.507812 186.253906 234.117188 Z M 155.699219 129.84375 L 164.988281 129.84375 L 164.988281 124.0625 L 158.617188 124.0625 C 159.105469 126.425781 157.402344 126.046875 156.050781 126.136719 C 155.65625 125.867188 155.152344 125.683594 154.886719 125.324219 C 151.394531 120.585938 146.863281 121.035156 144.363281 126.261719 C 143.179688 128.746094 145.453125 133.800781 149.195312 134.074219 C 152.496094 134.3125 154.566406 132.851562 155.695312 129.84375 Z M 198.078125 110.578125 L 198.078125 132.160156 L 203.964844 132.160156 C 203.964844 128.46875 203.914062 124.84375 203.976562 121.222656 C 204.046875 117.550781 204.230469 113.882812 204.363281 110.210938 C 206.730469 108.8125 207.125 106.65625 206.9375 104.117188 C 206.746094 101.460938 205.113281 99.5 202.144531 98.796875 C 200.300781 98.367188 197.160156 99.820312 196.332031 101.414062 C 194.507812 104.917969 194.917969 107.539062 198.074219 110.582031 Z M 168.757812 150.851562 C 168.734375 151.621094 168.691406 152.386719 168.691406 153.152344 C 168.691406 165.453125 168.699219 177.753906 168.683594 190.054688 C 168.683594 192.804688 164.96875 195.015625 162.605469 193.710938 C 160.554688 192.582031 157.144531 193.304688 155.652344 195.1875 C 154.238281 196.972656 154.605469 200.363281 156.402344 202.171875 C 157.917969 203.695312 161.515625 204.09375 162.960938 202.304688 C 164.417969 200.503906 166.015625 200.90625 167.714844 200.796875 C 168.378906 200.757812 169.046875 200.609375 169.691406 200.449219 C 173.363281 199.554688 175.847656 194.171875 175.839844 190.949219 C 175.8125 177.597656 175.828125 164.25 175.832031 150.902344 C 177.691406 149.515625 178.546875 147.722656 178.378906 145.351562 C 178.230469 143.277344 176.457031 140.324219 174.875 139.933594 C 171.664062 139.140625 168.679688 140.300781 167.332031 142.730469 C 165.597656 145.855469 166.765625 148.410156 168.753906 150.851562 Z M 238.390625 108.90625 C 237.324219 110.792969 236.261719 112.683594 235.152344 114.65625 C 238.617188 117.789062 240.03125 121.714844 238.992188 126.582031 C 238.53125 126.414062 238.152344 126.292969 237.789062 126.140625 C 233.417969 124.324219 229.460938 127.253906 230.027344 131.960938 C 230.253906 133.863281 231.144531 135.4375 233.078125 136.144531 C 234.992188 136.84375 236.882812 136.4375 238.058594 134.929688 C 239.703125 132.8125 241.886719 132.828125 243.890625 133.3125 C 252.75 135.464844 259.054688 143.4375 255.636719 153.867188 C 253.878906 159.242188 249.113281 163.171875 243.027344 163.046875 C 239 162.960938 234.964844 163.027344 230.980469 163.027344 L 230.980469 169.746094 C 236.496094 169.746094 241.878906 169.75 247.257812 169.738281 C 247.667969 169.738281 248.074219 169.632812 248.476562 169.546875 C 254.148438 168.273438 258.265625 164.988281 261.058594 159.917969 C 265.238281 152.335938 265.144531 144.738281 261.050781 137.21875 C 258.246094 132.066406 253.820312 128.683594 248.367188 126.679688 C 247.15625 126.234375 246.789062 125.605469 246.816406 124.46875 C 246.988281 118.367188 244.28125 113.425781 240.511719 108.917969 C 241.300781 108.746094 242.152344 108.703125 242.871094 108.375 C 245.5625 107.144531 245.703125 104.773438 245.570312 102.226562 C 245.449219 99.914062 243.539062 97.46875 241.363281 97.113281 C 238.648438 96.675781 235.144531 98.390625 234.695312 100.722656 C 234.316406 102.695312 234.515625 104.777344 234.457031 106.8125 C 230.875 103.21875 226.554688 103.414062 222.355469 104.5 C 222.003906 101.078125 222.195312 97.621094 221.226562 94.53125 C 218.554688 86.011719 212.84375 80.710938 203.703125 79.398438 C 197.84375 78.554688 192.757812 80.132812 188.222656 83.71875 C 187.308594 84.441406 186.835938 84.730469 185.804688 83.851562 C 182.5625 81.066406 178.691406 79.425781 174.484375 79.105469 C 164.125 78.3125 155.789062 84.554688 152.6875 94.011719 C 151.664062 97.144531 151.515625 100.566406 150.960938 103.898438 C 145.683594 103.5625 140.171875 103.589844 135.265625 107.535156 C 136.414062 108.992188 137.613281 110.308594 138.5625 111.777344 C 139.203125 112.777344 139.703125 112.738281 140.714844 112.351562 C 147.023438 109.9375 153.035156 110.457031 158.757812 114.226562 C 160.84375 115.597656 163 117.15625 165.351562 117.785156 C 168.933594 118.742188 171.007812 118.335938 172.125 115.679688 C 172.691406 114.335938 172.886719 112.835938 173.253906 111.40625 C 173.566406 111.035156 173.875 110.660156 174.183594 110.285156 C 175.996094 108.097656 175.820312 104.503906 174.011719 102.253906 C 172.371094 100.222656 168.179688 99.925781 166.230469 101.28125 C 163.726562 103.027344 163.660156 105.488281 163.777344 108.089844 C 162.449219 107.273438 161.101562 106.476562 159.800781 105.617188 C 159.472656 105.398438 159.082031 104.976562 159.0625 104.628906 C 158.988281 102.8125 158.941406 100.984375 159.042969 99.171875 C 159.496094 90.714844 169.117188 84.03125 177.429688 87.476562 C 180.46875 88.738281 183.433594 92.453125 183.425781 94.996094 C 183.367188 128.304688 183.425781 161.609375 183.335938 194.917969 C 183.324219 199.308594 181.761719 203.386719 178.628906 206.601562 C 171.390625 214.039062 159.628906 213.773438 151.976562 206.539062 C 148.113281 202.894531 146.519531 198.335938 146.796875 192.949219 C 147.136719 186.375 152.3125 180.152344 159.5 179.832031 C 161.738281 179.734375 162.796875 178.707031 162.804688 176.507812 C 162.816406 171.332031 162.675781 166.144531 162.859375 160.976562 C 162.972656 157.789062 162.09375 155.066406 160.292969 152.535156 C 158.15625 149.539062 155.84375 146.296875 152.035156 145.941406 C 146.617188 145.4375 141.117188 145.8125 135.621094 145.8125 L 135.621094 152.535156 C 139.148438 152.535156 142.566406 152.535156 145.980469 152.535156 C 151.402344 152.539062 155.667969 156.84375 155.671875 162.316406 C 155.671875 165.042969 155.574219 167.777344 155.707031 170.5 C 155.785156 172.039062 155.097656 172.554688 153.808594 173.164062 C 151.140625 174.429688 148.167969 175.5625 146.132812 177.570312 C 140.785156 182.835938 138.058594 189.234375 139.253906 197.019531 C 140.414062 204.578125 144.09375 210.402344 150.363281 214.707031 C 156.015625 218.585938 162.335938 219.878906 169.007812 219.230469 C 173.074219 218.835938 177.105469 217.75 180.332031 215.011719 C 182.855469 212.871094 185.148438 210.457031 187.625 208.078125 C 187.757812 208.238281 188.042969 208.550781 188.300781 208.882812 C 188.507812 209.148438 188.652344 209.460938 188.863281 209.722656 C 193.496094 215.453125 199.53125 218.800781 206.839844 219.21875 C 213.742188 219.613281 220.007812 217.535156 225.550781 213.144531 C 231.574219 208.378906 234.980469 202.125 235.332031 194.710938 C 235.742188 186.070312 231.832031 179.167969 224.195312 174.835938 C 218.71875 171.730469 212.859375 171.191406 207.242188 174.359375 C 201.289062 177.710938 198.210938 182.726562 198.859375 189.941406 C 199.476562 196.808594 206.046875 202.574219 212.886719 201.65625 C 216.5 201.167969 218.589844 196.71875 216.707031 193.59375 C 215.101562 190.929688 211.359375 190.230469 208.449219 192.390625 C 206.183594 190.121094 205.738281 186.996094 207.296875 184.300781 C 208.914062 181.503906 213.59375 179.304688 216.378906 179.90625 C 223.597656 181.457031 227.6875 187.535156 227.546875 194.082031 C 227.300781 205.519531 216.675781 213.117188 206.242188 211.605469 C 196.242188 210.160156 191.125 202.675781 190.980469 193.191406 C 190.835938 183.605469 190.949219 174.019531 190.949219 164.433594 C 190.949219 163.695312 190.949219 162.964844 190.949219 162.1875 C 195.171875 162.1875 199.09375 162.3125 203.003906 162.128906 C 204.71875 162.050781 206.628906 161.722656 208.050781 160.859375 C 210.558594 159.335938 212.800781 157.355469 215.074219 155.472656 C 217.34375 153.582031 219.691406 152.304688 222.851562 152.46875 C 227.300781 152.703125 231.773438 152.527344 236.097656 152.527344 L 236.097656 145.394531 C 229.929688 145.394531 223.777344 145.390625 217.625 145.40625 C 217.234375 145.40625 216.789062 145.523438 216.46875 145.734375 C 213.972656 147.347656 211.394531 148.847656 209.054688 150.664062 C 206.609375 152.5625 204.277344 154.667969 201.089844 154.992188 C 198.59375 155.246094 196.050781 154.929688 193.539062 155.082031 C 191.585938 155.199219 190.902344 154.6875 190.910156 152.574219 C 190.988281 132.492188 190.941406 112.40625 190.984375 92.328125 C 190.984375 91.617188 191.394531 90.753906 191.890625 90.21875 C 195.1875 86.699219 201.921875 85.273438 206.664062 87.832031 C 211.527344 90.449219 214.511719 94.3125 214.476562 100.082031 C 214.460938 102.675781 214.503906 105.261719 214.453125 107.851562 C 214.4375 108.425781 214.316406 109.140625 213.964844 109.542969 C 210.707031 113.289062 209.269531 117.570312 209.386719 122.5625 C 209.53125 128.550781 214.6875 136.46875 221.347656 138.15625 C 223.585938 138.722656 225.660156 137.761719 226.183594 135.84375 C 226.710938 133.925781 225.222656 130.835938 223.476562 130.296875 C 218.546875 128.789062 217.136719 125.269531 217.074219 121.839844 C 216.996094 117.757812 219.191406 113.867188 223.421875 112.136719 C 226.582031 110.84375 229.511719 111.375 232.519531 112.550781 C 233.273438 111.21875 234.054688 110.015625 234.636719 108.71875 C 234.859375 108.226562 234.613281 107.523438 234.585938 106.917969 C 235.855469 107.582031 237.128906 108.246094 238.402344 108.910156 Z M 132.253906 108.949219 C 128.933594 113.984375 126.78125 119.441406 125.796875 125.308594 C 125.722656 125.765625 125 126.296875 124.476562 126.460938 C 120.902344 127.589844 117.527344 129.136719 114.898438 131.824219 C 108.253906 138.625 106.1875 146.769531 108.867188 155.839844 C 110.964844 162.941406 115.613281 167.984375 123.058594 169.496094 C 126.425781 170.179688 130.023438 169.632812 133.507812 169.785156 C 134.445312 169.828125 135.429688 170.265625 136.265625 170.738281 C 139.585938 172.640625 141.445312 172.902344 143.960938 169.875 C 145.425781 168.109375 145.589844 165.375 144.410156 163.761719 C 143.015625 161.84375 139.957031 160.382812 138.277344 161.511719 C 134.726562 163.894531 130.910156 162.789062 127.207031 162.964844 C 125.984375 163.023438 124.585938 162.648438 123.503906 162.042969 C 115.441406 157.519531 113.15625 149.996094 116.78125 141.988281 C 119.347656 136.316406 124.1875 133.03125 130.78125 133.253906 C 131.492188 133.28125 132.402344 133.703125 132.851562 134.25 C 134.105469 135.773438 135.65625 136.644531 137.550781 136.359375 C 139.816406 136.019531 141.414062 134.664062 141.816406 132.273438 C 142.171875 130.160156 141.707031 128.390625 139.984375 126.851562 C 137.960938 125.042969 135.792969 125.683594 133.46875 126.09375 C 133.226562 122.585938 133.867188 119.472656 135.855469 116.636719 C 136.269531 116.046875 136.585938 114.882812 136.285156 114.398438 C 135.144531 112.558594 133.726562 110.890625 132.253906 108.949219 Z M 127.550781 155.886719 C 130.882812 155.886719 133.761719 153.246094 133.8125 150.136719 C 133.867188 146.902344 131.332031 144.125 128.324219 144.125 C 123.75 144.125 121.660156 146.054688 121.652344 150.285156 C 121.644531 153.945312 123.6875 155.886719 127.550781 155.886719 Z M 243.710938 155.886719 C 247.601562 155.886719 249.742188 153.789062 249.742188 149.957031 C 249.742188 146.382812 247.621094 144.128906 244.265625 144.125 C 240.203125 144.125 238 146.277344 237.980469 150.257812 C 237.96875 153.957031 239.929688 155.882812 243.710938 155.882812 Z M 222.972656 172.6875 C 226.644531 172.695312 228.546875 170.617188 228.796875 166.972656 C 229.050781 163.332031 226.136719 160.742188 223.347656 160.875 C 219.640625 161.050781 217 163.316406 216.980469 166.746094 C 216.957031 170.21875 219.4375 172.679688 222.96875 172.6875 Z M 240.605469 174.363281 C 236.882812 174.363281 234.625 176.53125 234.621094 180.121094 C 234.617188 183.664062 236.929688 185.949219 240.230469 186.171875 C 243.050781 186.363281 246.5625 183.179688 246.421875 180.109375 C 246.261719 176.582031 244.175781 174.363281 240.605469 174.359375 Z M 206.910156 140.582031 C 206.921875 137.019531 205.152344 134.90625 202.15625 134.890625 C 197.410156 134.871094 195.101562 136.722656 195.171875 140.714844 C 195.222656 143.511719 197.800781 146.5 201.191406 146.628906 C 204.503906 146.753906 206.898438 144.148438 206.910156 140.585938 Z M 126.273438 180.203125 C 125.820312 183.476562 129.109375 186.210938 131.945312 186.148438 C 135.648438 186.0625 138.195312 183.042969 137.945312 180.164062 C 137.648438 176.765625 136.367188 174.308594 132.199219 174.273438 C 128.15625 174.246094 126.277344 176.15625 126.273438 180.203125 Z M 172.878906 123.105469 C 169.339844 123.078125 166.996094 125.308594 166.980469 128.726562 C 166.964844 131.945312 169.628906 134.976562 172.695312 134.832031 C 175.203125 134.71875 178.304688 132.847656 178.449219 129.632812 C 178.632812 125.394531 176.644531 122.609375 172.878906 123.105469 Z M 123.757812 103.542969 C 123.734375 106.40625 126.578125 109.542969 129.335938 109.6875 C 132.082031 109.832031 135.507812 106.640625 135.496094 103.816406 C 135.484375 100.8125 133.671875 97.777344 130.167969 97.558594 C 126.675781 97.347656 123.785156 100.121094 123.757812 103.542969 Z M 123.757812 103.542969 " fill-opacity="1" fill-rule="nonzero"/><path fill="#272626" d="M 173.253906 111.394531 C 172.886719 112.824219 172.6875 114.320312 172.125 115.664062 C 171.007812 118.320312 168.933594 118.730469 165.351562 117.773438 C 163 117.144531 160.847656 115.585938 158.757812 114.210938 C 153.039062 110.449219 147.023438 109.929688 140.714844 112.339844 C 139.703125 112.726562 139.203125 112.765625 138.5625 111.765625 C 137.613281 110.296875 136.417969 108.980469 135.265625 107.523438 C 140.179688 103.578125 145.683594 103.550781 150.960938 103.886719 C 151.515625 100.554688 151.660156 97.132812 152.6875 94 C 155.789062 84.542969 164.125 78.300781 174.484375 79.09375 C 178.691406 79.417969 182.5625 81.058594 185.804688 83.835938 C 186.832031 84.71875 187.304688 84.429688 188.222656 83.707031 C 192.757812 80.121094 197.84375 78.546875 203.703125 79.386719 C 212.84375 80.703125 218.554688 86.003906 221.226562 94.519531 C 222.195312 97.609375 222.003906 101.0625 222.355469 104.488281 C 226.554688 103.402344 230.875 103.207031 234.453125 106.800781 C 234.453125 106.875 234.496094 106.910156 234.566406 106.910156 C 234.601562 107.519531 234.84375 108.222656 234.621094 108.714844 C 234.042969 110.007812 233.261719 111.210938 232.503906 112.546875 C 229.5 111.371094 226.566406 110.839844 223.410156 112.132812 C 219.179688 113.863281 216.984375 117.753906 217.058594 121.832031 C 217.121094 125.269531 218.535156 128.78125 223.464844 130.292969 C 225.210938 130.832031 226.703125 133.921875 226.171875 135.839844 C 225.648438 137.757812 223.578125 138.714844 221.335938 138.152344 C 214.675781 136.46875 209.515625 128.550781 209.375 122.558594 C 209.257812 117.570312 210.691406 113.285156 213.953125 109.539062 C 214.304688 109.132812 214.425781 108.421875 214.4375 107.847656 C 214.488281 105.261719 214.449219 102.671875 214.464844 100.078125 C 214.496094 94.308594 211.515625 90.445312 206.652344 87.828125 C 201.90625 85.269531 195.175781 86.699219 191.878906 90.214844 C 191.378906 90.75 190.972656 91.609375 190.972656 92.324219 C 190.929688 112.40625 190.972656 132.492188 190.894531 152.570312 C 190.886719 154.683594 191.574219 155.199219 193.523438 155.078125 C 196.035156 154.921875 198.582031 155.242188 201.074219 154.988281 C 204.269531 154.664062 206.597656 152.558594 209.042969 150.660156 C 211.382812 148.84375 213.960938 147.339844 216.453125 145.730469 C 216.777344 145.519531 217.222656 145.402344 217.613281 145.402344 C 223.765625 145.382812 229.917969 145.390625 236.082031 145.390625 L 236.082031 152.523438 C 231.761719 152.523438 227.289062 152.699219 222.839844 152.464844 C 219.679688 152.300781 217.335938 153.578125 215.0625 155.46875 C 212.789062 157.351562 210.546875 159.324219 208.039062 160.855469 C 206.617188 161.722656 204.703125 162.046875 202.992188 162.125 C 199.082031 162.308594 195.160156 162.183594 190.9375 162.183594 C 190.9375 162.957031 190.9375 163.691406 190.9375 164.425781 C 190.9375 174.011719 190.824219 183.605469 190.96875 193.1875 C 191.109375 202.671875 196.230469 210.15625 206.230469 211.601562 C 216.660156 213.109375 227.285156 205.515625 227.535156 194.074219 C 227.671875 187.53125 223.582031 181.453125 216.367188 179.902344 C 213.582031 179.300781 208.898438 181.503906 207.28125 184.296875 C 205.726562 186.992188 206.171875 190.117188 208.4375 192.386719 C 211.34375 190.226562 215.089844 190.925781 216.695312 193.589844 C 218.574219 196.710938 216.492188 201.164062 212.871094 201.652344 C 206.035156 202.570312 199.464844 196.804688 198.847656 189.9375 C 198.195312 182.722656 201.273438 177.703125 207.226562 174.355469 C 212.847656 171.1875 218.710938 171.726562 224.183594 174.832031 C 231.824219 179.167969 235.734375 186.070312 235.320312 194.707031 C 234.964844 202.117188 231.5625 208.375 225.539062 213.140625 C 219.992188 217.527344 213.730469 219.609375 206.824219 219.214844 C 199.523438 218.792969 193.488281 215.453125 188.851562 209.71875 C 188.640625 209.457031 188.496094 209.140625 188.289062 208.878906 C 188.03125 208.546875 187.746094 208.230469 187.613281 208.074219 C 185.128906 210.453125 182.839844 212.871094 180.316406 215.007812 C 177.09375 217.742188 173.0625 218.832031 168.996094 219.226562 C 162.328125 219.875 156.007812 218.582031 150.347656 214.699219 C 144.078125 210.402344 140.40625 204.574219 139.242188 197.015625 C 138.042969 189.230469 140.777344 182.835938 146.121094 177.566406 C 148.15625 175.558594 151.125 174.425781 153.796875 173.160156 C 155.089844 172.546875 155.769531 172.03125 155.695312 170.496094 C 155.5625 167.773438 155.660156 165.039062 155.65625 162.3125 C 155.652344 156.839844 151.390625 152.535156 145.96875 152.53125 C 142.550781 152.53125 139.136719 152.53125 135.609375 152.53125 L 135.609375 145.808594 C 141.105469 145.808594 146.601562 145.4375 152.019531 145.933594 C 155.828125 146.289062 158.144531 149.53125 160.28125 152.53125 C 162.082031 155.0625 162.960938 157.785156 162.847656 160.972656 C 162.664062 166.144531 162.804688 171.328125 162.792969 176.503906 C 162.789062 178.699219 161.730469 179.726562 159.488281 179.828125 C 152.296875 180.148438 147.125 186.371094 146.785156 192.945312 C 146.507812 198.332031 148.101562 202.886719 151.960938 206.535156 C 159.617188 213.769531 171.375 214.035156 178.617188 206.597656 C 181.75 203.378906 183.3125 199.304688 183.324219 194.914062 C 183.417969 161.605469 183.355469 128.300781 183.414062 94.988281 C 183.417969 92.449219 180.453125 88.738281 177.414062 87.472656 C 169.105469 84.03125 159.484375 90.710938 159.03125 99.167969 C 158.933594 100.980469 158.980469 102.808594 159.050781 104.625 C 159.0625 104.972656 159.457031 105.394531 159.789062 105.613281 C 161.09375 106.472656 162.4375 107.269531 163.761719 108.082031 C 163.988281 110.300781 165.136719 111.726562 167.292969 112.402344 C 169.472656 113.085938 171.382812 112.464844 173.242188 111.398438 Z M 173.253906 111.394531 " fill-opacity="1" fill-rule="nonzero"/><path fill="#272626" d="M 132.257812 108.949219 C 133.730469 110.886719 135.148438 112.558594 136.289062 114.398438 C 136.589844 114.882812 136.273438 116.046875 135.859375 116.636719 C 133.871094 119.472656 133.230469 122.585938 133.472656 126.09375 C 135.800781 125.683594 137.964844 125.042969 139.988281 126.851562 C 141.710938 128.390625 142.175781 130.160156 141.820312 132.273438 C 141.417969 134.664062 139.820312 136.019531 137.554688 136.359375 C 135.660156 136.644531 134.109375 135.773438 132.855469 134.25 C 132.40625 133.703125 131.496094 133.28125 130.785156 133.253906 C 124.191406 133.03125 119.351562 136.316406 116.785156 141.988281 C 113.167969 149.996094 115.445312 157.519531 123.511719 162.042969 C 124.589844 162.648438 125.984375 163.023438 127.210938 162.964844 C 130.914062 162.789062 134.730469 163.898438 138.28125 161.511719 C 139.960938 160.382812 143.019531 161.84375 144.414062 163.761719 C 145.59375 165.375 145.425781 168.109375 143.964844 169.875 C 141.449219 172.902344 139.589844 172.640625 136.269531 170.738281 C 135.433594 170.257812 134.445312 169.824219 133.511719 169.785156 C 130.027344 169.628906 126.425781 170.175781 123.066406 169.496094 C 115.617188 167.984375 110.96875 162.941406 108.871094 155.839844 C 106.191406 146.769531 108.261719 138.625 114.902344 131.824219 C 117.527344 129.136719 120.90625 127.589844 124.480469 126.460938 C 125.003906 126.296875 125.726562 125.765625 125.804688 125.308594 C 126.796875 119.441406 128.949219 113.988281 132.257812 108.949219 Z M 132.257812 108.949219 " fill-opacity="1" fill-rule="nonzero"/><path fill="#272626" d="M 240.511719 108.914062 C 244.28125 113.421875 246.988281 118.359375 246.816406 124.464844 C 246.785156 125.601562 247.15625 126.230469 248.367188 126.675781 C 253.820312 128.679688 258.246094 132.0625 261.050781 137.214844 C 265.148438 144.734375 265.238281 152.332031 261.058594 159.914062 C 258.265625 164.984375 254.152344 168.269531 248.476562 169.542969 C 248.078125 169.628906 247.667969 169.734375 247.257812 169.734375 C 241.875 169.746094 236.496094 169.742188 230.980469 169.742188 L 230.980469 163.023438 C 234.964844 163.023438 239 162.957031 243.027344 163.042969 C 249.113281 163.167969 253.878906 159.242188 255.636719 153.863281 C 259.054688 143.433594 252.75 135.460938 243.890625 133.308594 C 241.886719 132.824219 239.703125 132.808594 238.058594 134.925781 C 236.882812 136.433594 234.996094 136.839844 233.078125 136.140625 C 231.140625 135.433594 230.253906 133.859375 230.027344 131.957031 C 229.460938 127.25 233.417969 124.320312 237.789062 126.136719 C 238.152344 126.289062 238.535156 126.410156 238.992188 126.578125 C 240.035156 121.710938 238.621094 117.789062 235.152344 114.652344 C 236.261719 112.683594 237.328125 110.792969 238.390625 108.902344 C 239.09375 108.902344 239.800781 108.90625 240.507812 108.910156 Z M 240.511719 108.914062 " fill-opacity="1" fill-rule="nonzero"/><path fill="#272626" d="M 175.832031 150.90625 C 175.832031 164.253906 175.8125 177.605469 175.839844 190.953125 C 175.847656 194.171875 173.363281 199.554688 169.691406 200.453125 C 169.042969 200.613281 168.378906 200.761719 167.714844 200.800781 C 166.015625 200.910156 164.414062 200.511719 162.960938 202.308594 C 161.511719 204.097656 157.917969 203.699219 156.402344 202.175781 C 154.597656 200.367188 154.238281 196.976562 155.652344 195.191406 C 157.144531 193.3125 160.554688 192.585938 162.605469 193.714844 C 164.96875 195.015625 168.683594 192.808594 168.683594 190.058594 C 168.699219 177.757812 168.6875 165.457031 168.691406 153.15625 C 168.691406 152.390625 168.734375 151.625 168.757812 150.855469 C 171.117188 150.875 173.472656 150.894531 175.832031 150.910156 Z M 175.832031 150.90625 " fill-opacity="1" fill-rule="nonzero"/><path fill="#272626" d="M 204.367188 110.210938 C 204.234375 113.882812 204.050781 117.550781 203.980469 121.222656 C 203.914062 124.84375 203.96875 128.472656 203.96875 132.160156 L 198.082031 132.160156 C 198.082031 125.070312 198.082031 117.824219 198.082031 110.578125 C 200.175781 110.453125 202.273438 110.332031 204.367188 110.210938 Z M 204.367188 110.210938 " fill-opacity="1" fill-rule="nonzero"/><path fill="#272626" d="M 155.699219 129.84375 C 155.816406 128.609375 155.933594 127.371094 156.050781 126.136719 C 157.402344 126.042969 159.109375 126.425781 158.617188 124.0625 L 164.988281 124.0625 L 164.988281 129.84375 Z M 155.699219 129.84375 " fill-opacity="1" fill-rule="nonzero"/><path fill="#2280c3" d="M 246.476562 103.371094 C 246.476562 103.773438 246.4375 104.167969 246.359375 104.5625 C 246.28125 104.953125 246.167969 105.335938 246.011719 105.703125 C 245.859375 106.074219 245.671875 106.425781 245.449219 106.757812 C 245.226562 107.089844 244.976562 107.398438 244.691406 107.683594 C 244.410156 107.964844 244.101562 108.21875 243.769531 108.441406 C 243.433594 108.664062 243.082031 108.851562 242.714844 109.003906 C 242.34375 109.15625 241.960938 109.273438 241.570312 109.351562 C 241.175781 109.429688 240.78125 109.46875 240.378906 109.46875 C 239.980469 109.46875 239.582031 109.429688 239.191406 109.351562 C 238.796875 109.273438 238.417969 109.15625 238.046875 109.003906 C 237.675781 108.851562 237.324219 108.664062 236.992188 108.441406 C 236.660156 108.21875 236.351562 107.964844 236.066406 107.683594 C 235.785156 107.398438 235.53125 107.089844 235.308594 106.757812 C 235.085938 106.425781 234.898438 106.074219 234.746094 105.703125 C 234.59375 105.335938 234.476562 104.953125 234.398438 104.5625 C 234.320312 104.167969 234.28125 103.773438 234.28125 103.371094 C 234.28125 102.972656 234.320312 102.574219 234.398438 102.183594 C 234.476562 101.789062 234.59375 101.40625 234.746094 101.039062 C 234.898438 100.667969 235.085938 100.316406 235.308594 99.984375 C 235.53125 99.652344 235.785156 99.34375 236.066406 99.058594 C 236.351562 98.777344 236.660156 98.523438 236.992188 98.300781 C 237.324219 98.078125 237.675781 97.890625 238.046875 97.738281 C 238.417969 97.585938 238.796875 97.46875 239.191406 97.390625 C 239.582031 97.3125 239.980469 97.273438 240.378906 97.273438 C 240.78125 97.273438 241.175781 97.3125 241.570312 97.390625 C 241.960938 97.46875 242.34375 97.585938 242.714844 97.738281 C 243.082031 97.890625 243.433594 98.078125 243.769531 98.300781 C 244.101562 98.523438 244.410156 98.777344 244.691406 99.058594 C 244.976562 99.34375 245.226562 99.652344 245.449219 99.984375 C 245.671875 100.316406 245.859375 100.667969 246.011719 101.039062 C 246.167969 101.40625 246.28125 101.789062 246.359375 102.183594 C 246.4375 102.574219 246.476562 102.972656 246.476562 103.371094 Z M 246.476562 103.371094 " fill-opacity="1" fill-rule="nonzero"/><path fill="#2280c3" d="M 207.648438 104.820312 C 207.648438 105.242188 207.605469 105.660156 207.523438 106.074219 C 207.441406 106.488281 207.320312 106.886719 207.160156 107.277344 C 206.996094 107.667969 206.800781 108.039062 206.566406 108.390625 C 206.332031 108.738281 206.066406 109.0625 205.765625 109.363281 C 205.46875 109.660156 205.144531 109.925781 204.792969 110.160156 C 204.441406 110.394531 204.070312 110.59375 203.683594 110.753906 C 203.292969 110.917969 202.890625 111.039062 202.476562 111.121094 C 202.0625 111.203125 201.644531 111.242188 201.222656 111.242188 C 200.800781 111.242188 200.382812 111.203125 199.96875 111.121094 C 199.554688 111.039062 199.152344 110.917969 198.765625 110.753906 C 198.375 110.59375 198.003906 110.394531 197.652344 110.160156 C 197.300781 109.925781 196.976562 109.660156 196.679688 109.363281 C 196.382812 109.0625 196.113281 108.738281 195.878906 108.390625 C 195.644531 108.039062 195.449219 107.667969 195.285156 107.277344 C 195.125 106.886719 195.003906 106.488281 194.921875 106.074219 C 194.839844 105.660156 194.796875 105.242188 194.796875 104.820312 C 194.796875 104.398438 194.839844 103.980469 194.921875 103.566406 C 195.003906 103.152344 195.125 102.75 195.285156 102.359375 C 195.449219 101.972656 195.644531 101.601562 195.878906 101.25 C 196.113281 100.898438 196.382812 100.574219 196.679688 100.277344 C 196.976562 99.980469 197.300781 99.710938 197.652344 99.476562 C 198.003906 99.242188 198.375 99.046875 198.765625 98.882812 C 199.152344 98.722656 199.554688 98.601562 199.96875 98.519531 C 200.382812 98.4375 200.800781 98.394531 201.222656 98.394531 C 201.644531 98.394531 202.0625 98.4375 202.476562 98.519531 C 202.890625 98.601562 203.292969 98.722656 203.683594 98.882812 C 204.070312 99.046875 204.441406 99.242188 204.792969 99.476562 C 205.144531 99.710938 205.46875 99.980469 205.765625 100.277344 C 206.066406 100.574219 206.332031 100.898438 206.566406 101.25 C 206.800781 101.601562 206.996094 101.972656 207.160156 102.359375 C 207.320312 102.75 207.441406 103.152344 207.523438 103.566406 C 207.605469 103.980469 207.648438 104.398438 207.648438 104.820312 Z M 207.648438 104.820312 " fill-opacity="1" fill-rule="nonzero"/><path fill="#2280c3" d="M 179.144531 128.9375 C 179.144531 129.359375 179.105469 129.777344 179.023438 130.191406 C 178.941406 130.605469 178.816406 131.007812 178.65625 131.398438 C 178.496094 131.785156 178.296875 132.15625 178.0625 132.507812 C 177.828125 132.859375 177.5625 133.183594 177.265625 133.480469 C 176.964844 133.777344 176.640625 134.046875 176.289062 134.28125 C 175.941406 134.515625 175.570312 134.710938 175.179688 134.875 C 174.789062 135.035156 174.386719 135.15625 173.972656 135.238281 C 173.558594 135.320312 173.140625 135.363281 172.71875 135.363281 C 172.296875 135.363281 171.878906 135.320312 171.46875 135.238281 C 171.054688 135.15625 170.652344 135.035156 170.261719 134.875 C 169.871094 134.710938 169.5 134.515625 169.152344 134.28125 C 168.800781 134.046875 168.476562 133.777344 168.175781 133.480469 C 167.878906 133.183594 167.613281 132.859375 167.378906 132.507812 C 167.144531 132.15625 166.945312 131.785156 166.785156 131.398438 C 166.621094 131.007812 166.5 130.605469 166.417969 130.191406 C 166.335938 129.777344 166.296875 129.359375 166.296875 128.9375 C 166.296875 128.515625 166.335938 128.097656 166.417969 127.683594 C 166.5 127.269531 166.621094 126.871094 166.785156 126.480469 C 166.945312 126.089844 167.144531 125.71875 167.378906 125.367188 C 167.613281 125.019531 167.878906 124.695312 168.175781 124.394531 C 168.476562 124.097656 168.800781 123.832031 169.152344 123.597656 C 169.5 123.363281 169.871094 123.164062 170.261719 123.003906 C 170.652344 122.839844 171.054688 122.71875 171.46875 122.636719 C 171.878906 122.554688 172.296875 122.515625 172.71875 122.515625 C 173.140625 122.515625 173.558594 122.554688 173.972656 122.636719 C 174.386719 122.71875 174.789062 122.839844 175.179688 123.003906 C 175.570312 123.164062 175.941406 123.363281 176.289062 123.597656 C 176.640625 123.832031 176.964844 124.097656 177.265625 124.394531 C 177.5625 124.695312 177.828125 125.019531 178.0625 125.367188 C 178.296875 125.71875 178.496094 126.089844 178.65625 126.480469 C 178.816406 126.871094 178.941406 127.269531 179.023438 127.683594 C 179.105469 128.097656 179.144531 128.515625 179.144531 128.9375 Z M 179.144531 128.9375 " fill-opacity="1" fill-rule="nonzero"/><path fill="#2280c3" d="M 178.914062 146.628906 C 178.914062 147.050781 178.875 147.46875 178.792969 147.882812 C 178.710938 148.296875 178.585938 148.695312 178.425781 149.085938 C 178.265625 149.476562 178.066406 149.847656 177.832031 150.199219 C 177.597656 150.546875 177.332031 150.871094 177.03125 151.171875 C 176.734375 151.46875 176.410156 151.734375 176.058594 151.96875 C 175.707031 152.203125 175.339844 152.402344 174.949219 152.5625 C 174.558594 152.726562 174.15625 152.847656 173.742188 152.929688 C 173.328125 153.011719 172.910156 153.050781 172.488281 153.050781 C 172.066406 153.050781 171.648438 153.011719 171.234375 152.929688 C 170.820312 152.847656 170.421875 152.726562 170.03125 152.5625 C 169.640625 152.402344 169.269531 152.203125 168.917969 151.96875 C 168.570312 151.734375 168.246094 151.46875 167.945312 151.171875 C 167.648438 150.871094 167.382812 150.546875 167.148438 150.199219 C 166.914062 149.847656 166.714844 149.476562 166.554688 149.085938 C 166.390625 148.695312 166.269531 148.296875 166.1875 147.882812 C 166.105469 147.46875 166.0625 147.050781 166.0625 146.628906 C 166.0625 146.207031 166.105469 145.789062 166.1875 145.375 C 166.269531 144.960938 166.390625 144.558594 166.554688 144.167969 C 166.714844 143.78125 166.914062 143.410156 167.148438 143.058594 C 167.382812 142.707031 167.648438 142.382812 167.945312 142.085938 C 168.246094 141.789062 168.570312 141.519531 168.917969 141.285156 C 169.269531 141.050781 169.640625 140.855469 170.03125 140.691406 C 170.421875 140.53125 170.820312 140.410156 171.234375 140.328125 C 171.648438 140.246094 172.066406 140.203125 172.488281 140.203125 C 172.910156 140.203125 173.328125 140.246094 173.742188 140.328125 C 174.15625 140.410156 174.558594 140.53125 174.949219 140.691406 C 175.339844 140.855469 175.707031 141.050781 176.058594 141.285156 C 176.410156 141.519531 176.734375 141.789062 177.03125 142.085938 C 177.332031 142.382812 177.597656 142.707031 177.832031 143.058594 C 178.066406 143.410156 178.265625 143.78125 178.425781 144.167969 C 178.585938 144.558594 178.710938 144.960938 178.792969 145.375 C 178.875 145.789062 178.914062 146.207031 178.914062 146.628906 Z M 178.914062 146.628906 " fill-opacity="1" fill-rule="nonzero"/><path fill="#2280c3" d="M 207.46875 140.757812 C 207.46875 141.179688 207.425781 141.597656 207.34375 142.011719 C 207.261719 142.425781 207.140625 142.828125 206.980469 143.214844 C 206.816406 143.605469 206.621094 143.976562 206.386719 144.328125 C 206.152344 144.679688 205.882812 145.003906 205.585938 145.300781 C 205.289062 145.597656 204.964844 145.867188 204.613281 146.101562 C 204.261719 146.335938 203.890625 146.53125 203.5 146.695312 C 203.113281 146.855469 202.710938 146.976562 202.296875 147.058594 C 201.882812 147.140625 201.464844 147.183594 201.042969 147.183594 C 200.621094 147.183594 200.203125 147.140625 199.789062 147.058594 C 199.375 146.976562 198.972656 146.855469 198.582031 146.695312 C 198.195312 146.53125 197.824219 146.335938 197.472656 146.101562 C 197.121094 145.867188 196.796875 145.597656 196.5 145.300781 C 196.199219 145.003906 195.933594 144.679688 195.699219 144.328125 C 195.464844 143.976562 195.269531 143.605469 195.105469 143.214844 C 194.945312 142.828125 194.824219 142.425781 194.742188 142.011719 C 194.660156 141.597656 194.617188 141.179688 194.617188 140.757812 C 194.617188 140.335938 194.660156 139.917969 194.742188 139.503906 C 194.824219 139.089844 194.945312 138.6875 195.105469 138.300781 C 195.269531 137.910156 195.464844 137.539062 195.699219 137.1875 C 195.933594 136.839844 196.199219 136.515625 196.5 136.214844 C 196.796875 135.917969 197.121094 135.652344 197.472656 135.417969 C 197.824219 135.183594 198.195312 134.984375 198.582031 134.824219 C 198.972656 134.660156 199.375 134.539062 199.789062 134.457031 C 200.203125 134.375 200.621094 134.332031 201.042969 134.332031 C 201.464844 134.332031 201.882812 134.375 202.296875 134.457031 C 202.710938 134.539062 203.113281 134.660156 203.5 134.824219 C 203.890625 134.984375 204.261719 135.183594 204.613281 135.417969 C 204.964844 135.652344 205.289062 135.917969 205.585938 136.214844 C 205.882812 136.515625 206.152344 136.839844 206.386719 137.1875 C 206.621094 137.539062 206.816406 137.910156 206.980469 138.300781 C 207.140625 138.6875 207.261719 139.089844 207.34375 139.503906 C 207.425781 139.917969 207.46875 140.335938 207.46875 140.757812 Z M 207.46875 140.757812 " fill-opacity="1" fill-rule="nonzero"/><path fill="#2280c3" d="M 250.289062 150.007812 C 250.289062 150.429688 250.25 150.847656 250.167969 151.261719 C 250.085938 151.675781 249.964844 152.078125 249.800781 152.46875 C 249.640625 152.855469 249.441406 153.226562 249.207031 153.578125 C 248.972656 153.929688 248.707031 154.253906 248.410156 154.550781 C 248.109375 154.847656 247.785156 155.117188 247.433594 155.351562 C 247.085938 155.585938 246.714844 155.78125 246.324219 155.945312 C 245.933594 156.105469 245.53125 156.226562 245.117188 156.308594 C 244.707031 156.390625 244.289062 156.433594 243.867188 156.433594 C 243.445312 156.433594 243.027344 156.390625 242.613281 156.308594 C 242.199219 156.226562 241.796875 156.105469 241.40625 155.945312 C 241.015625 155.78125 240.648438 155.585938 240.296875 155.351562 C 239.945312 155.117188 239.621094 154.847656 239.320312 154.550781 C 239.023438 154.253906 238.757812 153.929688 238.523438 153.578125 C 238.289062 153.226562 238.089844 152.855469 237.929688 152.46875 C 237.769531 152.078125 237.644531 151.675781 237.5625 151.261719 C 237.480469 150.847656 237.441406 150.429688 237.441406 150.007812 C 237.441406 149.585938 237.480469 149.167969 237.5625 148.753906 C 237.644531 148.339844 237.769531 147.941406 237.929688 147.550781 C 238.089844 147.160156 238.289062 146.789062 238.523438 146.4375 C 238.757812 146.089844 239.023438 145.765625 239.320312 145.464844 C 239.621094 145.167969 239.945312 144.902344 240.296875 144.667969 C 240.648438 144.433594 241.015625 144.234375 241.40625 144.074219 C 241.796875 143.910156 242.199219 143.789062 242.613281 143.707031 C 243.027344 143.625 243.445312 143.585938 243.867188 143.585938 C 244.289062 143.585938 244.707031 143.625 245.117188 143.707031 C 245.53125 143.789062 245.933594 143.910156 246.324219 144.074219 C 246.714844 144.234375 247.085938 144.433594 247.433594 144.667969 C 247.785156 144.902344 248.109375 145.167969 248.410156 145.464844 C 248.707031 145.765625 248.972656 146.089844 249.207031 146.4375 C 249.441406 146.789062 249.640625 147.160156 249.800781 147.550781 C 249.964844 147.941406 250.085938 148.339844 250.167969 148.753906 C 250.25 149.167969 250.289062 149.585938 250.289062 150.007812 Z M 250.289062 150.007812 " fill-opacity="1" fill-rule="nonzero"/><path fill="#2280c3" d="M 229.324219 166.261719 C 229.324219 166.683594 229.28125 167.101562 229.199219 167.515625 C 229.117188 167.929688 228.996094 168.332031 228.832031 168.722656 C 228.671875 169.109375 228.472656 169.480469 228.238281 169.832031 C 228.003906 170.183594 227.738281 170.507812 227.441406 170.804688 C 227.140625 171.101562 226.816406 171.371094 226.46875 171.605469 C 226.117188 171.839844 225.746094 172.035156 225.355469 172.199219 C 224.964844 172.359375 224.5625 172.480469 224.152344 172.5625 C 223.738281 172.644531 223.320312 172.6875 222.898438 172.6875 C 222.476562 172.6875 222.058594 172.644531 221.644531 172.5625 C 221.230469 172.480469 220.828125 172.359375 220.4375 172.199219 C 220.046875 172.035156 219.679688 171.839844 219.328125 171.605469 C 218.976562 171.371094 218.652344 171.101562 218.355469 170.804688 C 218.054688 170.507812 217.789062 170.183594 217.554688 169.832031 C 217.320312 169.480469 217.121094 169.109375 216.960938 168.722656 C 216.800781 168.332031 216.675781 167.929688 216.59375 167.515625 C 216.511719 167.101562 216.472656 166.683594 216.472656 166.261719 C 216.472656 165.839844 216.511719 165.421875 216.59375 165.007812 C 216.675781 164.59375 216.800781 164.195312 216.960938 163.804688 C 217.121094 163.414062 217.320312 163.042969 217.554688 162.691406 C 217.789062 162.34375 218.054688 162.019531 218.355469 161.71875 C 218.652344 161.421875 218.976562 161.15625 219.328125 160.921875 C 219.679688 160.6875 220.046875 160.488281 220.4375 160.328125 C 220.828125 160.164062 221.230469 160.042969 221.644531 159.960938 C 222.058594 159.878906 222.476562 159.839844 222.898438 159.839844 C 223.320312 159.839844 223.738281 159.878906 224.152344 159.960938 C 224.5625 160.042969 224.964844 160.164062 225.355469 160.328125 C 225.746094 160.488281 226.117188 160.6875 226.46875 160.921875 C 226.816406 161.15625 227.140625 161.421875 227.441406 161.71875 C 227.738281 162.019531 228.003906 162.34375 228.238281 162.691406 C 228.472656 163.042969 228.671875 163.414062 228.832031 163.804688 C 228.996094 164.195312 229.117188 164.59375 229.199219 165.007812 C 229.28125 165.421875 229.324219 165.839844 229.324219 166.261719 Z M 229.324219 166.261719 " fill-opacity="1" fill-rule="nonzero"/><path fill="#2280c3" d="M 247.472656 180.269531 C 247.472656 180.691406 247.433594 181.109375 247.347656 181.523438 C 247.265625 181.9375 247.144531 182.339844 246.984375 182.726562 C 246.824219 183.117188 246.625 183.488281 246.390625 183.839844 C 246.15625 184.191406 245.890625 184.515625 245.589844 184.8125 C 245.292969 185.109375 244.96875 185.378906 244.617188 185.613281 C 244.265625 185.847656 243.894531 186.042969 243.507812 186.207031 C 243.117188 186.367188 242.714844 186.488281 242.300781 186.570312 C 241.886719 186.652344 241.46875 186.695312 241.046875 186.695312 C 240.625 186.695312 240.207031 186.652344 239.792969 186.570312 C 239.378906 186.488281 238.980469 186.367188 238.589844 186.207031 C 238.199219 186.042969 237.828125 185.847656 237.476562 185.613281 C 237.128906 185.378906 236.800781 185.109375 236.503906 184.8125 C 236.207031 184.515625 235.941406 184.191406 235.707031 183.839844 C 235.472656 183.488281 235.273438 183.117188 235.113281 182.726562 C 234.949219 182.339844 234.828125 181.9375 234.746094 181.523438 C 234.664062 181.109375 234.621094 180.691406 234.621094 180.269531 C 234.621094 179.847656 234.664062 179.429688 234.746094 179.015625 C 234.828125 178.601562 234.949219 178.199219 235.113281 177.8125 C 235.273438 177.421875 235.472656 177.050781 235.707031 176.699219 C 235.941406 176.351562 236.207031 176.027344 236.503906 175.726562 C 236.800781 175.429688 237.128906 175.164062 237.476562 174.929688 C 237.828125 174.695312 238.199219 174.496094 238.589844 174.335938 C 238.980469 174.171875 239.378906 174.050781 239.792969 173.96875 C 240.207031 173.886719 240.625 173.84375 241.046875 173.84375 C 241.46875 173.84375 241.886719 173.886719 242.300781 173.96875 C 242.714844 174.050781 243.117188 174.171875 243.507812 174.335938 C 243.894531 174.496094 244.265625 174.695312 244.617188 174.929688 C 244.96875 175.164062 245.292969 175.429688 245.589844 175.726562 C 245.890625 176.027344 246.15625 176.351562 246.390625 176.699219 C 246.625 177.050781 246.824219 177.421875 246.984375 177.8125 C 247.144531 178.199219 247.265625 178.601562 247.347656 179.015625 C 247.433594 179.429688 247.472656 179.847656 247.472656 180.269531 Z M 247.472656 180.269531 " fill-opacity="1" fill-rule="nonzero"/><path fill="#2280c3" d="M 138.519531 180.269531 C 138.519531 180.691406 138.476562 181.109375 138.394531 181.523438 C 138.3125 181.9375 138.191406 182.339844 138.03125 182.726562 C 137.867188 183.117188 137.671875 183.488281 137.4375 183.839844 C 137.203125 184.191406 136.9375 184.515625 136.636719 184.8125 C 136.339844 185.109375 136.015625 185.378906 135.664062 185.613281 C 135.3125 185.847656 134.941406 186.042969 134.550781 186.207031 C 134.164062 186.367188 133.761719 186.488281 133.347656 186.570312 C 132.933594 186.652344 132.515625 186.695312 132.09375 186.695312 C 131.671875 186.695312 131.253906 186.652344 130.839844 186.570312 C 130.425781 186.488281 130.023438 186.367188 129.636719 186.207031 C 129.246094 186.042969 128.875 185.847656 128.523438 185.613281 C 128.171875 185.378906 127.847656 185.109375 127.550781 184.8125 C 127.253906 184.515625 126.984375 184.191406 126.75 183.839844 C 126.515625 183.488281 126.320312 183.117188 126.15625 182.726562 C 125.996094 182.339844 125.875 181.9375 125.792969 181.523438 C 125.710938 181.109375 125.667969 180.691406 125.667969 180.269531 C 125.667969 179.847656 125.710938 179.429688 125.792969 179.015625 C 125.875 178.601562 125.996094 178.199219 126.15625 177.8125 C 126.320312 177.421875 126.515625 177.050781 126.75 176.699219 C 126.984375 176.351562 127.253906 176.027344 127.550781 175.726562 C 127.847656 175.429688 128.171875 175.164062 128.523438 174.929688 C 128.875 174.695312 129.246094 174.496094 129.636719 174.335938 C 130.023438 174.171875 130.425781 174.050781 130.839844 173.96875 C 131.253906 173.886719 131.671875 173.84375 132.09375 173.84375 C 132.515625 173.84375 132.933594 173.886719 133.347656 173.96875 C 133.761719 174.050781 134.164062 174.171875 134.550781 174.335938 C 134.941406 174.496094 135.3125 174.695312 135.664062 174.929688 C 136.015625 175.164062 136.339844 175.429688 136.636719 175.726562 C 136.9375 176.027344 137.203125 176.351562 137.4375 176.699219 C 137.671875 177.050781 137.867188 177.421875 138.03125 177.8125 C 138.191406 178.199219 138.3125 178.601562 138.394531 179.015625 C 138.476562 179.429688 138.519531 179.847656 138.519531 180.269531 Z M 138.519531 180.269531 " fill-opacity="1" fill-rule="nonzero"/><path fill="#2280c3" d="M 134.160156 150.851562 C 134.160156 151.273438 134.117188 151.691406 134.035156 152.105469 C 133.953125 152.519531 133.832031 152.921875 133.671875 153.3125 C 133.507812 153.699219 133.3125 154.070312 133.078125 154.421875 C 132.84375 154.773438 132.578125 155.097656 132.277344 155.394531 C 131.980469 155.691406 131.65625 155.960938 131.304688 156.195312 C 130.953125 156.429688 130.582031 156.625 130.195312 156.789062 C 129.804688 156.949219 129.402344 157.070312 128.988281 157.152344 C 128.574219 157.234375 128.15625 157.277344 127.734375 157.277344 C 127.3125 157.277344 126.894531 157.234375 126.480469 157.152344 C 126.066406 157.070312 125.664062 156.949219 125.277344 156.789062 C 124.886719 156.625 124.515625 156.429688 124.164062 156.195312 C 123.8125 155.960938 123.488281 155.691406 123.191406 155.394531 C 122.894531 155.097656 122.625 154.773438 122.390625 154.421875 C 122.15625 154.070312 121.960938 153.699219 121.796875 153.3125 C 121.636719 152.921875 121.515625 152.519531 121.433594 152.105469 C 121.351562 151.691406 121.308594 151.273438 121.308594 150.851562 C 121.308594 150.429688 121.351562 150.011719 121.433594 149.597656 C 121.515625 149.183594 121.636719 148.785156 121.796875 148.394531 C 121.960938 148.003906 122.15625 147.632812 122.390625 147.285156 C 122.625 146.933594 122.894531 146.609375 123.191406 146.308594 C 123.488281 146.011719 123.8125 145.746094 124.164062 145.511719 C 124.515625 145.277344 124.886719 145.078125 125.277344 144.917969 C 125.664062 144.753906 126.066406 144.632812 126.480469 144.550781 C 126.894531 144.46875 127.3125 144.429688 127.734375 144.429688 C 128.15625 144.429688 128.574219 144.46875 128.988281 144.550781 C 129.402344 144.632812 129.804688 144.753906 130.195312 144.917969 C 130.582031 145.078125 130.953125 145.277344 131.304688 145.511719 C 131.65625 145.746094 131.980469 146.011719 132.277344 146.308594 C 132.578125 146.609375 132.84375 146.933594 133.078125 147.28125 C 133.3125 147.632812 133.507812 148.003906 133.671875 148.394531 C 133.832031 148.785156 133.953125 149.183594 134.035156 149.597656 C 134.117188 150.011719 134.160156 150.429688 134.160156 150.851562 Z M 134.160156 150.851562 " fill-opacity="1" fill-rule="nonzero"/><path fill="#2280c3" d="M 156.476562 128.070312 C 156.476562 128.492188 156.433594 128.910156 156.351562 129.324219 C 156.269531 129.734375 156.148438 130.136719 155.988281 130.527344 C 155.824219 130.917969 155.628906 131.289062 155.394531 131.636719 C 155.160156 131.988281 154.894531 132.3125 154.59375 132.613281 C 154.296875 132.910156 153.972656 133.175781 153.621094 133.410156 C 153.269531 133.644531 152.898438 133.84375 152.511719 134.003906 C 152.121094 134.164062 151.71875 134.289062 151.304688 134.371094 C 150.890625 134.453125 150.472656 134.492188 150.050781 134.492188 C 149.628906 134.492188 149.210938 134.453125 148.796875 134.371094 C 148.382812 134.289062 147.980469 134.164062 147.59375 134.003906 C 147.203125 133.84375 146.832031 133.644531 146.480469 133.410156 C 146.128906 133.175781 145.804688 132.910156 145.507812 132.613281 C 145.210938 132.3125 144.941406 131.988281 144.707031 131.636719 C 144.472656 131.289062 144.277344 130.917969 144.113281 130.527344 C 143.953125 130.136719 143.832031 129.734375 143.75 129.324219 C 143.667969 128.910156 143.625 128.492188 143.625 128.070312 C 143.625 127.648438 143.667969 127.230469 143.75 126.816406 C 143.832031 126.402344 143.953125 126 144.113281 125.609375 C 144.277344 125.222656 144.472656 124.851562 144.707031 124.5 C 144.941406 124.148438 145.210938 123.824219 145.507812 123.527344 C 145.804688 123.226562 146.128906 122.960938 146.480469 122.726562 C 146.832031 122.492188 147.203125 122.296875 147.59375 122.132812 C 147.980469 121.972656 148.382812 121.851562 148.796875 121.769531 C 149.210938 121.6875 149.628906 121.644531 150.050781 121.644531 C 150.472656 121.644531 150.890625 121.6875 151.304688 121.769531 C 151.71875 121.851562 152.121094 121.972656 152.511719 122.132812 C 152.898438 122.296875 153.269531 122.492188 153.621094 122.726562 C 153.972656 122.960938 154.296875 123.226562 154.59375 123.527344 C 154.894531 123.824219 155.160156 124.148438 155.394531 124.5 C 155.628906 124.851562 155.824219 125.222656 155.988281 125.609375 C 156.148438 126 156.269531 126.402344 156.351562 126.816406 C 156.433594 127.230469 156.476562 127.648438 156.476562 128.070312 Z M 156.476562 128.070312 " fill-opacity="1" fill-rule="nonzero"/><path fill="#2280c3" d="M 176.03125 106.5625 C 176.03125 106.984375 175.988281 107.402344 175.90625 107.816406 C 175.824219 108.230469 175.703125 108.632812 175.539062 109.019531 C 175.378906 109.410156 175.179688 109.78125 174.945312 110.132812 C 174.710938 110.480469 174.445312 110.808594 174.148438 111.105469 C 173.847656 111.402344 173.523438 111.667969 173.175781 111.902344 C 172.824219 112.136719 172.453125 112.335938 172.0625 112.496094 C 171.671875 112.660156 171.273438 112.78125 170.859375 112.863281 C 170.445312 112.945312 170.027344 112.988281 169.605469 112.988281 C 169.183594 112.988281 168.765625 112.945312 168.351562 112.863281 C 167.9375 112.78125 167.535156 112.660156 167.144531 112.496094 C 166.753906 112.335938 166.386719 112.136719 166.035156 111.902344 C 165.683594 111.667969 165.359375 111.402344 165.0625 111.105469 C 164.761719 110.808594 164.496094 110.480469 164.261719 110.132812 C 164.027344 109.78125 163.828125 109.410156 163.667969 109.019531 C 163.507812 108.632812 163.386719 108.230469 163.300781 107.816406 C 163.21875 107.402344 163.179688 106.984375 163.179688 106.5625 C 163.179688 106.140625 163.21875 105.722656 163.300781 105.308594 C 163.386719 104.894531 163.507812 104.492188 163.667969 104.105469 C 163.828125 103.714844 164.027344 103.34375 164.261719 102.992188 C 164.496094 102.640625 164.761719 102.316406 165.0625 102.019531 C 165.359375 101.722656 165.683594 101.453125 166.035156 101.21875 C 166.386719 100.988281 166.753906 100.789062 167.144531 100.628906 C 167.535156 100.464844 167.9375 100.34375 168.351562 100.261719 C 168.765625 100.179688 169.183594 100.136719 169.605469 100.136719 C 170.027344 100.136719 170.445312 100.179688 170.859375 100.261719 C 171.273438 100.34375 171.671875 100.464844 172.0625 100.628906 C 172.453125 100.789062 172.824219 100.988281 173.175781 101.21875 C 173.523438 101.453125 173.847656 101.722656 174.148438 102.019531 C 174.445312 102.316406 174.710938 102.640625 174.945312 102.992188 C 175.179688 103.34375 175.378906 103.714844 175.539062 104.105469 C 175.703125 104.492188 175.824219 104.894531 175.90625 105.308594 C 175.988281 105.722656 176.03125 106.140625 176.03125 106.5625 Z M 176.03125 106.5625 " fill-opacity="1" fill-rule="nonzero"/><path fill="#2280c3" d="M 136.050781 103.371094 C 136.050781 103.792969 136.007812 104.210938 135.925781 104.625 C 135.84375 105.039062 135.722656 105.441406 135.5625 105.828125 C 135.398438 106.21875 135.203125 106.589844 134.96875 106.941406 C 134.734375 107.292969 134.464844 107.617188 134.167969 107.914062 C 133.871094 108.210938 133.546875 108.476562 133.195312 108.710938 C 132.84375 108.945312 132.472656 109.144531 132.082031 109.304688 C 131.695312 109.46875 131.292969 109.589844 130.878906 109.671875 C 130.464844 109.753906 130.046875 109.796875 129.625 109.796875 C 129.203125 109.796875 128.785156 109.753906 128.371094 109.671875 C 127.957031 109.589844 127.554688 109.46875 127.164062 109.304688 C 126.777344 109.144531 126.40625 108.945312 126.054688 108.710938 C 125.703125 108.476562 125.378906 108.210938 125.082031 107.914062 C 124.78125 107.617188 124.515625 107.292969 124.28125 106.941406 C 124.046875 106.589844 123.851562 106.21875 123.6875 105.828125 C 123.527344 105.441406 123.40625 105.039062 123.324219 104.625 C 123.242188 104.210938 123.199219 103.792969 123.199219 103.371094 C 123.199219 102.949219 123.242188 102.53125 123.324219 102.117188 C 123.40625 101.703125 123.527344 101.300781 123.6875 100.914062 C 123.851562 100.523438 124.046875 100.152344 124.28125 99.800781 C 124.515625 99.453125 124.78125 99.125 125.082031 98.828125 C 125.378906 98.53125 125.703125 98.265625 126.054688 98.03125 C 126.40625 97.796875 126.777344 97.597656 127.164062 97.4375 C 127.554688 97.273438 127.957031 97.152344 128.371094 97.070312 C 128.785156 96.988281 129.203125 96.945312 129.625 96.945312 C 130.046875 96.945312 130.464844 96.988281 130.878906 97.070312 C 131.292969 97.152344 131.695312 97.273438 132.082031 97.4375 C 132.472656 97.597656 132.84375 97.796875 133.195312 98.03125 C 133.546875 98.265625 133.871094 98.53125 134.167969 98.828125 C 134.464844 99.125 134.734375 99.453125 134.96875 99.800781 C 135.203125 100.152344 135.398438 100.523438 135.5625 100.914062 C 135.722656 101.300781 135.84375 101.703125 135.925781 102.117188 C 136.007812 102.53125 136.050781 102.949219 136.050781 103.371094 Z M 136.050781 103.371094 " fill-opacity="1" fill-rule="nonzero"/><g fill="#272626" fill-opacity="1"><g transform="translate(30.408855, 314.532284)"><g><path d="M 4.015625 0 L 4.015625 -34 L 11.671875 -34 L 11.671875 0 Z M 4.015625 0 "/></g></g></g><g fill="#272626" fill-opacity="1"><g transform="translate(46.102023, 314.532284)"><g><path d="M 3.390625 0 L 3.390625 -25.859375 L 9.640625 -25.859375 L 10.171875 -22.578125 L 10.375 -22.578125 C 11.488281 -23.617188 12.703125 -24.53125 14.015625 -25.3125 C 15.335938 -26.09375 16.890625 -26.484375 18.671875 -26.484375 C 21.484375 -26.484375 23.523438 -25.5625 24.796875 -23.71875 C 26.066406 -21.875 26.703125 -19.320312 26.703125 -16.0625 L 26.703125 0 L 19.03125 0 L 19.03125 -15.0625 C 19.03125 -16.945312 18.773438 -18.234375 18.265625 -18.921875 C 17.765625 -19.617188 16.957031 -19.96875 15.84375 -19.96875 C 14.875 -19.96875 14.039062 -19.75 13.34375 -19.3125 C 12.65625 -18.882812 11.890625 -18.269531 11.046875 -17.46875 L 11.046875 0 Z M 3.390625 0 "/></g></g></g><g fill="#272626" fill-opacity="1"><g transform="translate(75.92426, 314.532284)"><g><path d="M 13.34375 0.625 C 11.75 0.625 10.382812 0.382812 9.25 -0.09375 C 8.125 -0.582031 7.203125 -1.257812 6.484375 -2.125 C 5.773438 -3 5.253906 -4.050781 4.921875 -5.28125 C 4.597656 -6.519531 4.4375 -7.890625 4.4375 -9.390625 L 4.4375 -19.859375 L 0.890625 -19.859375 L 0.890625 -25.546875 L 4.84375 -25.859375 L 5.734375 -32.75 L 12.09375 -32.75 L 12.09375 -25.859375 L 18.296875 -25.859375 L 18.296875 -19.859375 L 12.09375 -19.859375 L 12.09375 -9.484375 C 12.09375 -8.023438 12.394531 -6.972656 13 -6.328125 C 13.613281 -5.691406 14.425781 -5.375 15.4375 -5.375 C 15.851562 -5.375 16.273438 -5.425781 16.703125 -5.53125 C 17.140625 -5.632812 17.535156 -5.753906 17.890625 -5.890625 L 19.078125 -0.3125 C 18.390625 -0.101562 17.570312 0.101562 16.625 0.3125 C 15.6875 0.519531 14.59375 0.625 13.34375 0.625 Z M 13.34375 0.625 "/></g></g></g><g fill="#272626" fill-opacity="1"><g transform="translate(95.892642, 314.532284)"><g><path d="M 14.96875 0.625 C 13.125 0.625 11.398438 0.320312 9.796875 -0.28125 C 8.203125 -0.894531 6.8125 -1.78125 5.625 -2.9375 C 4.445312 -4.101562 3.523438 -5.519531 2.859375 -7.1875 C 2.203125 -8.863281 1.875 -10.78125 1.875 -12.9375 C 1.875 -15.019531 2.222656 -16.898438 2.921875 -18.578125 C 3.617188 -20.265625 4.53125 -21.691406 5.65625 -22.859375 C 6.789062 -24.023438 8.085938 -24.921875 9.546875 -25.546875 C 11.003906 -26.171875 12.515625 -26.484375 14.078125 -26.484375 C 15.921875 -26.484375 17.523438 -26.171875 18.890625 -25.546875 C 20.265625 -24.921875 21.410156 -24.050781 22.328125 -22.9375 C 23.253906 -21.820312 23.941406 -20.507812 24.390625 -19 C 24.847656 -17.488281 25.078125 -15.847656 25.078125 -14.078125 C 25.078125 -13.378906 25.039062 -12.71875 24.96875 -12.09375 C 24.90625 -11.46875 24.835938 -11 24.765625 -10.6875 L 9.28125 -10.6875 C 9.625 -8.8125 10.394531 -7.429688 11.59375 -6.546875 C 12.800781 -5.660156 14.269531 -5.21875 16 -5.21875 C 17.84375 -5.21875 19.707031 -5.789062 21.59375 -6.9375 L 24.140625 -2.296875 C 22.816406 -1.390625 21.347656 -0.675781 19.734375 -0.15625 C 18.117188 0.363281 16.53125 0.625 14.96875 0.625 Z M 9.234375 -15.75 L 18.5625 -15.75 C 18.5625 -17.207031 18.226562 -18.382812 17.5625 -19.28125 C 16.90625 -20.1875 15.796875 -20.640625 14.234375 -20.640625 C 13.015625 -20.640625 11.941406 -20.238281 11.015625 -19.4375 C 10.097656 -18.644531 9.503906 -17.414062 9.234375 -15.75 Z M 9.234375 -15.75 "/></g></g></g><g fill="#272626" fill-opacity="1"><g transform="translate(122.899495, 314.532284)"><g><path d="M 10.421875 0.625 C 9.109375 0.625 8 0.414062 7.09375 0 C 6.1875 -0.414062 5.460938 -1 4.921875 -1.75 C 4.390625 -2.5 4 -3.398438 3.75 -4.453125 C 3.507812 -5.515625 3.390625 -6.707031 3.390625 -8.03125 L 3.390625 -36.546875 L 11.046875 -36.546875 L 11.046875 -7.71875 C 11.046875 -6.914062 11.191406 -6.359375 11.484375 -6.046875 C 11.785156 -5.734375 12.09375 -5.578125 12.40625 -5.578125 C 12.582031 -5.578125 12.726562 -5.578125 12.84375 -5.578125 C 12.96875 -5.578125 13.132812 -5.613281 13.34375 -5.6875 L 14.28125 0 C 13.863281 0.175781 13.332031 0.320312 12.6875 0.4375 C 12.050781 0.5625 11.296875 0.625 10.421875 0.625 Z M 10.421875 0.625 "/></g></g></g><g fill="#272626" fill-opacity="1"><g transform="translate(137.810608, 314.532284)"><g><path d="M 10.421875 0.625 C 9.109375 0.625 8 0.414062 7.09375 0 C 6.1875 -0.414062 5.460938 -1 4.921875 -1.75 C 4.390625 -2.5 4 -3.398438 3.75 -4.453125 C 3.507812 -5.515625 3.390625 -6.707031 3.390625 -8.03125 L 3.390625 -36.546875 L 11.046875 -36.546875 L 11.046875 -7.71875 C 11.046875 -6.914062 11.191406 -6.359375 11.484375 -6.046875 C 11.785156 -5.734375 12.09375 -5.578125 12.40625 -5.578125 C 12.582031 -5.578125 12.726562 -5.578125 12.84375 -5.578125 C 12.96875 -5.578125 13.132812 -5.613281 13.34375 -5.6875 L 14.28125 0 C 13.863281 0.175781 13.332031 0.320312 12.6875 0.4375 C 12.050781 0.5625 11.296875 0.625 10.421875 0.625 Z M 10.421875 0.625 "/></g></g></g><g fill="#272626" fill-opacity="1"><g transform="translate(152.721721, 314.532284)"><g><path d="M 3.390625 0 L 3.390625 -25.859375 L 11.046875 -25.859375 L 11.046875 0 Z M 7.203125 -29.671875 C 5.910156 -29.671875 4.847656 -30.039062 4.015625 -30.78125 C 3.179688 -31.53125 2.765625 -32.5 2.765625 -33.6875 C 2.765625 -34.863281 3.179688 -35.816406 4.015625 -36.546875 C 4.847656 -37.273438 5.910156 -37.640625 7.203125 -37.640625 C 8.515625 -37.640625 9.578125 -37.273438 10.390625 -36.546875 C 11.210938 -35.816406 11.625 -34.863281 11.625 -33.6875 C 11.625 -32.5 11.210938 -31.53125 10.390625 -30.78125 C 9.578125 -30.039062 8.515625 -29.671875 7.203125 -29.671875 Z M 7.203125 -29.671875 "/></g></g></g><g fill="#272626" fill-opacity="1"><g transform="translate(167.111475, 314.532284)"><g><path d="M 3.390625 0 L 3.390625 -25.859375 L 9.640625 -25.859375 L 10.171875 -22.53125 L 10.375 -22.53125 C 11.457031 -23.601562 12.601562 -24.53125 13.8125 -25.3125 C 15.03125 -26.09375 16.492188 -26.484375 18.203125 -26.484375 C 20.035156 -26.484375 21.515625 -26.109375 22.640625 -25.359375 C 23.773438 -24.617188 24.675781 -23.550781 25.34375 -22.15625 C 26.488281 -23.34375 27.695312 -24.359375 28.96875 -25.203125 C 30.238281 -26.054688 31.738281 -26.484375 33.46875 -26.484375 C 36.25 -26.484375 38.289062 -25.550781 39.59375 -23.6875 C 40.90625 -21.832031 41.5625 -19.289062 41.5625 -16.0625 L 41.5625 0 L 33.890625 0 L 33.890625 -15.0625 C 33.890625 -16.945312 33.632812 -18.234375 33.125 -18.921875 C 32.625 -19.617188 31.816406 -19.96875 30.703125 -19.96875 C 29.421875 -19.96875 27.945312 -19.132812 26.28125 -17.46875 L 26.28125 0 L 18.609375 0 L 18.609375 -15.0625 C 18.609375 -16.945312 18.359375 -18.234375 17.859375 -18.921875 C 17.359375 -19.617188 16.550781 -19.96875 15.4375 -19.96875 C 14.113281 -19.96875 12.648438 -19.132812 11.046875 -17.46875 L 11.046875 0 Z M 3.390625 0 "/></g></g></g><g fill="#272626" fill-opacity="1"><g transform="translate(211.792697, 314.532284)"><g><path d="M 9.90625 0.625 C 8.726562 0.625 7.660156 0.421875 6.703125 0.015625 C 5.742188 -0.378906 4.929688 -0.929688 4.265625 -1.640625 C 3.609375 -2.359375 3.097656 -3.1875 2.734375 -4.125 C 2.367188 -5.0625 2.1875 -6.085938 2.1875 -7.203125 C 2.1875 -9.910156 3.332031 -12.023438 5.625 -13.546875 C 7.925781 -15.078125 11.628906 -16.109375 16.734375 -16.640625 C 16.671875 -17.785156 16.332031 -18.695312 15.71875 -19.375 C 15.113281 -20.050781 14.097656 -20.390625 12.671875 -20.390625 C 11.554688 -20.390625 10.453125 -20.179688 9.359375 -19.765625 C 8.265625 -19.347656 7.09375 -18.773438 5.84375 -18.046875 L 3.078125 -23.09375 C 4.742188 -24.101562 6.488281 -24.921875 8.3125 -25.546875 C 10.132812 -26.171875 12.070312 -26.484375 14.125 -26.484375 C 17.46875 -26.484375 20.015625 -25.535156 21.765625 -23.640625 C 23.523438 -21.742188 24.40625 -18.800781 24.40625 -14.8125 L 24.40625 0 L 18.140625 0 L 17.625 -2.65625 L 17.421875 -2.65625 C 16.304688 -1.6875 15.140625 -0.894531 13.921875 -0.28125 C 12.703125 0.320312 11.363281 0.625 9.90625 0.625 Z M 12.515625 -5.3125 C 13.378906 -5.3125 14.125 -5.503906 14.75 -5.890625 C 15.375 -6.273438 16.035156 -6.816406 16.734375 -7.515625 L 16.734375 -12.046875 C 14.023438 -11.660156 12.148438 -11.101562 11.109375 -10.375 C 10.066406 -9.644531 9.546875 -8.773438 9.546875 -7.765625 C 9.546875 -6.929688 9.8125 -6.3125 10.34375 -5.90625 C 10.882812 -5.507812 11.609375 -5.3125 12.515625 -5.3125 Z M 12.515625 -5.3125 "/></g></g></g><g fill="#272626" fill-opacity="1"><g transform="translate(239.268781, 314.532284)"><g><path d="M 3.390625 0 L 3.390625 -25.859375 L 9.640625 -25.859375 L 10.171875 -21.328125 L 10.375 -21.328125 C 11.3125 -23.097656 12.441406 -24.398438 13.765625 -25.234375 C 15.085938 -26.066406 16.410156 -26.484375 17.734375 -26.484375 C 18.460938 -26.484375 19.0625 -26.441406 19.53125 -26.359375 C 20 -26.273438 20.421875 -26.144531 20.796875 -25.96875 L 19.546875 -19.34375 C 19.066406 -19.476562 18.617188 -19.582031 18.203125 -19.65625 C 17.785156 -19.726562 17.296875 -19.765625 16.734375 -19.765625 C 15.765625 -19.765625 14.75 -19.414062 13.6875 -18.71875 C 12.625 -18.019531 11.742188 -16.785156 11.046875 -15.015625 L 11.046875 0 Z M 3.390625 0 "/></g></g></g><g fill="#272626" fill-opacity="1"><g transform="translate(260.019206, 314.532284)"><g><path d="M 3.390625 0 L 3.390625 -36.546875 L 10.84375 -36.546875 L 10.84375 -15.59375 L 11.046875 -15.59375 L 19.234375 -25.859375 L 27.578125 -25.859375 L 18.515625 -15.21875 L 28.265625 0 L 19.96875 0 L 14.125 -10.0625 L 10.84375 -6.359375 L 10.84375 0 Z M 3.390625 0 "/></g></g></g><g fill="#272626" fill-opacity="1"><g transform="translate(288.590157, 314.532284)"><g/></g></g><g fill="#272626" fill-opacity="1"><g transform="translate(299.01751, 314.532284)"><g><path d="M 12 -17.203125 L 11.15625 -14.078125 L 18.40625 -14.078125 L 17.625 -17.203125 C 17.132812 -18.910156 16.660156 -20.71875 16.203125 -22.625 C 15.753906 -24.539062 15.304688 -26.382812 14.859375 -28.15625 L 14.65625 -28.15625 C 14.238281 -26.34375 13.8125 -24.488281 13.375 -22.59375 C 12.9375 -20.707031 12.476562 -18.910156 12 -17.203125 Z M -0.3125 0 L 10.328125 -34 L 19.546875 -34 L 30.1875 0 L 22.0625 0 L 19.96875 -8.078125 L 9.59375 -8.078125 L 7.515625 0 Z M -0.3125 0 "/></g></g></g><g fill="#272626" fill-opacity="1"><g transform="translate(328.891898, 314.532284)"><g><path d="M 4.015625 0 L 4.015625 -34 L 11.671875 -34 L 11.671875 0 Z M 4.015625 0 "/></g></g></g></svg>