<svg xmlns="http://www.w3.org/2000/svg" xmlns:xlink="http://www.w3.org/1999/xlink" width="3000" zoomAndPan="magnify" viewBox="0 0 2250 749.999995" height="1000" preserveAspectRatio="xMidYMid meet" version="1.0"><defs><g/><clipPath id="7b9eb270de"><path d="M 0 92.597656 L 939.042969 92.597656 L 939.042969 654 L 0 654 Z M 0 92.597656 " clip-rule="nonzero"/></clipPath></defs><g clip-path="url(#7b9eb270de)"><path fill="#ffffff" d="M -320.414062 -168.605469 C 131.382812 -168.605469 583.195312 -168.605469 1034.992188 -168.605469 M 78.835938 370.972656 C 79.695312 453.734375 108.390625 521.992188 166.234375 576.972656 C 224.410156 632.273438 294.800781 658.121094 374.695312 653 C 514.339844 644.050781 633.054688 532.171875 634.933594 377.5 C 635.859375 301.074219 609.019531 234.234375 554.667969 179.917969 C 493.835938 119.113281 419.699219 92.402344 333.964844 98.796875 C 266.816406 103.8125 209.226562 130.824219 161.667969 178.101562 C 107.597656 231.839844 80.792969 297.609375 78.835938 370.972656 Z M 78.835938 370.972656 " fill-opacity="1" fill-rule="nonzero"/></g><path fill="#2382c5" d="M 78.835938 370.972656 C 80.78125 297.609375 107.585938 231.851562 161.667969 178.101562 C 209.226562 130.824219 266.820312 103.8125 333.964844 98.796875 C 419.699219 92.402344 493.835938 119.113281 554.667969 179.917969 C 609.019531 234.234375 635.859375 301.074219 634.933594 377.5 C 633.054688 532.171875 514.339844 644.050781 374.695312 653 C 294.800781 658.121094 224.410156 632.257812 166.234375 576.972656 C 108.390625 521.980469 79.695312 453.734375 78.835938 370.972656 Z M 358.386719 643.179688 C 434.164062 641.257812 500.824219 613.648438 553.742188 556.167969 C 606.476562 498.855469 629.214844 430.363281 623.246094 352.972656 C 618.230469 287.917969 592.074219 231.746094 545.523438 186.003906 C 487.003906 128.507812 415.980469 103.242188 334.335938 109.421875 C 270.140625 114.28125 214.824219 140.289062 169.410156 185.660156 C 113 242.003906 86.128906 310.871094 90.21875 390.46875 C 93.6875 458.105469 120.53125 516.472656 168.539062 564.265625 C 220.28125 615.78125 283.296875 641.601562 358.386719 643.203125 Z M 358.386719 643.179688 " fill-opacity="1" fill-rule="nonzero"/><path fill="#ffffff" d="M 358.386719 643.179688 C 283.296875 641.5625 220.292969 615.753906 168.539062 564.242188 C 120.53125 516.445312 93.6875 458.078125 90.21875 390.441406 C 86.128906 310.855469 113 241.992188 169.410156 185.632812 C 214.824219 140.277344 270.140625 114.265625 334.335938 109.398438 C 415.980469 103.214844 487.003906 128.484375 545.523438 185.976562 C 592.074219 231.722656 618.230469 287.90625 623.246094 352.945312 C 629.203125 430.335938 606.476562 498.84375 553.742188 556.140625 C 500.835938 613.625 434.179688 641.234375 358.386719 643.152344 Z M 262.078125 314.46875 L 291.359375 314.46875 L 291.359375 296.246094 L 271.277344 296.246094 C 272.8125 303.695312 267.441406 302.492188 263.191406 302.785156 C 261.949219 301.9375 260.359375 301.355469 259.511719 300.214844 C 248.511719 285.285156 234.230469 286.703125 226.355469 303.179688 C 222.621094 311.003906 229.78125 326.9375 241.578125 327.796875 C 251.980469 328.554688 258.507812 323.945312 262.066406 314.46875 Z M 395.648438 253.730469 L 395.648438 321.761719 L 414.207031 321.761719 C 414.207031 310.128906 414.046875 298.707031 414.246094 287.285156 C 414.457031 275.714844 415.039062 264.148438 415.460938 252.582031 C 422.914062 248.171875 424.160156 241.371094 423.578125 233.375 C 422.96875 224.996094 417.820312 218.816406 408.460938 216.605469 C 402.648438 215.242188 392.761719 219.820312 390.140625 224.851562 C 384.398438 235.890625 385.695312 244.164062 395.632812 253.746094 Z M 303.230469 380.6875 C 303.164062 383.109375 303.03125 385.519531 303.03125 387.941406 C 303.03125 426.707031 303.046875 465.488281 303.007812 504.257812 C 303.007812 512.925781 291.292969 519.902344 283.839844 515.785156 C 277.382812 512.222656 266.632812 514.5 261.933594 520.445312 C 257.472656 526.070312 258.625 536.75 264.289062 542.453125 C 269.070312 547.257812 280.410156 548.515625 284.964844 542.878906 C 289.558594 537.199219 294.589844 538.472656 299.949219 538.125 C 302.039062 537.996094 304.144531 537.53125 306.183594 537.027344 C 317.75 534.210938 325.585938 517.242188 325.5625 507.074219 C 325.46875 465 325.523438 422.921875 325.535156 380.847656 C 331.398438 376.480469 334.085938 370.828125 333.554688 363.351562 C 333.09375 356.8125 327.507812 347.507812 322.515625 346.277344 C 312.390625 343.773438 302.992188 347.425781 298.746094 355.089844 C 293.277344 364.9375 296.957031 372.984375 303.21875 380.6875 Z M 522.703125 248.464844 C 519.339844 254.421875 515.992188 260.375 512.5 266.597656 C 523.417969 276.472656 527.878906 288.847656 524.609375 304.1875 C 523.152344 303.65625 521.960938 303.273438 520.8125 302.796875 C 507.03125 297.066406 494.5625 306.304688 496.351562 321.140625 C 497.066406 327.136719 499.871094 332.101562 505.960938 334.324219 C 511.996094 336.535156 517.953125 335.25 521.65625 330.5 C 526.847656 323.828125 533.730469 323.867188 540.042969 325.402344 C 567.972656 332.179688 587.839844 357.3125 577.066406 390.191406 C 571.519531 407.132812 556.507812 419.523438 537.316406 419.125 C 524.621094 418.859375 511.914062 419.070312 499.355469 419.070312 L 499.355469 440.25 C 516.734375 440.25 533.703125 440.261719 550.660156 440.222656 C 551.941406 440.222656 553.226562 439.890625 554.496094 439.613281 C 572.378906 435.601562 585.351562 425.253906 594.152344 409.265625 C 607.324219 385.359375 607.03125 361.417969 594.125 337.710938 C 585.285156 321.472656 571.332031 310.804688 554.152344 304.492188 C 550.339844 303.085938 549.175781 301.101562 549.269531 297.527344 C 549.8125 278.285156 541.273438 262.71875 529.386719 248.503906 C 531.875 247.960938 534.5625 247.828125 536.828125 246.796875 C 545.3125 242.917969 545.761719 235.441406 545.335938 227.40625 C 544.953125 220.125 538.929688 212.410156 532.074219 211.296875 C 523.523438 209.910156 512.472656 215.320312 511.054688 222.667969 C 509.863281 228.886719 510.5 235.453125 510.3125 241.871094 C 499.023438 230.542969 485.402344 231.152344 472.167969 234.578125 C 471.054688 223.792969 471.664062 212.898438 468.605469 203.160156 C 460.1875 176.304688 442.1875 159.585938 413.382812 155.457031 C 394.90625 152.796875 378.878906 157.773438 364.582031 169.078125 C 361.710938 171.351562 360.214844 172.265625 356.972656 169.488281 C 346.753906 160.710938 334.546875 155.535156 321.285156 154.53125 C 288.632812 152.027344 262.359375 171.710938 252.589844 201.515625 C 249.359375 211.390625 248.894531 222.179688 247.148438 232.6875 C 230.511719 231.628906 213.144531 231.707031 197.671875 244.148438 C 201.296875 248.742188 205.070312 252.886719 208.0625 257.515625 C 210.085938 260.667969 211.664062 260.546875 214.851562 259.332031 C 234.734375 251.71875 253.6875 253.359375 271.714844 265.234375 C 278.292969 269.5625 285.085938 274.472656 292.496094 276.457031 C 303.789062 279.476562 310.328125 278.191406 313.847656 269.8125 C 315.632812 265.578125 316.257812 260.851562 317.40625 256.351562 C 318.386719 255.175781 319.367188 253.996094 320.332031 252.820312 C 326.050781 245.921875 325.496094 234.59375 319.789062 227.5 C 314.628906 221.09375 301.417969 220.152344 295.277344 224.429688 C 287.375 229.933594 287.175781 237.691406 287.53125 245.894531 C 283.351562 243.316406 279.101562 240.8125 275.011719 238.101562 C 273.964844 237.414062 272.734375 236.074219 272.683594 234.988281 C 272.445312 229.257812 272.296875 223.5 272.617188 217.785156 C 274.046875 191.128906 304.371094 170.054688 330.566406 180.921875 C 340.148438 184.894531 349.492188 196.605469 349.464844 204.613281 C 349.28125 309.613281 349.464844 414.597656 349.1875 519.597656 C 349.148438 533.429688 344.222656 546.28125 334.351562 556.417969 C 311.53125 579.859375 274.46875 579.023438 250.339844 556.21875 C 238.175781 544.730469 233.144531 530.371094 234.019531 513.390625 C 235.089844 492.664062 251.398438 473.046875 274.058594 472.042969 C 281.113281 471.722656 284.449219 468.492188 284.476562 461.558594 C 284.515625 445.238281 284.066406 428.894531 284.648438 412.601562 C 285.003906 402.554688 282.238281 393.976562 276.558594 385.996094 C 269.824219 376.546875 262.53125 366.328125 250.523438 365.203125 C 233.449219 363.613281 216.125 364.804688 198.796875 364.804688 L 198.796875 385.996094 C 209.914062 385.996094 220.691406 385.996094 231.449219 385.996094 C 248.539062 386.007812 261.972656 399.574219 261.988281 416.820312 C 261.988281 425.425781 261.683594 434.042969 262.105469 442.617188 C 262.34375 447.476562 260.1875 449.105469 256.125 451.023438 C 247.707031 455.007812 238.347656 458.582031 231.925781 464.90625 C 215.078125 481.503906 206.472656 501.675781 210.246094 526.214844 C 213.898438 550.039062 225.496094 568.398438 245.257812 581.964844 C 263.074219 594.191406 282.992188 598.269531 304.027344 596.230469 C 316.839844 594.988281 329.546875 591.558594 339.710938 582.929688 C 347.667969 576.179688 354.894531 568.570312 362.703125 561.078125 C 363.125 561.582031 364.027344 562.558594 364.832031 563.605469 C 365.480469 564.453125 365.945312 565.433594 366.605469 566.253906 C 381.207031 584.320312 400.226562 594.867188 423.257812 596.191406 C 445.019531 597.4375 464.769531 590.882812 482.238281 577.039062 C 501.222656 562.015625 511.957031 542.308594 513.066406 518.933594 C 514.363281 491.695312 502.042969 469.949219 477.964844 456.289062 C 460.703125 446.496094 442.238281 444.800781 424.53125 454.78125 C 405.773438 465.355469 396.070312 481.160156 398.109375 503.898438 C 400.054688 525.554688 420.769531 543.726562 442.320312 540.828125 C 453.714844 539.292969 460.292969 525.261719 454.363281 515.414062 C 449.308594 507.023438 437.515625 504.8125 428.339844 511.628906 C 421.195312 504.46875 419.789062 494.621094 424.703125 486.125 C 429.796875 477.308594 444.554688 470.375 453.332031 472.265625 C 476.085938 477.164062 488.976562 496.316406 488.527344 516.949219 C 487.757812 553.003906 454.273438 576.960938 421.378906 572.195312 C 389.863281 567.640625 373.726562 544.042969 373.277344 514.144531 C 372.828125 483.925781 373.1875 453.710938 373.1875 423.492188 C 373.1875 421.175781 373.1875 418.875 373.1875 416.425781 C 386.488281 416.425781 398.851562 416.808594 411.175781 416.238281 C 416.574219 415.988281 422.597656 414.957031 427.085938 412.230469 C 434.984375 407.425781 442.054688 401.191406 449.214844 395.246094 C 456.375 389.292969 463.773438 385.269531 473.730469 385.785156 C 487.757812 386.527344 501.855469 385.96875 515.476562 385.96875 L 515.476562 363.480469 C 496.046875 363.480469 476.652344 363.46875 457.261719 363.523438 C 456.03125 363.523438 454.628906 363.890625 453.609375 364.554688 C 445.746094 369.636719 437.621094 374.375 430.246094 380.09375 C 422.542969 386.074219 415.183594 392.71875 405.136719 393.738281 C 397.277344 394.53125 389.253906 393.539062 381.339844 394.015625 C 375.183594 394.386719 373.027344 392.773438 373.054688 386.113281 C 373.304688 322.808594 373.160156 259.503906 373.292969 196.210938 C 373.292969 193.972656 374.589844 191.246094 376.152344 189.566406 C 386.542969 178.460938 407.757812 173.972656 422.714844 182.035156 C 438.042969 190.292969 447.441406 202.46875 447.335938 220.65625 C 447.28125 228.824219 447.414062 236.976562 447.257812 245.140625 C 447.214844 246.957031 446.832031 249.207031 445.722656 250.476562 C 435.449219 262.28125 430.921875 275.78125 431.292969 291.519531 C 431.742188 310.394531 447.996094 335.34375 468.992188 340.664062 C 476.046875 342.449219 482.585938 339.417969 484.238281 333.382812 C 485.894531 327.335938 481.207031 317.59375 475.703125 315.898438 C 460.160156 311.136719 455.714844 300.042969 455.515625 289.230469 C 455.277344 276.363281 462.199219 264.109375 475.527344 258.65625 C 485.484375 254.578125 494.722656 256.246094 504.199219 259.953125 C 506.582031 255.757812 509.042969 251.957031 510.871094 247.882812 C 511.570312 246.320312 510.804688 244.109375 510.710938 242.203125 C 514.722656 244.292969 518.734375 246.386719 522.742188 248.476562 Z M 188.179688 248.597656 C 177.714844 264.480469 170.933594 281.671875 167.835938 300.175781 C 167.597656 301.605469 165.320312 303.285156 163.667969 303.800781 C 152.402344 307.363281 141.761719 312.234375 133.476562 320.703125 C 112.535156 342.144531 106.023438 367.824219 114.46875 396.414062 C 121.085938 418.792969 135.738281 434.691406 159.207031 439.453125 C 169.808594 441.613281 181.152344 439.890625 192.140625 440.367188 C 195.089844 440.5 198.1875 441.878906 200.820312 443.371094 C 211.292969 449.367188 217.15625 450.1875 225.085938 440.644531 C 229.703125 435.085938 230.21875 426.46875 226.5 421.375 C 222.105469 415.339844 212.457031 410.734375 207.160156 414.292969 C 195.976562 421.796875 183.945312 418.316406 172.269531 418.875 C 168.417969 419.058594 164.011719 417.867188 160.609375 415.960938 C 135.195312 401.707031 127.996094 377.988281 139.417969 352.746094 C 147.503906 334.867188 162.753906 324.515625 183.535156 325.21875 C 185.785156 325.296875 188.644531 326.632812 190.0625 328.355469 C 194.019531 333.160156 198.902344 335.898438 204.871094 335 C 212.019531 333.925781 217.050781 329.664062 218.320312 322.121094 C 219.445312 315.464844 217.976562 309.890625 212.550781 305.035156 C 206.167969 299.328125 199.339844 301.355469 192.007812 302.652344 C 191.253906 291.585938 193.265625 281.777344 199.539062 272.832031 C 200.835938 270.976562 201.839844 267.3125 200.886719 265.777344 C 197.289062 259.980469 192.828125 254.722656 188.179688 248.597656 Z M 173.355469 396.558594 C 183.867188 396.558594 192.933594 388.234375 193.09375 378.4375 C 193.265625 368.234375 185.28125 359.484375 175.792969 359.484375 C 161.378906 359.484375 154.800781 365.558594 154.773438 378.902344 C 154.746094 390.441406 161.179688 396.558594 173.355469 396.558594 Z M 539.472656 396.558594 C 551.746094 396.558594 558.480469 389.941406 558.480469 377.871094 C 558.480469 366.605469 551.796875 359.5 541.222656 359.484375 C 528.421875 359.484375 521.472656 366.261719 521.417969 378.808594 C 521.378906 390.46875 527.5625 396.542969 539.472656 396.542969 Z M 474.113281 449.515625 C 485.679688 449.539062 491.675781 442.988281 492.472656 431.5 C 493.265625 420.023438 484.078125 411.859375 475.289062 412.28125 C 463.617188 412.839844 455.289062 419.972656 455.226562 430.785156 C 455.160156 441.730469 462.96875 449.488281 474.101562 449.515625 Z M 529.691406 454.796875 C 517.953125 454.796875 510.84375 461.636719 510.832031 472.953125 C 510.816406 484.113281 518.097656 491.324219 528.5 492.027344 C 537.394531 492.621094 548.460938 482.589844 548.023438 472.914062 C 547.523438 461.796875 540.941406 454.796875 529.691406 454.78125 Z M 423.484375 348.3125 C 423.523438 337.089844 417.949219 330.417969 408.5 330.378906 C 393.542969 330.3125 386.261719 336.148438 386.488281 348.738281 C 386.648438 357.550781 394.773438 366.964844 405.457031 367.375 C 415.898438 367.769531 423.445312 359.550781 423.484375 348.328125 Z M 169.332031 473.207031 C 167.902344 483.53125 178.265625 492.144531 187.214844 491.949219 C 198.875 491.683594 206.910156 482.152344 206.117188 473.085938 C 205.191406 462.367188 201.152344 454.621094 188.007812 454.515625 C 175.261719 454.425781 169.347656 460.445312 169.332031 473.207031 Z M 316.230469 293.226562 C 305.070312 293.132812 297.683594 300.175781 297.632812 310.949219 C 297.578125 321.089844 305.984375 330.644531 315.648438 330.195312 C 323.550781 329.835938 333.332031 323.933594 333.78125 313.796875 C 334.363281 300.441406 328.089844 291.664062 316.230469 293.226562 Z M 161.402344 231.5625 C 161.324219 240.589844 170.300781 250.476562 178.980469 250.925781 C 187.636719 251.390625 198.4375 241.328125 198.398438 232.421875 C 198.359375 222.957031 192.65625 213.390625 181.601562 212.703125 C 170.601562 212.027344 161.496094 220.773438 161.402344 231.5625 Z M 161.402344 231.5625 " fill-opacity="1" fill-rule="nonzero"/><path fill="#272626" d="M 317.40625 256.3125 C 316.257812 260.8125 315.621094 265.539062 313.847656 269.773438 C 310.328125 278.136719 303.789062 279.433594 292.496094 276.417969 C 285.085938 274.433594 278.308594 269.523438 271.714844 265.195312 C 253.6875 253.335938 234.734375 251.695312 214.851562 259.289062 C 211.664062 260.507812 210.085938 260.628906 208.0625 257.476562 C 205.070312 252.84375 201.3125 248.703125 197.671875 244.109375 C 213.15625 231.667969 230.511719 231.589844 247.148438 232.648438 C 248.894531 222.136719 249.347656 211.351562 252.589844 201.476562 C 262.359375 171.671875 288.632812 151.988281 321.285156 154.492188 C 334.546875 155.511719 346.753906 160.683594 356.972656 169.445312 C 360.199219 172.226562 361.695312 171.3125 364.582031 169.035156 C 378.878906 157.734375 394.90625 152.769531 413.382812 155.417969 C 442.1875 159.558594 460.1875 176.277344 468.605469 203.117188 C 471.664062 212.859375 471.054688 223.738281 472.167969 234.539062 C 485.402344 231.113281 499.023438 230.503906 510.300781 241.832031 C 510.300781 242.058594 510.433594 242.175781 510.660156 242.175781 C 510.765625 244.097656 511.53125 246.304688 510.832031 247.867188 C 509.003906 251.945312 506.542969 255.730469 504.160156 259.9375 C 494.683594 256.234375 485.441406 254.566406 475.488281 258.640625 C 462.160156 264.09375 455.238281 276.351562 455.476562 289.214844 C 455.675781 300.042969 460.121094 311.121094 475.660156 315.886719 C 481.167969 317.582031 485.867188 327.320312 484.199219 333.371094 C 482.542969 339.40625 476.019531 342.425781 468.949219 340.652344 C 447.957031 335.34375 431.703125 310.394531 431.253906 291.507812 C 430.882812 275.78125 435.410156 262.269531 445.679688 250.460938 C 446.792969 249.179688 447.175781 246.941406 447.214844 245.128906 C 447.375 236.976562 447.242188 228.808594 447.296875 220.644531 C 447.402344 202.457031 438.003906 190.28125 422.675781 182.019531 C 407.71875 173.960938 386.5 178.460938 376.109375 189.550781 C 374.535156 191.234375 373.25 193.945312 373.25 196.195312 C 373.121094 259.503906 373.25 322.808594 373.011719 386.101562 C 372.988281 392.757812 375.144531 394.386719 381.300781 394.003906 C 389.214844 393.515625 397.234375 394.519531 405.097656 393.726562 C 415.160156 392.707031 422.503906 386.0625 430.207031 380.078125 C 437.582031 374.363281 445.707031 369.609375 453.570312 364.539062 C 454.589844 363.878906 455.992188 363.507812 457.222656 363.507812 C 476.613281 363.441406 496.007812 363.46875 515.4375 363.46875 L 515.4375 385.957031 C 501.816406 385.957031 487.71875 386.511719 473.6875 385.769531 C 463.734375 385.253906 456.351562 389.277344 449.175781 395.234375 C 442.015625 401.175781 434.945312 407.398438 427.042969 412.214844 C 422.558594 414.957031 416.535156 415.976562 411.132812 416.226562 C 398.8125 416.796875 386.449219 416.410156 373.144531 416.410156 C 373.144531 418.847656 373.144531 421.164062 373.144531 423.480469 C 373.144531 453.695312 372.789062 483.925781 373.238281 514.128906 C 373.6875 544.03125 389.824219 567.628906 421.339844 572.183594 C 454.21875 576.933594 487.707031 552.992188 488.488281 516.9375 C 488.925781 496.300781 476.03125 477.148438 453.292969 472.253906 C 444.515625 470.359375 429.757812 477.308594 424.660156 486.109375 C 419.75 494.609375 421.152344 504.457031 428.300781 511.617188 C 437.460938 504.800781 449.269531 507.007812 454.324219 515.402344 C 460.253906 525.25 453.6875 539.277344 442.28125 540.8125 C 420.730469 543.710938 400.015625 525.539062 398.070312 503.886719 C 396.019531 481.148438 405.71875 465.332031 424.488281 454.769531 C 442.199219 444.789062 460.679688 446.484375 477.925781 456.277344 C 502.015625 469.949219 514.339844 491.695312 513.027344 518.921875 C 511.914062 542.28125 501.179688 562.003906 482.199219 577.027344 C 464.714844 590.859375 444.980469 597.421875 423.21875 596.179688 C 400.199219 594.855469 381.179688 584.320312 366.566406 566.238281 C 365.90625 565.417969 365.441406 564.425781 364.792969 563.59375 C 363.988281 562.546875 363.085938 561.554688 362.664062 561.0625 C 354.839844 568.554688 347.625 576.179688 339.671875 582.917969 C 329.503906 591.53125 316.800781 594.972656 303.984375 596.21875 C 282.96875 598.257812 263.046875 594.179688 245.214844 581.949219 C 225.453125 568.398438 213.875 550.027344 210.207031 526.203125 C 206.433594 501.664062 215.050781 481.503906 231.886719 464.894531 C 238.308594 458.566406 247.664062 454.992188 256.082031 451.007812 C 260.160156 449.078125 262.304688 447.449219 262.066406 442.605469 C 261.644531 434.027344 261.960938 425.410156 261.949219 416.808594 C 261.933594 399.5625 248.5 385.996094 231.410156 385.984375 C 220.636719 385.984375 209.875 385.984375 198.757812 385.984375 L 198.757812 364.792969 C 216.082031 364.792969 233.410156 363.613281 250.484375 365.191406 C 262.488281 366.300781 269.785156 376.519531 276.519531 385.984375 C 282.199219 393.964844 284.964844 402.539062 284.609375 412.585938 C 284.027344 428.894531 284.476562 445.226562 284.4375 461.546875 C 284.421875 468.46875 281.085938 471.710938 274.019531 472.027344 C 251.359375 473.035156 235.050781 492.648438 233.980469 513.375 C 233.105469 530.359375 238.136719 544.703125 250.300781 556.207031 C 274.429688 579.011719 311.492188 579.847656 334.3125 556.40625 C 344.183594 546.265625 349.109375 533.414062 349.148438 519.582031 C 349.441406 414.585938 349.242188 309.601562 349.425781 204.601562 C 349.441406 196.59375 340.09375 184.894531 330.523438 180.910156 C 304.332031 170.054688 274.003906 191.113281 272.578125 217.769531 C 272.273438 223.488281 272.417969 229.246094 272.640625 234.976562 C 272.683594 236.0625 273.925781 237.398438 274.972656 238.085938 C 279.074219 240.800781 283.3125 243.300781 287.492188 245.871094 C 288.207031 252.859375 291.820312 257.359375 298.625 259.488281 C 305.496094 261.648438 311.503906 259.6875 317.367188 256.324219 Z M 317.40625 256.3125 " fill-opacity="1" fill-rule="nonzero"/><path fill="#272626" d="M 188.195312 248.597656 C 192.839844 254.710938 197.300781 259.980469 200.902344 265.777344 C 201.855469 267.3125 200.847656 270.976562 199.550781 272.832031 C 193.277344 281.777344 191.265625 291.585938 192.019531 302.652344 C 199.367188 301.355469 206.183594 299.328125 212.5625 305.035156 C 217.988281 309.890625 219.457031 315.464844 218.332031 322.121094 C 217.0625 329.664062 212.03125 333.925781 204.886719 335 C 198.914062 335.898438 194.03125 333.160156 190.074219 328.355469 C 188.65625 326.632812 185.796875 325.296875 183.546875 325.21875 C 162.765625 324.515625 147.519531 334.867188 139.429688 352.746094 C 128.023438 377.988281 135.210938 401.707031 160.621094 415.960938 C 164.023438 417.867188 168.417969 419.058594 172.285156 418.875 C 183.957031 418.316406 195.992188 421.8125 207.175781 414.292969 C 212.46875 410.734375 222.117188 415.339844 226.511719 421.375 C 230.234375 426.46875 229.703125 435.085938 225.097656 440.644531 C 217.167969 450.1875 211.304688 449.367188 200.835938 443.371094 C 198.199219 441.863281 195.089844 440.488281 192.152344 440.367188 C 181.164062 439.878906 169.808594 441.597656 159.21875 439.453125 C 135.75 434.691406 121.097656 418.792969 114.480469 396.414062 C 106.035156 367.824219 112.5625 342.144531 133.488281 320.703125 C 141.761719 312.234375 152.417969 307.363281 163.679688 303.800781 C 165.335938 303.285156 167.613281 301.605469 167.851562 300.175781 C 170.984375 281.679688 177.765625 264.488281 188.195312 248.597656 Z M 188.195312 248.597656 " fill-opacity="1" fill-rule="nonzero"/><path fill="#272626" d="M 529.386719 248.492188 C 541.273438 262.707031 549.8125 278.269531 549.269531 297.515625 C 549.164062 301.089844 550.339844 303.074219 554.152344 304.476562 C 571.332031 310.789062 585.285156 321.457031 594.128906 337.699219 C 607.046875 361.402344 607.324219 385.347656 594.152344 409.25 C 585.351562 425.238281 572.378906 435.589844 554.496094 439.601562 C 553.238281 439.878906 551.941406 440.210938 550.660156 440.210938 C 533.691406 440.25 516.734375 440.234375 499.355469 440.234375 L 499.355469 419.058594 C 511.914062 419.058594 524.621094 418.847656 537.316406 419.113281 C 556.507812 419.507812 571.519531 407.132812 577.066406 390.179688 C 587.839844 357.300781 567.972656 332.167969 540.042969 325.390625 C 533.730469 323.855469 526.847656 323.816406 521.65625 330.484375 C 517.953125 335.238281 512.007812 336.519531 505.960938 334.3125 C 499.859375 332.085938 497.066406 327.125 496.351562 321.128906 C 494.5625 306.289062 507.03125 297.050781 520.8125 302.785156 C 521.960938 303.257812 523.167969 303.644531 524.609375 304.171875 C 527.890625 288.832031 523.429688 276.46875 512.5 266.582031 C 515.992188 260.375 519.355469 254.421875 522.703125 248.449219 C 524.925781 248.449219 527.152344 248.464844 529.375 248.476562 Z M 529.386719 248.492188 " fill-opacity="1" fill-rule="nonzero"/><path fill="#272626" d="M 325.535156 380.859375 C 325.535156 422.9375 325.46875 465.011719 325.5625 507.089844 C 325.585938 517.242188 317.75 534.210938 306.183594 537.042969 C 304.132812 537.542969 302.039062 538.007812 299.949219 538.140625 C 294.589844 538.484375 289.546875 537.226562 284.964844 542.890625 C 280.398438 548.53125 269.070312 547.273438 264.289062 542.46875 C 258.613281 536.761719 257.472656 526.082031 261.933594 520.457031 C 266.632812 514.527344 277.382812 512.238281 283.839844 515.796875 C 291.292969 519.902344 303.007812 512.9375 303.007812 504.269531 C 303.046875 465.503906 303.019531 426.722656 303.03125 387.953125 C 303.03125 385.53125 303.164062 383.125 303.230469 380.703125 C 310.671875 380.753906 318.097656 380.820312 325.535156 380.875 Z M 325.535156 380.859375 " fill-opacity="1" fill-rule="nonzero"/><path fill="#272626" d="M 415.476562 252.582031 C 415.050781 264.148438 414.46875 275.714844 414.257812 287.285156 C 414.046875 298.707031 414.21875 310.140625 414.21875 321.761719 L 395.660156 321.761719 C 395.660156 299.421875 395.660156 276.578125 395.660156 253.730469 C 402.265625 253.347656 408.871094 252.964844 415.476562 252.582031 Z M 415.476562 252.582031 " fill-opacity="1" fill-rule="nonzero"/><path fill="#272626" d="M 262.078125 314.46875 C 262.449219 310.578125 262.820312 306.675781 263.191406 302.785156 C 267.441406 302.480469 272.828125 303.695312 271.277344 296.246094 L 291.359375 296.246094 L 291.359375 314.46875 Z M 262.078125 314.46875 " fill-opacity="1" fill-rule="nonzero"/><path fill="#2280c3" d="M 548.195312 231.019531 C 548.195312 231.648438 548.164062 232.277344 548.105469 232.902344 C 548.042969 233.53125 547.949219 234.152344 547.828125 234.769531 C 547.703125 235.386719 547.550781 235.996094 547.367188 236.597656 C 547.1875 237.199219 546.972656 237.792969 546.734375 238.375 C 546.492188 238.957031 546.222656 239.523438 545.925781 240.078125 C 545.628906 240.632812 545.308594 241.171875 544.957031 241.695312 C 544.609375 242.21875 544.234375 242.726562 543.835938 243.210938 C 543.433594 243.699219 543.011719 244.164062 542.566406 244.609375 C 542.121094 245.054688 541.65625 245.476562 541.171875 245.875 C 540.683594 246.273438 540.179688 246.648438 539.65625 247 C 539.132812 247.347656 538.59375 247.671875 538.039062 247.96875 C 537.480469 248.265625 536.914062 248.535156 536.332031 248.773438 C 535.75 249.015625 535.160156 249.226562 534.554688 249.410156 C 533.953125 249.59375 533.34375 249.746094 532.726562 249.867188 C 532.109375 249.992188 531.488281 250.082031 530.859375 250.144531 C 530.234375 250.207031 529.605469 250.238281 528.976562 250.238281 C 528.347656 250.238281 527.71875 250.207031 527.09375 250.144531 C 526.46875 250.082031 525.84375 249.992188 525.226562 249.867188 C 524.609375 249.746094 524 249.59375 523.398438 249.410156 C 522.796875 249.226562 522.203125 249.015625 521.621094 248.773438 C 521.039062 248.535156 520.472656 248.265625 519.917969 247.96875 C 519.363281 247.671875 518.824219 247.347656 518.300781 247 C 517.777344 246.648438 517.273438 246.273438 516.785156 245.875 C 516.296875 245.476562 515.832031 245.054688 515.386719 244.609375 C 514.941406 244.164062 514.519531 243.699219 514.121094 243.210938 C 513.722656 242.726562 513.347656 242.21875 512.996094 241.695312 C 512.648438 241.171875 512.324219 240.632812 512.027344 240.078125 C 511.730469 239.523438 511.460938 238.957031 511.222656 238.375 C 510.980469 237.792969 510.769531 237.199219 510.585938 236.597656 C 510.402344 235.996094 510.25 235.386719 510.128906 234.769531 C 510.003906 234.152344 509.914062 233.53125 509.851562 232.902344 C 509.789062 232.277344 509.757812 231.648438 509.757812 231.019531 C 509.757812 230.390625 509.789062 229.761719 509.851562 229.136719 C 509.914062 228.507812 510.003906 227.886719 510.128906 227.269531 C 510.25 226.652344 510.402344 226.042969 510.585938 225.441406 C 510.769531 224.839844 510.980469 224.246094 511.222656 223.664062 C 511.460938 223.082031 511.730469 222.515625 512.027344 221.960938 C 512.324219 221.40625 512.648438 220.867188 512.996094 220.34375 C 513.347656 219.820312 513.722656 219.3125 514.121094 218.828125 C 514.519531 218.339844 514.941406 217.875 515.386719 217.429688 C 515.832031 216.984375 516.296875 216.5625 516.785156 216.164062 C 517.273438 215.765625 517.777344 215.390625 518.300781 215.039062 C 518.824219 214.691406 519.363281 214.367188 519.917969 214.070312 C 520.472656 213.773438 521.039062 213.503906 521.621094 213.265625 C 522.203125 213.023438 522.796875 212.8125 523.398438 212.628906 C 524 212.445312 524.609375 212.292969 525.226562 212.171875 C 525.84375 212.046875 526.46875 211.957031 527.09375 211.894531 C 527.71875 211.832031 528.347656 211.800781 528.976562 211.800781 C 529.605469 211.800781 530.234375 211.832031 530.859375 211.894531 C 531.488281 211.957031 532.109375 212.046875 532.726562 212.171875 C 533.34375 212.292969 533.953125 212.445312 534.554688 212.628906 C 535.160156 212.8125 535.75 213.023438 536.332031 213.265625 C 536.914062 213.503906 537.480469 213.773438 538.039062 214.070312 C 538.59375 214.367188 539.132812 214.691406 539.65625 215.039062 C 540.179688 215.390625 540.683594 215.765625 541.171875 216.164062 C 541.65625 216.5625 542.121094 216.984375 542.566406 217.429688 C 543.011719 217.875 543.433594 218.339844 543.835938 218.828125 C 544.234375 219.3125 544.609375 219.820312 544.957031 220.34375 C 545.308594 220.867188 545.628906 221.40625 545.925781 221.960938 C 546.222656 222.515625 546.492188 223.082031 546.734375 223.664062 C 546.972656 224.246094 547.1875 224.839844 547.367188 225.441406 C 547.550781 226.042969 547.703125 226.652344 547.828125 227.269531 C 547.949219 227.886719 548.042969 228.507812 548.105469 229.136719 C 548.164062 229.761719 548.195312 230.390625 548.195312 231.019531 Z M 548.195312 231.019531 " fill-opacity="1" fill-rule="nonzero"/><path fill="#2280c3" d="M 425.8125 235.585938 C 425.8125 236.25 425.78125 236.910156 425.714844 237.570312 C 425.652344 238.230469 425.554688 238.886719 425.425781 239.535156 C 425.292969 240.1875 425.132812 240.828125 424.941406 241.464844 C 424.75 242.097656 424.527344 242.722656 424.273438 243.335938 C 424.019531 243.949219 423.734375 244.546875 423.421875 245.132812 C 423.109375 245.714844 422.769531 246.285156 422.398438 246.835938 C 422.03125 247.386719 421.636719 247.917969 421.214844 248.433594 C 420.796875 248.945312 420.351562 249.4375 419.882812 249.90625 C 419.414062 250.375 418.921875 250.820312 418.410156 251.238281 C 417.898438 251.660156 417.363281 252.054688 416.8125 252.421875 C 416.261719 252.792969 415.691406 253.132812 415.109375 253.445312 C 414.523438 253.757812 413.925781 254.039062 413.3125 254.292969 C 412.699219 254.546875 412.074219 254.773438 411.441406 254.964844 C 410.804688 255.15625 410.164062 255.316406 409.511719 255.445312 C 408.863281 255.578125 408.207031 255.671875 407.546875 255.738281 C 406.886719 255.804688 406.226562 255.835938 405.5625 255.835938 C 404.898438 255.835938 404.238281 255.804688 403.578125 255.738281 C 402.917969 255.671875 402.261719 255.578125 401.609375 255.445312 C 400.960938 255.316406 400.316406 255.15625 399.683594 254.964844 C 399.046875 254.773438 398.425781 254.546875 397.8125 254.292969 C 397.199219 254.039062 396.601562 253.757812 396.015625 253.445312 C 395.429688 253.132812 394.863281 252.792969 394.3125 252.421875 C 393.757812 252.054688 393.226562 251.660156 392.714844 251.238281 C 392.203125 250.820312 391.710938 250.375 391.242188 249.90625 C 390.773438 249.4375 390.328125 248.945312 389.90625 248.433594 C 389.488281 247.917969 389.089844 247.386719 388.722656 246.835938 C 388.355469 246.285156 388.015625 245.714844 387.703125 245.132812 C 387.390625 244.546875 387.105469 243.949219 386.851562 243.335938 C 386.597656 242.722656 386.375 242.097656 386.183594 241.464844 C 385.988281 240.828125 385.828125 240.1875 385.699219 239.535156 C 385.570312 238.886719 385.472656 238.230469 385.40625 237.570312 C 385.34375 236.910156 385.308594 236.25 385.308594 235.585938 C 385.308594 234.921875 385.34375 234.261719 385.40625 233.601562 C 385.472656 232.941406 385.570312 232.285156 385.699219 231.636719 C 385.828125 230.984375 385.988281 230.34375 386.183594 229.707031 C 386.375 229.074219 386.597656 228.449219 386.851562 227.835938 C 387.105469 227.222656 387.390625 226.625 387.703125 226.039062 C 388.015625 225.453125 388.355469 224.886719 388.722656 224.335938 C 389.089844 223.785156 389.484375 223.25 389.90625 222.738281 C 390.328125 222.226562 390.773438 221.734375 391.242188 221.265625 C 391.710938 220.796875 392.203125 220.351562 392.714844 219.933594 C 393.226562 219.511719 393.757812 219.117188 394.3125 218.746094 C 394.863281 218.378906 395.429688 218.039062 396.015625 217.726562 C 396.601562 217.414062 397.199219 217.128906 397.8125 216.875 C 398.425781 216.621094 399.046875 216.398438 399.683594 216.207031 C 400.316406 216.015625 400.960938 215.855469 401.609375 215.722656 C 402.261719 215.59375 402.917969 215.496094 403.578125 215.433594 C 404.238281 215.367188 404.898438 215.335938 405.5625 215.335938 C 406.226562 215.335938 406.886719 215.367188 407.546875 215.433594 C 408.207031 215.496094 408.863281 215.59375 409.511719 215.722656 C 410.164062 215.855469 410.804688 216.015625 411.441406 216.207031 C 412.074219 216.398438 412.699219 216.621094 413.3125 216.875 C 413.925781 217.128906 414.523438 217.414062 415.109375 217.726562 C 415.691406 218.039062 416.261719 218.378906 416.8125 218.746094 C 417.363281 219.117188 417.898438 219.511719 418.410156 219.933594 C 418.921875 220.351562 419.414062 220.796875 419.882812 221.265625 C 420.351562 221.734375 420.796875 222.226562 421.214844 222.738281 C 421.636719 223.25 422.03125 223.785156 422.402344 224.335938 C 422.769531 224.886719 423.109375 225.453125 423.421875 226.039062 C 423.734375 226.625 424.019531 227.222656 424.273438 227.835938 C 424.527344 228.449219 424.75 229.074219 424.941406 229.707031 C 425.132812 230.34375 425.292969 230.984375 425.425781 231.636719 C 425.554688 232.285156 425.652344 232.941406 425.714844 233.601562 C 425.78125 234.261719 425.8125 234.921875 425.8125 235.585938 Z M 425.8125 235.585938 " fill-opacity="1" fill-rule="nonzero"/><path fill="#2280c3" d="M 335.976562 311.613281 C 335.976562 312.273438 335.945312 312.9375 335.878906 313.597656 C 335.816406 314.257812 335.71875 314.910156 335.589844 315.5625 C 335.460938 316.210938 335.300781 316.855469 335.105469 317.488281 C 334.914062 318.125 334.691406 318.75 334.4375 319.359375 C 334.183594 319.972656 333.898438 320.574219 333.585938 321.15625 C 333.273438 321.742188 332.933594 322.3125 332.566406 322.863281 C 332.195312 323.414062 331.800781 323.945312 331.382812 324.457031 C 330.960938 324.972656 330.515625 325.460938 330.046875 325.929688 C 329.578125 326.398438 329.085938 326.84375 328.574219 327.265625 C 328.0625 327.6875 327.53125 328.082031 326.976562 328.449219 C 326.425781 328.816406 325.859375 329.160156 325.273438 329.472656 C 324.6875 329.785156 324.089844 330.066406 323.476562 330.320312 C 322.863281 330.574219 322.238281 330.796875 321.605469 330.988281 C 320.96875 331.183594 320.328125 331.34375 319.675781 331.472656 C 319.027344 331.601562 318.371094 331.699219 317.710938 331.765625 C 317.050781 331.828125 316.390625 331.863281 315.726562 331.863281 C 315.0625 331.863281 314.402344 331.828125 313.742188 331.765625 C 313.082031 331.699219 312.425781 331.601562 311.777344 331.472656 C 311.125 331.34375 310.484375 331.183594 309.847656 330.988281 C 309.214844 330.796875 308.589844 330.574219 307.976562 330.320312 C 307.363281 330.066406 306.765625 329.785156 306.179688 329.472656 C 305.59375 329.160156 305.027344 328.816406 304.476562 328.449219 C 303.925781 328.082031 303.390625 327.6875 302.878906 327.265625 C 302.367188 326.84375 301.875 326.398438 301.40625 325.929688 C 300.9375 325.460938 300.492188 324.972656 300.070312 324.457031 C 299.652344 323.945312 299.257812 323.414062 298.886719 322.863281 C 298.519531 322.3125 298.179688 321.742188 297.867188 321.15625 C 297.554688 320.574219 297.269531 319.972656 297.015625 319.359375 C 296.761719 318.75 296.539062 318.125 296.347656 317.488281 C 296.15625 316.855469 295.992188 316.210938 295.863281 315.5625 C 295.734375 314.910156 295.636719 314.257812 295.574219 313.597656 C 295.507812 312.9375 295.476562 312.273438 295.476562 311.613281 C 295.476562 310.949219 295.507812 310.285156 295.574219 309.625 C 295.636719 308.964844 295.734375 308.3125 295.863281 307.660156 C 295.992188 307.011719 296.15625 306.367188 296.347656 305.734375 C 296.539062 305.097656 296.761719 304.476562 297.015625 303.863281 C 297.269531 303.25 297.554688 302.648438 297.867188 302.066406 C 298.179688 301.480469 298.519531 300.914062 298.886719 300.359375 C 299.257812 299.808594 299.652344 299.277344 300.070312 298.765625 C 300.492188 298.25 300.9375 297.761719 301.40625 297.292969 C 301.875 296.824219 302.367188 296.378906 302.878906 295.957031 C 303.390625 295.535156 303.925781 295.140625 304.476562 294.773438 C 305.027344 294.40625 305.59375 294.066406 306.179688 293.753906 C 306.765625 293.4375 307.363281 293.15625 307.976562 292.902344 C 308.589844 292.648438 309.214844 292.425781 309.847656 292.234375 C 310.484375 292.039062 311.125 291.878906 311.777344 291.75 C 312.425781 291.621094 313.082031 291.523438 313.742188 291.457031 C 314.402344 291.394531 315.0625 291.359375 315.726562 291.359375 C 316.390625 291.359375 317.050781 291.394531 317.710938 291.457031 C 318.371094 291.523438 319.027344 291.621094 319.675781 291.75 C 320.328125 291.878906 320.972656 292.039062 321.605469 292.234375 C 322.238281 292.425781 322.863281 292.648438 323.476562 292.902344 C 324.089844 293.15625 324.6875 293.4375 325.273438 293.753906 C 325.859375 294.066406 326.425781 294.40625 326.976562 294.773438 C 327.53125 295.140625 328.0625 295.535156 328.574219 295.957031 C 329.085938 296.378906 329.578125 296.824219 330.046875 297.292969 C 330.515625 297.761719 330.960938 298.25 331.382812 298.765625 C 331.800781 299.277344 332.195312 299.808594 332.566406 300.359375 C 332.933594 300.914062 333.273438 301.480469 333.585938 302.066406 C 333.898438 302.648438 334.183594 303.25 334.4375 303.863281 C 334.691406 304.476562 334.914062 305.097656 335.105469 305.734375 C 335.296875 306.367188 335.460938 307.011719 335.589844 307.660156 C 335.71875 308.3125 335.816406 308.964844 335.878906 309.625 C 335.945312 310.285156 335.976562 310.949219 335.976562 311.613281 Z M 335.976562 311.613281 " fill-opacity="1" fill-rule="nonzero"/><path fill="#2280c3" d="M 335.25 367.375 C 335.25 368.035156 335.21875 368.699219 335.152344 369.359375 C 335.085938 370.019531 334.992188 370.671875 334.859375 371.324219 C 334.730469 371.972656 334.570312 372.617188 334.378906 373.25 C 334.1875 373.886719 333.960938 374.511719 333.707031 375.121094 C 333.453125 375.734375 333.171875 376.335938 332.859375 376.917969 C 332.546875 377.503906 332.207031 378.074219 331.835938 378.625 C 331.46875 379.175781 331.074219 379.707031 330.652344 380.21875 C 330.234375 380.734375 329.789062 381.222656 329.320312 381.691406 C 328.851562 382.160156 328.359375 382.605469 327.847656 383.027344 C 327.332031 383.449219 326.800781 383.84375 326.25 384.210938 C 325.699219 384.578125 325.128906 384.921875 324.546875 385.234375 C 323.960938 385.546875 323.363281 385.828125 322.75 386.082031 C 322.136719 386.335938 321.511719 386.558594 320.878906 386.75 C 320.242188 386.945312 319.601562 387.105469 318.949219 387.234375 C 318.300781 387.363281 317.644531 387.460938 316.984375 387.527344 C 316.324219 387.589844 315.660156 387.625 315 387.625 C 314.335938 387.625 313.671875 387.589844 313.015625 387.527344 C 312.355469 387.460938 311.699219 387.363281 311.046875 387.234375 C 310.398438 387.105469 309.753906 386.945312 309.121094 386.753906 C 308.484375 386.558594 307.863281 386.335938 307.25 386.082031 C 306.636719 385.828125 306.035156 385.546875 305.453125 385.234375 C 304.867188 384.921875 304.300781 384.578125 303.746094 384.210938 C 303.195312 383.84375 302.664062 383.449219 302.152344 383.027344 C 301.636719 382.605469 301.148438 382.160156 300.679688 381.691406 C 300.210938 381.222656 299.765625 380.734375 299.34375 380.21875 C 298.921875 379.707031 298.527344 379.175781 298.160156 378.625 C 297.792969 378.074219 297.449219 377.503906 297.136719 376.917969 C 296.824219 376.335938 296.542969 375.734375 296.289062 375.121094 C 296.035156 374.511719 295.8125 373.886719 295.617188 373.25 C 295.425781 372.617188 295.265625 371.972656 295.136719 371.324219 C 295.007812 370.671875 294.910156 370.019531 294.84375 369.359375 C 294.78125 368.699219 294.746094 368.035156 294.746094 367.375 C 294.746094 366.710938 294.78125 366.046875 294.84375 365.386719 C 294.910156 364.726562 295.007812 364.074219 295.136719 363.421875 C 295.265625 362.773438 295.425781 362.128906 295.617188 361.496094 C 295.8125 360.859375 296.035156 360.238281 296.289062 359.625 C 296.542969 359.011719 296.824219 358.414062 297.136719 357.828125 C 297.449219 357.242188 297.792969 356.675781 298.160156 356.121094 C 298.527344 355.570312 298.921875 355.039062 299.34375 354.527344 C 299.765625 354.015625 300.210938 353.523438 300.679688 353.054688 C 301.148438 352.585938 301.636719 352.140625 302.152344 351.71875 C 302.664062 351.296875 303.195312 350.902344 303.746094 350.535156 C 304.300781 350.167969 304.867188 349.828125 305.453125 349.515625 C 306.035156 349.203125 306.636719 348.917969 307.25 348.664062 C 307.863281 348.410156 308.484375 348.1875 309.121094 347.996094 C 309.753906 347.800781 310.398438 347.640625 311.046875 347.511719 C 311.699219 347.382812 312.355469 347.285156 313.015625 347.21875 C 313.671875 347.15625 314.335938 347.121094 315 347.121094 C 315.660156 347.121094 316.324219 347.15625 316.984375 347.21875 C 317.644531 347.285156 318.300781 347.382812 318.949219 347.511719 C 319.601562 347.640625 320.242188 347.800781 320.878906 347.996094 C 321.511719 348.1875 322.136719 348.410156 322.75 348.664062 C 323.363281 348.917969 323.960938 349.203125 324.546875 349.515625 C 325.128906 349.828125 325.699219 350.167969 326.25 350.535156 C 326.800781 350.902344 327.332031 351.296875 327.847656 351.71875 C 328.359375 352.140625 328.851562 352.585938 329.320312 353.054688 C 329.789062 353.523438 330.234375 354.015625 330.652344 354.527344 C 331.074219 355.039062 331.46875 355.570312 331.835938 356.121094 C 332.207031 356.675781 332.546875 357.242188 332.859375 357.828125 C 333.171875 358.414062 333.453125 359.011719 333.707031 359.625 C 333.960938 360.238281 334.1875 360.859375 334.378906 361.496094 C 334.570312 362.128906 334.730469 362.773438 334.859375 363.421875 C 334.992188 364.074219 335.085938 364.726562 335.152344 365.386719 C 335.21875 366.046875 335.25 366.710938 335.25 367.375 Z M 335.25 367.375 " fill-opacity="1" fill-rule="nonzero"/><path fill="#2280c3" d="M 425.246094 348.871094 C 425.246094 349.53125 425.210938 350.195312 425.148438 350.855469 C 425.082031 351.515625 424.984375 352.171875 424.855469 352.820312 C 424.726562 353.472656 424.566406 354.113281 424.371094 354.75 C 424.179688 355.382812 423.957031 356.007812 423.703125 356.621094 C 423.449219 357.230469 423.164062 357.832031 422.851562 358.414062 C 422.539062 359 422.199219 359.570312 421.832031 360.121094 C 421.460938 360.671875 421.066406 361.203125 420.648438 361.714844 C 420.226562 362.230469 419.78125 362.71875 419.3125 363.1875 C 418.84375 363.65625 418.351562 364.101562 417.839844 364.523438 C 417.328125 364.945312 416.796875 365.339844 416.242188 365.707031 C 415.691406 366.074219 415.125 366.417969 414.539062 366.730469 C 413.953125 367.042969 413.355469 367.324219 412.742188 367.578125 C 412.128906 367.832031 411.507812 368.054688 410.871094 368.25 C 410.238281 368.441406 409.59375 368.601562 408.945312 368.730469 C 408.292969 368.859375 407.636719 368.957031 406.976562 369.023438 C 406.316406 369.089844 405.65625 369.121094 404.992188 369.121094 C 404.328125 369.121094 403.667969 369.089844 403.007812 369.023438 C 402.347656 368.957031 401.691406 368.859375 401.042969 368.730469 C 400.390625 368.601562 399.75 368.441406 399.113281 368.25 C 398.480469 368.054688 397.855469 367.832031 397.242188 367.578125 C 396.628906 367.324219 396.03125 367.042969 395.445312 366.730469 C 394.859375 366.417969 394.292969 366.074219 393.742188 365.707031 C 393.191406 365.339844 392.65625 364.945312 392.144531 364.523438 C 391.632812 364.101562 391.140625 363.65625 390.671875 363.1875 C 390.203125 362.71875 389.757812 362.230469 389.339844 361.714844 C 388.917969 361.203125 388.523438 360.671875 388.152344 360.121094 C 387.785156 359.570312 387.445312 359 387.132812 358.414062 C 386.820312 357.832031 386.535156 357.230469 386.28125 356.621094 C 386.027344 356.007812 385.804688 355.382812 385.613281 354.75 C 385.421875 354.113281 385.257812 353.472656 385.128906 352.820312 C 385 352.171875 384.902344 351.515625 384.839844 350.855469 C 384.773438 350.195312 384.742188 349.53125 384.742188 348.871094 C 384.742188 348.207031 384.773438 347.546875 384.839844 346.886719 C 384.902344 346.226562 385 345.570312 385.128906 344.917969 C 385.257812 344.269531 385.421875 343.625 385.613281 342.992188 C 385.804688 342.355469 386.027344 341.734375 386.28125 341.121094 C 386.535156 340.507812 386.820312 339.910156 387.132812 339.324219 C 387.445312 338.738281 387.785156 338.171875 388.152344 337.621094 C 388.523438 337.066406 388.917969 336.535156 389.339844 336.023438 C 389.757812 335.511719 390.203125 335.019531 390.671875 334.550781 C 391.140625 334.082031 391.632812 333.636719 392.144531 333.214844 C 392.65625 332.796875 393.191406 332.402344 393.742188 332.03125 C 394.292969 331.664062 394.859375 331.324219 395.445312 331.011719 C 396.03125 330.699219 396.628906 330.414062 397.242188 330.160156 C 397.855469 329.90625 398.480469 329.683594 399.113281 329.492188 C 399.75 329.296875 400.390625 329.136719 401.042969 329.007812 C 401.691406 328.878906 402.347656 328.78125 403.007812 328.71875 C 403.667969 328.652344 404.328125 328.621094 404.992188 328.621094 C 405.65625 328.621094 406.316406 328.652344 406.976562 328.71875 C 407.636719 328.78125 408.292969 328.878906 408.945312 329.007812 C 409.59375 329.136719 410.238281 329.296875 410.871094 329.492188 C 411.507812 329.683594 412.128906 329.90625 412.742188 330.160156 C 413.355469 330.414062 413.953125 330.699219 414.539062 331.011719 C 415.125 331.324219 415.691406 331.664062 416.242188 332.03125 C 416.796875 332.402344 417.328125 332.796875 417.839844 333.214844 C 418.351562 333.636719 418.84375 334.082031 419.3125 334.550781 C 419.78125 335.019531 420.226562 335.511719 420.648438 336.023438 C 421.066406 336.535156 421.460938 337.066406 421.832031 337.621094 C 422.199219 338.171875 422.539062 338.738281 422.851562 339.324219 C 423.164062 339.910156 423.449219 340.507812 423.703125 341.121094 C 423.957031 341.734375 424.179688 342.355469 424.371094 342.992188 C 424.566406 343.625 424.726562 344.269531 424.855469 344.917969 C 424.984375 345.570312 425.082031 346.226562 425.148438 346.886719 C 425.210938 347.546875 425.246094 348.207031 425.246094 348.871094 Z M 425.246094 348.871094 " fill-opacity="1" fill-rule="nonzero"/><path fill="#2280c3" d="M 560.214844 378.027344 C 560.214844 378.691406 560.183594 379.351562 560.117188 380.011719 C 560.054688 380.671875 559.957031 381.328125 559.828125 381.980469 C 559.695312 382.628906 559.535156 383.273438 559.34375 383.90625 C 559.152344 384.542969 558.925781 385.164062 558.671875 385.777344 C 558.421875 386.390625 558.136719 386.988281 557.824219 387.574219 C 557.511719 388.160156 557.171875 388.726562 556.800781 389.277344 C 556.433594 389.832031 556.039062 390.363281 555.617188 390.875 C 555.199219 391.386719 554.753906 391.878906 554.285156 392.347656 C 553.816406 392.816406 553.324219 393.261719 552.8125 393.683594 C 552.296875 394.101562 551.765625 394.496094 551.214844 394.867188 C 550.664062 395.234375 550.09375 395.574219 549.511719 395.886719 C 548.925781 396.199219 548.328125 396.484375 547.714844 396.738281 C 547.101562 396.992188 546.476562 397.214844 545.84375 397.40625 C 545.207031 397.597656 544.566406 397.761719 543.914062 397.890625 C 543.265625 398.019531 542.609375 398.117188 541.949219 398.179688 C 541.289062 398.246094 540.628906 398.277344 539.964844 398.277344 C 539.300781 398.277344 538.640625 398.246094 537.980469 398.179688 C 537.320312 398.117188 536.664062 398.019531 536.011719 397.890625 C 535.363281 397.761719 534.71875 397.597656 534.085938 397.40625 C 533.449219 397.214844 532.828125 396.992188 532.214844 396.738281 C 531.601562 396.484375 531.003906 396.199219 530.417969 395.886719 C 529.832031 395.574219 529.265625 395.234375 528.710938 394.867188 C 528.160156 394.496094 527.628906 394.101562 527.117188 393.683594 C 526.605469 393.261719 526.113281 392.816406 525.644531 392.347656 C 525.175781 391.878906 524.730469 391.386719 524.308594 390.875 C 523.886719 390.363281 523.492188 389.832031 523.125 389.277344 C 522.757812 388.726562 522.417969 388.160156 522.105469 387.574219 C 521.789062 386.988281 521.507812 386.390625 521.253906 385.777344 C 521 385.164062 520.777344 384.542969 520.585938 383.90625 C 520.390625 383.273438 520.230469 382.628906 520.101562 381.980469 C 519.972656 381.328125 519.875 380.671875 519.808594 380.011719 C 519.746094 379.351562 519.710938 378.691406 519.710938 378.027344 C 519.710938 377.363281 519.746094 376.703125 519.808594 376.042969 C 519.875 375.382812 519.972656 374.726562 520.101562 374.078125 C 520.230469 373.425781 520.390625 372.785156 520.585938 372.148438 C 520.777344 371.515625 521 370.890625 521.253906 370.277344 C 521.507812 369.664062 521.789062 369.066406 522.105469 368.480469 C 522.417969 367.898438 522.757812 367.328125 523.125 366.777344 C 523.492188 366.226562 523.886719 365.695312 524.308594 365.179688 C 524.730469 364.667969 525.175781 364.175781 525.644531 363.707031 C 526.113281 363.238281 526.601562 362.792969 527.117188 362.375 C 527.628906 361.953125 528.160156 361.558594 528.710938 361.191406 C 529.265625 360.820312 529.832031 360.480469 530.417969 360.167969 C 531.003906 359.855469 531.601562 359.574219 532.214844 359.320312 C 532.828125 359.066406 533.449219 358.84375 534.085938 358.648438 C 534.71875 358.457031 535.363281 358.296875 536.011719 358.167969 C 536.664062 358.039062 537.320312 357.941406 537.980469 357.875 C 538.640625 357.808594 539.300781 357.777344 539.964844 357.777344 C 540.628906 357.777344 541.289062 357.808594 541.949219 357.875 C 542.609375 357.941406 543.265625 358.039062 543.914062 358.167969 C 544.566406 358.296875 545.207031 358.457031 545.84375 358.648438 C 546.476562 358.84375 547.101562 359.066406 547.714844 359.320312 C 548.328125 359.574219 548.925781 359.855469 549.511719 360.167969 C 550.09375 360.480469 550.664062 360.820312 551.214844 361.191406 C 551.765625 361.558594 552.296875 361.953125 552.8125 362.375 C 553.324219 362.792969 553.816406 363.238281 554.285156 363.707031 C 554.753906 364.175781 555.199219 364.667969 555.617188 365.179688 C 556.039062 365.695312 556.433594 366.226562 556.800781 366.777344 C 557.171875 367.328125 557.511719 367.898438 557.824219 368.480469 C 558.136719 369.066406 558.421875 369.664062 558.671875 370.277344 C 558.925781 370.890625 559.152344 371.515625 559.34375 372.148438 C 559.535156 372.785156 559.695312 373.425781 559.828125 374.078125 C 559.957031 374.726562 560.054688 375.382812 560.117188 376.042969 C 560.183594 376.703125 560.214844 377.363281 560.214844 378.027344 Z M 560.214844 378.027344 " fill-opacity="1" fill-rule="nonzero"/><path fill="#2280c3" d="M 494.125 429.261719 C 494.125 429.925781 494.09375 430.589844 494.027344 431.25 C 493.964844 431.910156 493.867188 432.5625 493.738281 433.214844 C 493.609375 433.863281 493.445312 434.507812 493.253906 435.140625 C 493.0625 435.777344 492.839844 436.398438 492.585938 437.011719 C 492.332031 437.625 492.046875 438.222656 491.734375 438.808594 C 491.421875 439.394531 491.082031 439.960938 490.714844 440.515625 C 490.34375 441.066406 489.949219 441.597656 489.53125 442.109375 C 489.109375 442.621094 488.664062 443.113281 488.195312 443.582031 C 487.726562 444.050781 487.234375 444.496094 486.722656 444.917969 C 486.210938 445.339844 485.675781 445.734375 485.125 446.101562 C 484.574219 446.46875 484.007812 446.808594 483.421875 447.121094 C 482.835938 447.433594 482.238281 447.71875 481.625 447.972656 C 481.011719 448.226562 480.386719 448.449219 479.753906 448.640625 C 479.117188 448.835938 478.476562 448.996094 477.824219 449.125 C 477.175781 449.253906 476.519531 449.351562 475.859375 449.417969 C 475.199219 449.480469 474.539062 449.515625 473.875 449.515625 C 473.210938 449.515625 472.550781 449.480469 471.890625 449.417969 C 471.230469 449.351562 470.574219 449.253906 469.921875 449.125 C 469.273438 448.996094 468.628906 448.835938 467.996094 448.640625 C 467.359375 448.449219 466.738281 448.226562 466.125 447.972656 C 465.511719 447.71875 464.914062 447.433594 464.328125 447.121094 C 463.742188 446.808594 463.175781 446.46875 462.625 446.101562 C 462.070312 445.734375 461.539062 445.339844 461.027344 444.917969 C 460.515625 444.496094 460.023438 444.050781 459.554688 443.582031 C 459.085938 443.113281 458.640625 442.621094 458.21875 442.109375 C 457.800781 441.597656 457.40625 441.066406 457.035156 440.515625 C 456.667969 439.960938 456.328125 439.394531 456.015625 438.808594 C 455.703125 438.222656 455.417969 437.625 455.164062 437.011719 C 454.910156 436.398438 454.6875 435.777344 454.496094 435.140625 C 454.300781 434.507812 454.140625 433.863281 454.011719 433.214844 C 453.882812 432.5625 453.785156 431.910156 453.71875 431.25 C 453.65625 430.589844 453.621094 429.925781 453.625 429.261719 C 453.621094 428.601562 453.65625 427.9375 453.71875 427.277344 C 453.785156 426.617188 453.882812 425.964844 454.011719 425.3125 C 454.140625 424.664062 454.300781 424.019531 454.496094 423.386719 C 454.6875 422.75 454.910156 422.125 455.164062 421.515625 C 455.417969 420.902344 455.703125 420.300781 456.015625 419.71875 C 456.328125 419.132812 456.667969 418.5625 457.035156 418.011719 C 457.40625 417.460938 457.800781 416.929688 458.21875 416.417969 C 458.640625 415.902344 459.085938 415.414062 459.554688 414.945312 C 460.023438 414.476562 460.515625 414.03125 461.027344 413.609375 C 461.539062 413.1875 462.070312 412.792969 462.625 412.425781 C 463.175781 412.058594 463.742188 411.714844 464.328125 411.402344 C 464.914062 411.089844 465.511719 410.808594 466.125 410.554688 C 466.738281 410.300781 467.359375 410.078125 467.996094 409.886719 C 468.628906 409.691406 469.273438 409.53125 469.921875 409.402344 C 470.574219 409.273438 471.230469 409.175781 471.890625 409.109375 C 472.550781 409.046875 473.210938 409.011719 473.875 409.011719 C 474.539062 409.011719 475.199219 409.046875 475.859375 409.109375 C 476.519531 409.175781 477.175781 409.273438 477.824219 409.402344 C 478.476562 409.53125 479.117188 409.691406 479.753906 409.886719 C 480.386719 410.078125 481.011719 410.300781 481.625 410.554688 C 482.238281 410.808594 482.835938 411.089844 483.421875 411.402344 C 484.007812 411.714844 484.574219 412.058594 485.125 412.425781 C 485.675781 412.792969 486.210938 413.1875 486.722656 413.609375 C 487.234375 414.03125 487.726562 414.476562 488.195312 414.945312 C 488.664062 415.414062 489.109375 415.902344 489.53125 416.417969 C 489.949219 416.929688 490.34375 417.460938 490.714844 418.011719 C 491.082031 418.5625 491.421875 419.132812 491.734375 419.71875 C 492.046875 420.300781 492.332031 420.902344 492.585938 421.515625 C 492.839844 422.125 493.0625 422.75 493.253906 423.386719 C 493.445312 424.019531 493.609375 424.664062 493.738281 425.3125 C 493.867188 425.964844 493.964844 426.617188 494.027344 427.277344 C 494.09375 427.9375 494.125 428.601562 494.125 429.261719 Z M 494.125 429.261719 " fill-opacity="1" fill-rule="nonzero"/><path fill="#2280c3" d="M 551.332031 473.417969 C 551.332031 474.082031 551.300781 474.742188 551.234375 475.402344 C 551.171875 476.0625 551.074219 476.71875 550.945312 477.367188 C 550.816406 478.019531 550.652344 478.660156 550.460938 479.296875 C 550.269531 479.929688 550.046875 480.554688 549.792969 481.167969 C 549.539062 481.78125 549.253906 482.378906 548.941406 482.964844 C 548.628906 483.546875 548.289062 484.117188 547.921875 484.667969 C 547.550781 485.21875 547.15625 485.75 546.738281 486.265625 C 546.316406 486.777344 545.871094 487.269531 545.402344 487.738281 C 544.933594 488.207031 544.441406 488.652344 543.929688 489.070312 C 543.417969 489.492188 542.886719 489.886719 542.332031 490.253906 C 541.78125 490.625 541.214844 490.964844 540.628906 491.277344 C 540.042969 491.589844 539.445312 491.871094 538.832031 492.125 C 538.21875 492.378906 537.59375 492.605469 536.960938 492.796875 C 536.324219 492.988281 535.683594 493.148438 535.03125 493.277344 C 534.382812 493.410156 533.726562 493.503906 533.066406 493.570312 C 532.40625 493.636719 531.746094 493.667969 531.082031 493.667969 C 530.417969 493.667969 529.757812 493.636719 529.097656 493.570312 C 528.4375 493.503906 527.78125 493.410156 527.132812 493.277344 C 526.480469 493.148438 525.839844 492.988281 525.203125 492.796875 C 524.570312 492.605469 523.945312 492.378906 523.332031 492.125 C 522.71875 491.871094 522.121094 491.589844 521.535156 491.277344 C 520.949219 490.964844 520.382812 490.625 519.832031 490.253906 C 519.28125 489.886719 518.746094 489.492188 518.234375 489.070312 C 517.722656 488.652344 517.230469 488.207031 516.761719 487.738281 C 516.292969 487.269531 515.847656 486.777344 515.425781 486.265625 C 515.007812 485.75 514.613281 485.21875 514.242188 484.667969 C 513.875 484.117188 513.535156 483.546875 513.222656 482.964844 C 512.910156 482.378906 512.625 481.78125 512.371094 481.167969 C 512.117188 480.554688 511.894531 479.929688 511.703125 479.296875 C 511.511719 478.660156 511.347656 478.019531 511.21875 477.367188 C 511.089844 476.71875 510.992188 476.0625 510.929688 475.402344 C 510.863281 474.742188 510.832031 474.082031 510.832031 473.417969 C 510.832031 472.753906 510.863281 472.09375 510.929688 471.433594 C 510.992188 470.773438 511.089844 470.117188 511.21875 469.46875 C 511.347656 468.816406 511.511719 468.171875 511.703125 467.539062 C 511.894531 466.90625 512.117188 466.28125 512.371094 465.667969 C 512.625 465.054688 512.910156 464.457031 513.222656 463.871094 C 513.535156 463.285156 513.875 462.71875 514.242188 462.167969 C 514.613281 461.617188 515.007812 461.082031 515.425781 460.570312 C 515.847656 460.058594 516.292969 459.566406 516.761719 459.097656 C 517.230469 458.628906 517.722656 458.183594 518.234375 457.765625 C 518.746094 457.34375 519.28125 456.949219 519.832031 456.578125 C 520.382812 456.210938 520.949219 455.871094 521.535156 455.558594 C 522.121094 455.246094 522.71875 454.960938 523.332031 454.707031 C 523.945312 454.453125 524.570312 454.230469 525.203125 454.039062 C 525.839844 453.847656 526.480469 453.683594 527.132812 453.554688 C 527.78125 453.425781 528.4375 453.328125 529.097656 453.265625 C 529.757812 453.199219 530.417969 453.167969 531.082031 453.167969 C 531.746094 453.167969 532.40625 453.199219 533.066406 453.265625 C 533.726562 453.328125 534.382812 453.425781 535.03125 453.554688 C 535.683594 453.683594 536.324219 453.847656 536.960938 454.039062 C 537.59375 454.230469 538.21875 454.453125 538.832031 454.707031 C 539.445312 454.960938 540.042969 455.246094 540.628906 455.558594 C 541.214844 455.871094 541.78125 456.210938 542.332031 456.578125 C 542.886719 456.949219 543.417969 457.34375 543.929688 457.765625 C 544.441406 458.183594 544.933594 458.628906 545.402344 459.097656 C 545.871094 459.566406 546.316406 460.058594 546.738281 460.570312 C 547.15625 461.082031 547.550781 461.617188 547.921875 462.167969 C 548.289062 462.71875 548.628906 463.285156 548.941406 463.871094 C 549.253906 464.457031 549.539062 465.054688 549.792969 465.667969 C 550.046875 466.28125 550.269531 466.90625 550.460938 467.539062 C 550.652344 468.171875 550.816406 468.816406 550.945312 469.46875 C 551.074219 470.117188 551.171875 470.773438 551.234375 471.433594 C 551.300781 472.09375 551.332031 472.753906 551.332031 473.417969 Z M 551.332031 473.417969 " fill-opacity="1" fill-rule="nonzero"/><path fill="#2280c3" d="M 207.929688 473.417969 C 207.929688 474.082031 207.898438 474.742188 207.832031 475.402344 C 207.765625 476.0625 207.671875 476.71875 207.539062 477.367188 C 207.410156 478.019531 207.25 478.660156 207.058594 479.296875 C 206.863281 479.929688 206.640625 480.554688 206.386719 481.167969 C 206.132812 481.78125 205.851562 482.378906 205.539062 482.964844 C 205.226562 483.546875 204.886719 484.117188 204.515625 484.667969 C 204.148438 485.21875 203.753906 485.75 203.332031 486.265625 C 202.914062 486.777344 202.46875 487.269531 202 487.738281 C 201.527344 488.207031 201.039062 488.652344 200.527344 489.070312 C 200.011719 489.492188 199.480469 489.886719 198.929688 490.253906 C 198.378906 490.625 197.808594 490.964844 197.226562 491.277344 C 196.640625 491.589844 196.039062 491.871094 195.429688 492.125 C 194.816406 492.378906 194.191406 492.605469 193.558594 492.796875 C 192.921875 492.988281 192.28125 493.148438 191.628906 493.277344 C 190.980469 493.410156 190.324219 493.503906 189.664062 493.570312 C 189.003906 493.636719 188.339844 493.667969 187.679688 493.667969 C 187.015625 493.667969 186.351562 493.636719 185.691406 493.570312 C 185.03125 493.503906 184.378906 493.410156 183.726562 493.277344 C 183.078125 493.148438 182.433594 492.988281 181.800781 492.796875 C 181.164062 492.605469 180.542969 492.378906 179.929688 492.125 C 179.316406 491.871094 178.714844 491.589844 178.132812 491.277344 C 177.546875 490.964844 176.976562 490.625 176.425781 490.253906 C 175.875 489.886719 175.34375 489.492188 174.832031 489.070312 C 174.316406 488.652344 173.828125 488.207031 173.359375 487.738281 C 172.890625 487.269531 172.445312 486.777344 172.023438 486.265625 C 171.601562 485.75 171.207031 485.21875 170.839844 484.667969 C 170.472656 484.117188 170.128906 483.546875 169.816406 482.964844 C 169.503906 482.378906 169.222656 481.78125 168.96875 481.167969 C 168.714844 480.554688 168.492188 479.929688 168.296875 479.296875 C 168.105469 478.660156 167.945312 478.019531 167.816406 477.367188 C 167.6875 476.71875 167.589844 476.0625 167.523438 475.402344 C 167.460938 474.742188 167.425781 474.082031 167.425781 473.417969 C 167.425781 472.753906 167.460938 472.09375 167.523438 471.433594 C 167.589844 470.773438 167.6875 470.117188 167.816406 469.46875 C 167.945312 468.816406 168.105469 468.171875 168.296875 467.539062 C 168.492188 466.90625 168.714844 466.28125 168.96875 465.667969 C 169.222656 465.054688 169.503906 464.457031 169.816406 463.871094 C 170.128906 463.285156 170.472656 462.71875 170.839844 462.167969 C 171.207031 461.617188 171.601562 461.082031 172.023438 460.570312 C 172.445312 460.058594 172.890625 459.566406 173.359375 459.097656 C 173.828125 458.628906 174.316406 458.183594 174.832031 457.765625 C 175.34375 457.34375 175.875 456.949219 176.425781 456.578125 C 176.976562 456.210938 177.546875 455.871094 178.132812 455.558594 C 178.714844 455.246094 179.316406 454.960938 179.929688 454.707031 C 180.539062 454.453125 181.164062 454.230469 181.800781 454.039062 C 182.433594 453.847656 183.078125 453.683594 183.726562 453.554688 C 184.378906 453.425781 185.03125 453.328125 185.691406 453.265625 C 186.351562 453.199219 187.015625 453.167969 187.679688 453.167969 C 188.339844 453.167969 189.003906 453.199219 189.664062 453.265625 C 190.324219 453.328125 190.980469 453.425781 191.628906 453.554688 C 192.28125 453.683594 192.921875 453.847656 193.558594 454.039062 C 194.191406 454.230469 194.816406 454.453125 195.429688 454.707031 C 196.039062 454.960938 196.640625 455.246094 197.226562 455.558594 C 197.808594 455.871094 198.378906 456.210938 198.929688 456.578125 C 199.480469 456.949219 200.011719 457.34375 200.527344 457.765625 C 201.039062 458.183594 201.527344 458.628906 202 459.097656 C 202.46875 459.566406 202.914062 460.058594 203.332031 460.570312 C 203.753906 461.082031 204.148438 461.617188 204.515625 462.167969 C 204.886719 462.71875 205.226562 463.285156 205.539062 463.871094 C 205.851562 464.457031 206.132812 465.054688 206.386719 465.667969 C 206.640625 466.28125 206.867188 466.90625 207.058594 467.539062 C 207.25 468.171875 207.410156 468.816406 207.539062 469.46875 C 207.671875 470.117188 207.765625 470.773438 207.832031 471.433594 C 207.898438 472.09375 207.929688 472.753906 207.929688 473.417969 Z M 207.929688 473.417969 " fill-opacity="1" fill-rule="nonzero"/><path fill="#2280c3" d="M 194.191406 380.6875 C 194.191406 381.351562 194.15625 382.011719 194.09375 382.671875 C 194.027344 383.332031 193.929688 383.988281 193.800781 384.640625 C 193.671875 385.289062 193.511719 385.933594 193.320312 386.566406 C 193.125 387.203125 192.902344 387.824219 192.648438 388.4375 C 192.394531 389.050781 192.113281 389.648438 191.800781 390.234375 C 191.488281 390.820312 191.144531 391.386719 190.777344 391.9375 C 190.410156 392.492188 190.015625 393.023438 189.59375 393.535156 C 189.171875 394.046875 188.726562 394.539062 188.257812 395.007812 C 187.789062 395.476562 187.300781 395.921875 186.785156 396.34375 C 186.273438 396.761719 185.742188 397.15625 185.191406 397.527344 C 184.636719 397.894531 184.070312 398.234375 183.484375 398.546875 C 182.902344 398.859375 182.300781 399.144531 181.6875 399.398438 C 181.074219 399.652344 180.453125 399.875 179.816406 400.066406 C 179.183594 400.257812 178.539062 400.421875 177.890625 400.550781 C 177.238281 400.679688 176.582031 400.777344 175.925781 400.839844 C 175.265625 400.90625 174.601562 400.9375 173.9375 400.9375 C 173.277344 400.9375 172.613281 400.90625 171.953125 400.839844 C 171.292969 400.777344 170.636719 400.679688 169.988281 400.550781 C 169.335938 400.421875 168.695312 400.257812 168.058594 400.066406 C 167.425781 399.875 166.800781 399.652344 166.1875 399.398438 C 165.574219 399.144531 164.976562 398.859375 164.390625 398.546875 C 163.808594 398.234375 163.238281 397.894531 162.6875 397.527344 C 162.136719 397.15625 161.605469 396.761719 161.089844 396.34375 C 160.578125 395.921875 160.085938 395.476562 159.617188 395.007812 C 159.148438 394.539062 158.703125 394.046875 158.285156 393.535156 C 157.863281 393.023438 157.46875 392.492188 157.101562 391.9375 C 156.730469 391.386719 156.390625 390.820312 156.078125 390.234375 C 155.765625 389.648438 155.484375 389.050781 155.230469 388.4375 C 154.976562 387.824219 154.75 387.203125 154.558594 386.566406 C 154.367188 385.933594 154.207031 385.289062 154.078125 384.640625 C 153.945312 383.988281 153.851562 383.332031 153.785156 382.671875 C 153.71875 382.011719 153.6875 381.351562 153.6875 380.6875 C 153.6875 380.023438 153.71875 379.363281 153.785156 378.703125 C 153.851562 378.042969 153.945312 377.386719 154.078125 376.738281 C 154.207031 376.085938 154.367188 375.445312 154.558594 374.808594 C 154.75 374.175781 154.976562 373.550781 155.230469 372.9375 C 155.484375 372.324219 155.765625 371.726562 156.078125 371.140625 C 156.390625 370.558594 156.730469 369.988281 157.101562 369.4375 C 157.46875 368.886719 157.863281 368.355469 158.285156 367.839844 C 158.703125 367.328125 159.148438 366.839844 159.617188 366.367188 C 160.085938 365.898438 160.578125 365.457031 161.089844 365.035156 C 161.605469 364.613281 162.136719 364.21875 162.6875 363.851562 C 163.238281 363.480469 163.808594 363.140625 164.390625 362.828125 C 164.976562 362.515625 165.574219 362.234375 166.1875 361.980469 C 166.800781 361.726562 167.425781 361.503906 168.058594 361.308594 C 168.695312 361.117188 169.335938 360.957031 169.988281 360.828125 C 170.636719 360.699219 171.292969 360.601562 171.953125 360.535156 C 172.613281 360.46875 173.277344 360.4375 173.9375 360.4375 C 174.601562 360.4375 175.265625 360.46875 175.925781 360.535156 C 176.582031 360.601562 177.238281 360.699219 177.890625 360.828125 C 178.539062 360.957031 179.183594 361.117188 179.816406 361.308594 C 180.453125 361.503906 181.074219 361.726562 181.6875 361.980469 C 182.300781 362.234375 182.902344 362.515625 183.484375 362.828125 C 184.070312 363.140625 184.636719 363.480469 185.191406 363.851562 C 185.742188 364.21875 186.273438 364.613281 186.785156 365.035156 C 187.300781 365.457031 187.789062 365.898438 188.257812 366.367188 C 188.726562 366.839844 189.171875 367.328125 189.59375 367.839844 C 190.015625 368.355469 190.410156 368.886719 190.777344 369.4375 C 191.144531 369.988281 191.488281 370.558594 191.800781 371.140625 C 192.113281 371.726562 192.394531 372.324219 192.648438 372.9375 C 192.902344 373.550781 193.125 374.175781 193.320312 374.808594 C 193.511719 375.445312 193.671875 376.085938 193.800781 376.738281 C 193.929688 377.386719 194.027344 378.042969 194.09375 378.703125 C 194.15625 379.363281 194.191406 380.023438 194.191406 380.6875 Z M 194.191406 380.6875 " fill-opacity="1" fill-rule="nonzero"/><path fill="#2280c3" d="M 264.527344 308.871094 C 264.527344 309.535156 264.496094 310.195312 264.429688 310.855469 C 264.367188 311.515625 264.269531 312.171875 264.140625 312.824219 C 264.011719 313.472656 263.847656 314.117188 263.65625 314.75 C 263.464844 315.386719 263.242188 316.007812 262.988281 316.621094 C 262.734375 317.234375 262.449219 317.832031 262.136719 318.417969 C 261.824219 319.003906 261.484375 319.570312 261.117188 320.121094 C 260.746094 320.671875 260.351562 321.207031 259.929688 321.71875 C 259.511719 322.230469 259.066406 322.722656 258.597656 323.191406 C 258.128906 323.660156 257.636719 324.105469 257.125 324.527344 C 256.613281 324.945312 256.078125 325.339844 255.527344 325.710938 C 254.976562 326.078125 254.410156 326.417969 253.824219 326.730469 C 253.238281 327.042969 252.640625 327.328125 252.027344 327.582031 C 251.414062 327.835938 250.789062 328.058594 250.15625 328.25 C 249.519531 328.441406 248.878906 328.605469 248.226562 328.734375 C 247.578125 328.863281 246.921875 328.960938 246.261719 329.023438 C 245.601562 329.089844 244.941406 329.121094 244.277344 329.121094 C 243.613281 329.121094 242.953125 329.089844 242.292969 329.023438 C 241.632812 328.960938 240.976562 328.863281 240.324219 328.734375 C 239.675781 328.605469 239.03125 328.441406 238.398438 328.25 C 237.761719 328.058594 237.140625 327.835938 236.527344 327.582031 C 235.914062 327.328125 235.316406 327.042969 234.730469 326.730469 C 234.144531 326.417969 233.578125 326.078125 233.027344 325.710938 C 232.472656 325.339844 231.941406 324.945312 231.429688 324.527344 C 230.917969 324.105469 230.425781 323.660156 229.957031 323.191406 C 229.488281 322.722656 229.042969 322.230469 228.621094 321.71875 C 228.203125 321.207031 227.808594 320.671875 227.4375 320.121094 C 227.070312 319.570312 226.730469 319.003906 226.417969 318.417969 C 226.105469 317.832031 225.820312 317.234375 225.566406 316.621094 C 225.3125 316.007812 225.089844 315.386719 224.898438 314.75 C 224.703125 314.117188 224.542969 313.472656 224.414062 312.824219 C 224.285156 312.171875 224.1875 311.515625 224.121094 310.855469 C 224.058594 310.195312 224.023438 309.535156 224.023438 308.871094 C 224.023438 308.207031 224.058594 307.546875 224.121094 306.886719 C 224.1875 306.226562 224.285156 305.570312 224.414062 304.921875 C 224.542969 304.269531 224.703125 303.628906 224.898438 302.992188 C 225.089844 302.359375 225.3125 301.734375 225.566406 301.121094 C 225.820312 300.507812 226.105469 299.910156 226.417969 299.324219 C 226.730469 298.742188 227.070312 298.171875 227.4375 297.621094 C 227.808594 297.070312 228.203125 296.539062 228.621094 296.023438 C 229.042969 295.511719 229.488281 295.019531 229.957031 294.550781 C 230.425781 294.082031 230.917969 293.636719 231.429688 293.21875 C 231.941406 292.796875 232.472656 292.402344 233.027344 292.035156 C 233.578125 291.664062 234.144531 291.324219 234.730469 291.011719 C 235.316406 290.699219 235.914062 290.417969 236.527344 290.164062 C 237.140625 289.910156 237.761719 289.6875 238.398438 289.492188 C 239.03125 289.300781 239.675781 289.140625 240.324219 289.011719 C 240.976562 288.878906 241.632812 288.785156 242.292969 288.71875 C 242.953125 288.652344 243.613281 288.621094 244.277344 288.621094 C 244.941406 288.621094 245.601562 288.652344 246.261719 288.71875 C 246.921875 288.785156 247.578125 288.878906 248.226562 289.011719 C 248.878906 289.140625 249.519531 289.300781 250.15625 289.492188 C 250.789062 289.6875 251.414062 289.910156 252.027344 290.164062 C 252.640625 290.417969 253.238281 290.699219 253.824219 291.011719 C 254.410156 291.324219 254.976562 291.664062 255.527344 292.035156 C 256.078125 292.402344 256.613281 292.796875 257.125 293.21875 C 257.636719 293.636719 258.128906 294.082031 258.597656 294.550781 C 259.066406 295.019531 259.511719 295.511719 259.929688 296.023438 C 260.351562 296.539062 260.746094 297.070312 261.117188 297.621094 C 261.484375 298.171875 261.824219 298.742188 262.136719 299.324219 C 262.449219 299.910156 262.734375 300.507812 262.988281 301.121094 C 263.242188 301.734375 263.464844 302.359375 263.65625 302.992188 C 263.847656 303.628906 264.011719 304.269531 264.140625 304.921875 C 264.269531 305.570312 264.367188 306.226562 264.429688 306.886719 C 264.496094 307.546875 264.527344 308.207031 264.527344 308.871094 Z M 264.527344 308.871094 " fill-opacity="1" fill-rule="nonzero"/><path fill="#2280c3" d="M 326.15625 241.078125 C 326.15625 241.742188 326.125 242.402344 326.058594 243.0625 C 325.996094 243.722656 325.898438 244.378906 325.769531 245.027344 C 325.636719 245.679688 325.476562 246.324219 325.285156 246.957031 C 325.09375 247.589844 324.867188 248.214844 324.617188 248.828125 C 324.363281 249.441406 324.078125 250.039062 323.765625 250.625 C 323.453125 251.210938 323.113281 251.777344 322.742188 252.328125 C 322.375 252.878906 321.980469 253.414062 321.558594 253.925781 C 321.140625 254.4375 320.695312 254.929688 320.226562 255.398438 C 319.757812 255.867188 319.265625 256.3125 318.753906 256.734375 C 318.238281 257.152344 317.707031 257.546875 317.15625 257.917969 C 316.605469 258.285156 316.035156 258.625 315.453125 258.9375 C 314.867188 259.25 314.269531 259.535156 313.65625 259.789062 C 313.042969 260.042969 312.417969 260.265625 311.785156 260.457031 C 311.148438 260.648438 310.507812 260.8125 309.855469 260.941406 C 309.207031 261.070312 308.550781 261.167969 307.890625 261.230469 C 307.230469 261.296875 306.570312 261.328125 305.90625 261.328125 C 305.242188 261.328125 304.582031 261.296875 303.921875 261.230469 C 303.261719 261.167969 302.605469 261.070312 301.953125 260.941406 C 301.304688 260.8125 300.660156 260.648438 300.027344 260.457031 C 299.390625 260.265625 298.769531 260.042969 298.15625 259.789062 C 297.542969 259.535156 296.945312 259.25 296.359375 258.9375 C 295.773438 258.625 295.207031 258.285156 294.652344 257.917969 C 294.101562 257.546875 293.570312 257.152344 293.058594 256.734375 C 292.546875 256.3125 292.054688 255.867188 291.585938 255.398438 C 291.117188 254.929688 290.671875 254.4375 290.25 253.925781 C 289.828125 253.414062 289.433594 252.878906 289.066406 252.328125 C 288.699219 251.777344 288.359375 251.210938 288.042969 250.625 C 287.730469 250.039062 287.449219 249.441406 287.195312 248.828125 C 286.941406 248.214844 286.71875 247.589844 286.527344 246.957031 C 286.332031 246.324219 286.171875 245.679688 286.042969 245.027344 C 285.914062 244.378906 285.816406 243.722656 285.75 243.0625 C 285.6875 242.402344 285.652344 241.742188 285.652344 241.078125 C 285.652344 240.414062 285.6875 239.753906 285.75 239.09375 C 285.816406 238.433594 285.914062 237.777344 286.042969 237.128906 C 286.171875 236.476562 286.332031 235.835938 286.527344 235.199219 C 286.71875 234.566406 286.941406 233.941406 287.195312 233.328125 C 287.449219 232.714844 287.730469 232.117188 288.042969 231.53125 C 288.359375 230.949219 288.699219 230.378906 289.066406 229.828125 C 289.433594 229.277344 289.828125 228.746094 290.25 228.230469 C 290.671875 227.71875 291.117188 227.226562 291.585938 226.757812 C 292.054688 226.289062 292.546875 225.84375 293.058594 225.425781 C 293.570312 225.003906 294.101562 224.609375 294.652344 224.242188 C 295.207031 223.871094 295.773438 223.53125 296.359375 223.21875 C 296.945312 222.90625 297.542969 222.625 298.15625 222.371094 C 298.769531 222.117188 299.390625 221.890625 300.027344 221.699219 C 300.660156 221.507812 301.304688 221.347656 301.953125 221.21875 C 302.605469 221.085938 303.261719 220.992188 303.921875 220.925781 C 304.582031 220.859375 305.242188 220.828125 305.90625 220.828125 C 306.570312 220.828125 307.230469 220.859375 307.890625 220.925781 C 308.550781 220.992188 309.207031 221.085938 309.855469 221.21875 C 310.507812 221.347656 311.148438 221.507812 311.785156 221.699219 C 312.417969 221.890625 313.042969 222.117188 313.65625 222.371094 C 314.269531 222.625 314.867188 222.90625 315.453125 223.21875 C 316.035156 223.53125 316.605469 223.871094 317.15625 224.242188 C 317.707031 224.609375 318.238281 225.003906 318.753906 225.425781 C 319.265625 225.84375 319.757812 226.289062 320.226562 226.757812 C 320.695312 227.226562 321.140625 227.71875 321.558594 228.230469 C 321.980469 228.746094 322.375 229.277344 322.742188 229.828125 C 323.113281 230.378906 323.453125 230.949219 323.765625 231.53125 C 324.078125 232.117188 324.363281 232.714844 324.617188 233.328125 C 324.871094 233.941406 325.09375 234.566406 325.285156 235.199219 C 325.476562 235.835938 325.636719 236.476562 325.769531 237.128906 C 325.898438 237.777344 325.996094 238.433594 326.058594 239.09375 C 326.125 239.753906 326.15625 240.414062 326.15625 241.078125 Z M 326.15625 241.078125 " fill-opacity="1" fill-rule="nonzero"/><path fill="#2280c3" d="M 200.148438 231.019531 C 200.148438 231.683594 200.113281 232.34375 200.050781 233.003906 C 199.984375 233.664062 199.886719 234.320312 199.757812 234.96875 C 199.628906 235.621094 199.46875 236.261719 199.273438 236.898438 C 199.082031 237.53125 198.859375 238.15625 198.605469 238.769531 C 198.351562 239.382812 198.066406 239.980469 197.753906 240.566406 C 197.441406 241.148438 197.101562 241.71875 196.734375 242.269531 C 196.367188 242.820312 195.96875 243.355469 195.550781 243.867188 C 195.128906 244.378906 194.683594 244.871094 194.214844 245.339844 C 193.746094 245.808594 193.253906 246.253906 192.742188 246.671875 C 192.230469 247.09375 191.699219 247.488281 191.144531 247.855469 C 190.59375 248.226562 190.027344 248.566406 189.441406 248.878906 C 188.855469 249.191406 188.257812 249.476562 187.644531 249.726562 C 187.03125 249.980469 186.410156 250.207031 185.773438 250.398438 C 185.140625 250.589844 184.496094 250.75 183.847656 250.882812 C 183.195312 251.011719 182.539062 251.109375 181.878906 251.171875 C 181.21875 251.238281 180.558594 251.269531 179.894531 251.269531 C 179.230469 251.269531 178.570312 251.238281 177.910156 251.171875 C 177.25 251.109375 176.59375 251.011719 175.945312 250.882812 C 175.292969 250.75 174.652344 250.589844 174.015625 250.398438 C 173.382812 250.207031 172.757812 249.980469 172.144531 249.726562 C 171.53125 249.476562 170.933594 249.191406 170.347656 248.878906 C 169.765625 248.566406 169.195312 248.226562 168.644531 247.855469 C 168.09375 247.488281 167.558594 247.09375 167.046875 246.671875 C 166.535156 246.253906 166.042969 245.808594 165.574219 245.339844 C 165.105469 244.871094 164.660156 244.378906 164.242188 243.867188 C 163.820312 243.355469 163.425781 242.820312 163.058594 242.269531 C 162.6875 241.71875 162.347656 241.148438 162.035156 240.566406 C 161.722656 239.980469 161.4375 239.382812 161.183594 238.769531 C 160.929688 238.15625 160.707031 237.53125 160.515625 236.898438 C 160.324219 236.261719 160.164062 235.621094 160.03125 234.96875 C 159.902344 234.320312 159.804688 233.664062 159.742188 233.003906 C 159.675781 232.34375 159.644531 231.683594 159.644531 231.019531 C 159.644531 230.355469 159.675781 229.695312 159.742188 229.035156 C 159.804688 228.375 159.902344 227.71875 160.03125 227.070312 C 160.160156 226.417969 160.324219 225.777344 160.515625 225.140625 C 160.707031 224.507812 160.929688 223.882812 161.183594 223.269531 C 161.4375 222.65625 161.722656 222.058594 162.035156 221.472656 C 162.347656 220.886719 162.6875 220.320312 163.054688 219.769531 C 163.425781 219.21875 163.820312 218.683594 164.242188 218.171875 C 164.660156 217.660156 165.105469 217.167969 165.574219 216.699219 C 166.042969 216.230469 166.535156 215.785156 167.046875 215.367188 C 167.558594 214.945312 168.09375 214.550781 168.644531 214.183594 C 169.195312 213.8125 169.765625 213.472656 170.347656 213.160156 C 170.933594 212.847656 171.53125 212.5625 172.144531 212.308594 C 172.757812 212.054688 173.382812 211.832031 174.015625 211.640625 C 174.652344 211.449219 175.292969 211.289062 175.945312 211.15625 C 176.59375 211.027344 177.25 210.929688 177.910156 210.867188 C 178.570312 210.800781 179.230469 210.769531 179.894531 210.769531 C 180.558594 210.769531 181.21875 210.800781 181.878906 210.867188 C 182.539062 210.929688 183.195312 211.027344 183.847656 211.15625 C 184.496094 211.289062 185.140625 211.449219 185.773438 211.640625 C 186.410156 211.832031 187.03125 212.054688 187.644531 212.308594 C 188.257812 212.5625 188.855469 212.847656 189.441406 213.160156 C 190.027344 213.472656 190.59375 213.8125 191.144531 214.179688 C 191.699219 214.550781 192.230469 214.945312 192.742188 215.367188 C 193.253906 215.785156 193.746094 216.230469 194.214844 216.699219 C 194.683594 217.167969 195.128906 217.660156 195.550781 218.171875 C 195.96875 218.683594 196.367188 219.21875 196.734375 219.769531 C 197.101562 220.320312 197.441406 220.886719 197.753906 221.472656 C 198.066406 222.058594 198.351562 222.65625 198.605469 223.269531 C 198.859375 223.882812 199.082031 224.507812 199.273438 225.140625 C 199.46875 225.777344 199.628906 226.417969 199.757812 227.070312 C 199.886719 227.71875 199.984375 228.375 200.050781 229.035156 C 200.113281 229.695312 200.148438 230.355469 200.148438 231.019531 Z M 200.148438 231.019531 " fill-opacity="1" fill-rule="nonzero"/><g fill="#272626" fill-opacity="1"><g transform="translate(683.750597, 446.626933)"><g><path d="M 14.578125 0 L 14.578125 -123.421875 L 42.40625 -123.421875 L 42.40625 0 Z M 14.578125 0 "/></g></g></g><g fill="#272626" fill-opacity="1"><g transform="translate(740.727775, 446.626933)"><g><path d="M 12.296875 0 L 12.296875 -93.890625 L 35.015625 -93.890625 L 36.90625 -81.96875 L 37.671875 -81.96875 C 41.710938 -85.75 46.128906 -89.054688 50.921875 -91.890625 C 55.710938 -94.734375 61.328125 -96.15625 67.765625 -96.15625 C 77.984375 -96.15625 85.394531 -92.8125 90 -86.125 C 94.613281 -79.4375 96.921875 -70.160156 96.921875 -58.296875 L 96.921875 0 L 69.09375 0 L 69.09375 -54.703125 C 69.09375 -61.515625 68.175781 -66.179688 66.34375 -68.703125 C 64.519531 -71.234375 61.585938 -72.5 57.546875 -72.5 C 54.015625 -72.5 50.984375 -71.707031 48.453125 -70.125 C 45.929688 -68.550781 43.15625 -66.316406 40.125 -63.421875 L 40.125 0 Z M 12.296875 0 "/></g></g></g><g fill="#272626" fill-opacity="1"><g transform="translate(849.003344, 446.626933)"><g><path d="M 48.453125 2.265625 C 42.648438 2.265625 37.695312 1.382812 33.59375 -0.375 C 29.5 -2.144531 26.15625 -4.609375 23.5625 -7.765625 C 20.976562 -10.921875 19.085938 -14.738281 17.890625 -19.21875 C 16.691406 -23.695312 16.09375 -28.648438 16.09375 -34.078125 L 16.09375 -72.125 L 3.21875 -72.125 L 3.21875 -92.75 L 17.609375 -93.890625 L 20.828125 -118.875 L 43.921875 -118.875 L 43.921875 -93.890625 L 66.4375 -93.890625 L 66.4375 -72.125 L 43.921875 -72.125 L 43.921875 -34.453125 C 43.921875 -29.148438 45.023438 -25.332031 47.234375 -23 C 49.441406 -20.664062 52.375 -19.5 56.03125 -19.5 C 57.539062 -19.5 59.082031 -19.6875 60.65625 -20.0625 C 62.238281 -20.445312 63.660156 -20.890625 64.921875 -21.390625 L 69.28125 -1.140625 C 66.757812 -0.378906 63.796875 0.375 60.390625 1.125 C 56.984375 1.882812 53.003906 2.265625 48.453125 2.265625 Z M 48.453125 2.265625 "/></g></g></g><g fill="#272626" fill-opacity="1"><g transform="translate(921.502555, 446.626933)"><g><path d="M 54.328125 2.265625 C 47.640625 2.265625 41.390625 1.160156 35.578125 -1.046875 C 29.773438 -3.253906 24.726562 -6.46875 20.4375 -10.6875 C 16.15625 -14.914062 12.8125 -20.054688 10.40625 -26.109375 C 8.007812 -32.171875 6.8125 -39.117188 6.8125 -46.953125 C 6.8125 -54.515625 8.070312 -61.359375 10.59375 -67.484375 C 13.125 -73.609375 16.4375 -78.78125 20.53125 -83 C 24.632812 -87.226562 29.335938 -90.476562 34.640625 -92.75 C 39.941406 -95.019531 45.429688 -96.15625 51.109375 -96.15625 C 57.796875 -96.15625 63.628906 -95.019531 68.609375 -92.75 C 73.597656 -90.476562 77.765625 -87.320312 81.109375 -83.28125 C 84.453125 -79.25 86.941406 -74.488281 88.578125 -69 C 90.222656 -63.507812 91.046875 -57.546875 91.046875 -51.109375 C 91.046875 -48.585938 90.921875 -46.191406 90.671875 -43.921875 C 90.421875 -41.648438 90.171875 -39.945312 89.921875 -38.8125 L 33.6875 -38.8125 C 34.957031 -31.988281 37.769531 -26.96875 42.125 -23.75 C 46.476562 -20.539062 51.804688 -18.9375 58.109375 -18.9375 C 64.796875 -18.9375 71.550781 -21.015625 78.375 -25.171875 L 87.640625 -8.328125 C 82.847656 -5.046875 77.515625 -2.457031 71.640625 -0.5625 C 65.773438 1.320312 60.003906 2.265625 54.328125 2.265625 Z M 33.5 -57.171875 L 67.390625 -57.171875 C 67.390625 -62.472656 66.191406 -66.765625 63.796875 -70.046875 C 61.398438 -73.328125 57.359375 -74.96875 51.671875 -74.96875 C 47.253906 -74.96875 43.375 -73.515625 40.03125 -70.609375 C 36.6875 -67.703125 34.507812 -63.222656 33.5 -57.171875 Z M 33.5 -57.171875 "/></g></g></g><g fill="#272626" fill-opacity="1"><g transform="translate(1019.556306, 446.626933)"><g><path d="M 37.859375 2.265625 C 33.066406 2.265625 29.03125 1.507812 25.75 0 C 22.46875 -1.507812 19.847656 -3.617188 17.890625 -6.328125 C 15.929688 -9.046875 14.507812 -12.328125 13.625 -16.171875 C 12.738281 -20.023438 12.296875 -24.351562 12.296875 -29.15625 L 12.296875 -132.703125 L 40.125 -132.703125 L 40.125 -28.015625 C 40.125 -25.109375 40.660156 -23.085938 41.734375 -21.953125 C 42.804688 -20.816406 43.910156 -20.25 45.046875 -20.25 C 45.679688 -20.25 46.21875 -20.25 46.65625 -20.25 C 47.101562 -20.25 47.703125 -20.378906 48.453125 -20.640625 L 51.875 0 C 50.351562 0.632812 48.425781 1.171875 46.09375 1.609375 C 43.757812 2.046875 41.015625 2.265625 37.859375 2.265625 Z M 37.859375 2.265625 "/></g></g></g><g fill="#272626" fill-opacity="1"><g transform="translate(1073.694091, 446.626933)"><g><path d="M 37.859375 2.265625 C 33.066406 2.265625 29.03125 1.507812 25.75 0 C 22.46875 -1.507812 19.847656 -3.617188 17.890625 -6.328125 C 15.929688 -9.046875 14.507812 -12.328125 13.625 -16.171875 C 12.738281 -20.023438 12.296875 -24.351562 12.296875 -29.15625 L 12.296875 -132.703125 L 40.125 -132.703125 L 40.125 -28.015625 C 40.125 -25.109375 40.660156 -23.085938 41.734375 -21.953125 C 42.804688 -20.816406 43.910156 -20.25 45.046875 -20.25 C 45.679688 -20.25 46.21875 -20.25 46.65625 -20.25 C 47.101562 -20.25 47.703125 -20.378906 48.453125 -20.640625 L 51.875 0 C 50.351562 0.632812 48.425781 1.171875 46.09375 1.609375 C 43.757812 2.046875 41.015625 2.265625 37.859375 2.265625 Z M 37.859375 2.265625 "/></g></g></g><g fill="#272626" fill-opacity="1"><g transform="translate(1127.831875, 446.626933)"><g><path d="M 12.296875 0 L 12.296875 -93.890625 L 40.125 -93.890625 L 40.125 0 Z M 26.125 -107.703125 C 21.457031 -107.703125 17.609375 -109.054688 14.578125 -111.765625 C 11.546875 -114.484375 10.03125 -117.988281 10.03125 -122.28125 C 10.03125 -126.570312 11.546875 -130.039062 14.578125 -132.6875 C 17.609375 -135.34375 21.457031 -136.671875 26.125 -136.671875 C 30.914062 -136.671875 34.796875 -135.34375 37.765625 -132.6875 C 40.734375 -130.039062 42.21875 -126.570312 42.21875 -122.28125 C 42.21875 -117.988281 40.734375 -114.484375 37.765625 -111.765625 C 34.796875 -109.054688 30.914062 -107.703125 26.125 -107.703125 Z M 26.125 -107.703125 "/></g></g></g><g fill="#272626" fill-opacity="1"><g transform="translate(1180.076715, 446.626933)"><g><path d="M 12.296875 0 L 12.296875 -93.890625 L 35.015625 -93.890625 L 36.90625 -81.78125 L 37.671875 -81.78125 C 41.578125 -85.6875 45.738281 -89.054688 50.15625 -91.890625 C 54.582031 -94.734375 59.882812 -96.15625 66.0625 -96.15625 C 72.75 -96.15625 78.144531 -94.796875 82.25 -92.078125 C 86.351562 -89.367188 89.601562 -85.492188 92 -80.453125 C 96.164062 -84.742188 100.550781 -88.429688 105.15625 -91.515625 C 109.757812 -94.609375 115.21875 -96.15625 121.53125 -96.15625 C 131.625 -96.15625 139.035156 -92.78125 143.765625 -86.03125 C 148.503906 -79.28125 150.875 -70.035156 150.875 -58.296875 L 150.875 0 L 123.046875 0 L 123.046875 -54.703125 C 123.046875 -61.515625 122.128906 -66.179688 120.296875 -68.703125 C 118.460938 -71.234375 115.53125 -72.5 111.5 -72.5 C 106.820312 -72.5 101.457031 -69.472656 95.40625 -63.421875 L 95.40625 0 L 67.578125 0 L 67.578125 -54.703125 C 67.578125 -61.515625 66.660156 -66.179688 64.828125 -68.703125 C 63.003906 -71.234375 60.070312 -72.5 56.03125 -72.5 C 51.238281 -72.5 45.9375 -69.472656 40.125 -63.421875 L 40.125 0 Z M 12.296875 0 "/></g></g></g><g fill="#272626" fill-opacity="1"><g transform="translate(1342.300785, 446.626933)"><g><path d="M 35.96875 2.265625 C 31.675781 2.265625 27.796875 1.539062 24.328125 0.09375 C 20.859375 -1.351562 17.921875 -3.367188 15.515625 -5.953125 C 13.117188 -8.546875 11.257812 -11.546875 9.9375 -14.953125 C 8.613281 -18.359375 7.953125 -22.082031 7.953125 -26.125 C 7.953125 -35.96875 12.113281 -43.664062 20.4375 -49.21875 C 28.769531 -54.769531 42.210938 -58.492188 60.765625 -60.390625 C 60.515625 -64.546875 59.285156 -67.851562 57.078125 -70.3125 C 54.867188 -72.78125 51.175781 -74.015625 46 -74.015625 C 41.957031 -74.015625 37.945312 -73.253906 33.96875 -71.734375 C 30 -70.222656 25.742188 -68.144531 21.203125 -65.5 L 11.171875 -83.859375 C 17.222656 -87.515625 23.5625 -90.476562 30.1875 -92.75 C 36.8125 -95.019531 43.847656 -96.15625 51.296875 -96.15625 C 63.410156 -96.15625 72.65625 -92.71875 79.03125 -85.84375 C 85.40625 -78.96875 88.59375 -68.273438 88.59375 -53.765625 L 88.59375 0 L 65.875 0 L 63.984375 -9.65625 L 63.21875 -9.65625 C 59.1875 -6.125 54.960938 -3.253906 50.546875 -1.046875 C 46.128906 1.160156 41.269531 2.265625 35.96875 2.265625 Z M 45.4375 -19.3125 C 48.582031 -19.3125 51.289062 -20.003906 53.5625 -21.390625 C 55.84375 -22.773438 58.242188 -24.734375 60.765625 -27.265625 L 60.765625 -43.734375 C 50.921875 -42.335938 44.101562 -40.3125 40.3125 -37.65625 C 36.53125 -35.007812 34.640625 -31.859375 34.640625 -28.203125 C 34.640625 -25.171875 35.617188 -22.929688 37.578125 -21.484375 C 39.535156 -20.035156 42.15625 -19.3125 45.4375 -19.3125 Z M 45.4375 -19.3125 "/></g></g></g><g fill="#272626" fill-opacity="1"><g transform="translate(1442.05815, 446.626933)"><g><path d="M 12.296875 0 L 12.296875 -93.890625 L 35.015625 -93.890625 L 36.90625 -77.421875 L 37.671875 -77.421875 C 41.078125 -83.859375 45.175781 -88.585938 49.96875 -91.609375 C 54.769531 -94.640625 59.566406 -96.15625 64.359375 -96.15625 C 67.015625 -96.15625 69.191406 -96 70.890625 -95.6875 C 72.597656 -95.375 74.144531 -94.898438 75.53125 -94.265625 L 70.984375 -70.234375 C 69.222656 -70.734375 67.582031 -71.109375 66.0625 -71.359375 C 64.550781 -71.617188 62.785156 -71.75 60.765625 -71.75 C 57.234375 -71.75 53.539062 -70.484375 49.6875 -67.953125 C 45.84375 -65.429688 42.65625 -60.953125 40.125 -54.515625 L 40.125 0 Z M 12.296875 0 "/></g></g></g><g fill="#272626" fill-opacity="1"><g transform="translate(1517.396708, 446.626933)"><g><path d="M 12.296875 0 L 12.296875 -132.703125 L 39.375 -132.703125 L 39.375 -56.59375 L 40.125 -56.59375 L 69.84375 -93.890625 L 100.140625 -93.890625 L 67.203125 -55.28125 L 102.59375 0 L 72.5 0 L 51.296875 -36.53125 L 39.375 -23.09375 L 39.375 0 Z M 12.296875 0 "/></g></g></g><g fill="#272626" fill-opacity="1"><g transform="translate(1621.129247, 446.626933)"><g/></g></g><g fill="#272626" fill-opacity="1"><g transform="translate(1658.987857, 446.626933)"><g><path d="M 43.53125 -62.46875 L 40.515625 -51.109375 L 66.828125 -51.109375 L 63.984375 -62.46875 C 62.210938 -68.65625 60.503906 -75.21875 58.859375 -82.15625 C 57.222656 -89.09375 55.585938 -95.78125 53.953125 -102.21875 L 53.1875 -102.21875 C 51.675781 -95.65625 50.128906 -88.9375 48.546875 -82.0625 C 46.972656 -75.1875 45.300781 -68.65625 43.53125 -62.46875 Z M -1.140625 0 L 37.484375 -123.421875 L 70.984375 -123.421875 L 109.609375 0 L 80.078125 0 L 72.5 -29.34375 L 34.828125 -29.34375 L 27.265625 0 Z M -1.140625 0 "/></g></g></g><g fill="#272626" fill-opacity="1"><g transform="translate(1767.452757, 446.626933)"><g><path d="M 14.578125 0 L 14.578125 -123.421875 L 42.40625 -123.421875 L 42.40625 0 Z M 14.578125 0 "/></g></g></g></svg>